STARTFONT 2.1
COMMENT
COMMENT Converted from OpenType font "Roboto-Bold.ttf" by "otf2bdf 3.0".
COMMENT
FONT -FreeType-Roboto-Bold-R-Normal--77-560-100-100-P-403-ISO10646-1
SIZE 56 100 100
FONTBOUNDINGBOX 149 100 -56 -20
STARTPROPERTIES 19
FOUNDRY "FreeType"
FAMILY_NAME "Roboto"
WEIGHT_NAME "Bold"
SLANT "R"
SETWIDTH_NAME "Normal"
ADD_STYLE_NAME ""
PIXEL_SIZE 77
POINT_SIZE 560
RESOLUTION_X 100
RESOLUTION_Y 100
SPACING "P"
AVERAGE_WIDTH 403
CHARSET_REGISTRY "ISO10646"
CHARSET_ENCODING "1"
FONT_ASCENT 72
FONT_DESCENT 19
COPYRIGHT "Copyright 2011 The Roboto Project Authors (https://github.com/googlefonts/roboto-classic)"
_OTF_FONTFILE "Roboto-Bold.ttf"
_OTF_PSNAME "Roboto-Bold"
ENDPROPERTIES
CHARS 922
STARTCHAR 0000
ENCODING 0
SWIDTH 0 0
DWIDTH 0 0
BBX 0 0 0 0
BITMAP
ENDCHAR
STARTCHAR 0002
ENCODING 2
SWIDTH 0 0
DWIDTH 0 0
BBX 0 0 0 0
BITMAP
ENDCHAR
STARTCHAR 000D
ENCODING 13
SWIDTH 244 0
DWIDTH 19 0
BBX 0 0 0 0
BITMAP
ENDCHAR
STARTCHAR 0020
ENCODING 32
SWIDTH 244 0
DWIDTH 19 0
BBX 0 0 0 0
BITMAP
ENDCHAR
STARTCHAR 0021
ENCODING 33
SWIDTH 270 0
DWIDTH 21 0
BBX 12 56 5 -1
BITMAP
FFF0
FFF0
FFF0
FFE0
FFE0
FFE0
FFE0
FFE0
FFE0
FFE0
FFE0
FFE0
FFE0
FFE0
FFE0
FFE0
7FE0
7FE0
7FE0
7FE0
7FE0
7FE0
7FE0
7FE0
7FE0
7FE0
7FE0
7FE0
7FE0
7FE0
7FE0
7FE0
7FE0
7FE0
7FC0
7FC0
7FC0
7FC0
0000
0000
0000
0000
0000
0000
0600
3FC0
7FE0
FFE0
FFF0
FFF0
FFF0
FFF0
FFE0
7FE0
3FC0
0400
ENDCHAR
STARTCHAR 0022
ENCODING 34
SWIDTH 308 0
DWIDTH 24 0
BBX 20 20 2 38
BITMAP
FF07F0
FF07F0
FF07F0
FF07F0
FF07F0
FF07F0
FF07F0
FF07F0
FF07F0
FF07F0
FE07F0
FE07F0
FE07F0
FE07F0
FE07E0
FE07E0
FE07E0
FE07E0
FE07E0
FE07E0
ENDCHAR
STARTCHAR 0023
ENCODING 35
SWIDTH 591 0
DWIDTH 46 0
BBX 43 55 2 0
BITMAP
0000FE03F800
0001FC03F800
0001FC03F000
0001FC07F000
0001FC07F000
0001FC07F000
0001FC07F000
0003F807F000
0003F807E000
0003F80FE000
0003F80FE000
0003F80FE000
0003F00FE000
0007F00FE000
0007F01FC000
1FFFFFFFFFE0
1FFFFFFFFFE0
1FFFFFFFFFE0
1FFFFFFFFFE0
1FFFFFFFFFE0
1FFFFFFFFFE0
1FFFFFFFFFE0
000FE03F8000
000FE03F8000
001FC03F8000
001FC03F0000
001FC07F0000
001FC07F0000
001FC07F0000
001FC07F0000
003F807F0000
003F807E0000
003F80FE0000
FFFFFFFFFF00
FFFFFFFFFF00
FFFFFFFFFF00
FFFFFFFFFF00
FFFFFFFFFF00
FFFFFFFFFF00
007F01FC0000
007F01FC0000
007E01FC0000
00FE01F80000
00FE03F80000
00FE03F80000
00FE03F80000
00FE03F80000
01FC03F80000
01FC03F00000
01FC07F00000
01FC07F00000
01FC07F00000
01F807F00000
03F807F00000
03F80FE00000
ENDCHAR
STARTCHAR 0024
ENCODING 36
SWIDTH 565 0
DWIDTH 44 0
BBX 38 72 3 -8
BITMAP
00003F0000
00003F0000
00003F0000
00003F0000
00003F0000
00003F0000
00003F0000
00003F0000
0001FF8000
000FFFF800
003FFFFC00
00FFFFFF00
01FFFFFF80
03FFFFFFC0
07FFFFFFE0
07FFFFFFE0
0FFFF7FFF0
0FFF00FFF0
1FFE007FF8
1FFC003FF8
1FFC003FF8
1FFC001FFC
1FFC001FFC
1FFC001FFC
1FFC001FFC
1FFC001FFC
1FFC000000
1FFE000000
1FFF000000
0FFF800000
0FFFE00000
07FFF80000
07FFFE0000
03FFFFC000
01FFFFF000
00FFFFF800
003FFFFE00
000FFFFF00
0003FFFFC0
0000FFFFE0
00003FFFE0
000007FFF0
000001FFF8
000000FFF8
0000007FF8
0000003FFC
0000001FFC
FFE0001FFC
7FF0001FFC
7FF0001FFC
7FF0001FFC
7FF0001FFC
7FF8003FFC
7FF8003FFC
3FFC007FF8
3FFF00FFF8
1FFFFFFFF0
1FFFFFFFF0
0FFFFFFFE0
07FFFFFFC0
03FFFFFF80
00FFFFFF00
007FFFFC00
000FFFF000
0000FE0000
00007E0000
00007E0000
00007E0000
00007E0000
00007E0000
00007E0000
00007E0000
ENDCHAR
STARTCHAR 0025
ENCODING 37
SWIDTH 732 0
DWIDTH 57 0
BBX 50 57 4 -1
BITMAP
01FF0000000000
07FFC000000000
0FFFF000000000
3FFFF800000000
3FFFFC00000000
7FFFFC00000000
7FC3FE00180000
FF01FE003E0000
FF00FE003F8000
FE00FE007F0000
FE00FF007F0000
FE00FF00FE0000
FE00FF01FC0000
FE00FF01FC0000
FE00FF03F80000
FE00FF07F80000
FE00FE07F00000
FF01FE0FE00000
FF81FE0FE00000
7FFFFC1FC00000
7FFFFC3F800000
3FFFF83F800000
1FFFF07F000000
0FFFE0FF000000
03FF80FE000000
005801FC000000
000001FC000000
000003F8000000
000007F0000000
000007F0000000
00000FE0000000
00001FE03FC000
00001FC0FFF800
00003F83FFFC00
00003F87FFFE00
00007F0FFFFF00
0000FE0FFFFF80
0000FE1FF0FF80
0001FC1FE07F80
0003FC3FC03FC0
0003F83FC01FC0
0007F03F801FC0
0007F03F801FC0
000FE03F801FC0
001FC03F801FC0
001FC03F801FC0
003F803F801FC0
007F803FC01FC0
007F003FC03FC0
007E001FE07F80
001E001FF9FF80
0004000FFFFF80
0000000FFFFF00
00000007FFFE00
00000003FFFC00
00000000FFF000
000000000F8000
ENDCHAR
STARTCHAR 0026
ENCODING 38
SWIDTH 655 0
DWIDTH 51 0
BBX 47 57 3 -1
BITMAP
0001FF000000
000FFFE00000
003FFFF00000
007FFFFC0000
00FFFFFE0000
01FFFFFE0000
03FFFFFF0000
03FFFFFF0000
07FFEFFF8000
07FF01FF8000
07FE00FF8000
07FE00FFC000
07FC00FFC000
0FFC007FC000
0FFC00FF8000
07FC00FF8000
07FE00FF8000
07FE01FF8000
07FF03FF0000
07FF07FF0000
03FF9FFE0000
03FFFFFC0000
01FFFFF80000
00FFFFF00000
00FFFFE00000
007FFF800000
003FFF000000
00FFFE000000
01FFFF000000
03FFFF001FF0
07FFFF801FF0
0FFFFFC03FF0
1FFFFFE03FF0
3FFDFFF03FF0
7FF8FFF83FE0
7FF07FFC3FE0
FFF03FFC7FE0
FFE01FFE7FE0
FFE00FFFFFE0
FFE00FFFFFC0
FFE007FFFFC0
FFE003FFFFC0
FFE001FFFF80
FFE000FFFF80
FFF0007FFF00
FFF0003FFE00
7FF8007FFE00
7FFE01FFFF00
7FFFFFFFFF80
3FFFFFFFFFC0
1FFFFFFFFFC0
0FFFFFFFFFE0
07FFFFFFFFF0
03FFFFFE7FF8
00FFFFF87FFC
003FFFC03FFE
0003FC000000
ENDCHAR
STARTCHAR 0027
ENCODING 39
SWIDTH 154 0
DWIDTH 12 0
BBX 8 20 2 38
BITMAP
FF
FF
FF
FF
FF
FF
FF
FF
FF
FF
FF
FF
FF
FF
FF
FF
FF
FF
FE
FE
ENDCHAR
STARTCHAR 0028
ENCODING 40
SWIDTH 347 0
DWIDTH 27 0
BBX 20 78 5 -17
BITMAP
000060
0001E0
0003F0
0007F0
000FF0
001FF0
003FE0
007FC0
00FF80
00FF80
01FF00
03FE00
03FE00
07FC00
07FC00
0FF800
0FF800
0FF000
1FF000
1FF000
3FE000
3FE000
3FE000
3FC000
7FC000
7FC000
7FC000
7FC000
FFC000
FF8000
FF8000
FF8000
FF8000
FF8000
FF8000
FF8000
FF8000
FF8000
FF8000
FF8000
FF8000
FF8000
FF8000
FF8000
FF8000
FF8000
FF8000
FF8000
FF8000
FFC000
7FC000
7FC000
7FC000
7FC000
3FC000
3FE000
3FE000
3FE000
1FF000
1FF000
0FF000
0FF800
0FF800
07FC00
07FC00
03FE00
01FE00
01FF00
00FF80
00FF80
007FC0
003FE0
001FF0
000FF0
0007F0
0003F0
0001E0
000060
ENDCHAR
STARTCHAR 0029
ENCODING 41
SWIDTH 347 0
DWIDTH 27 0
BBX 21 78 2 -17
BITMAP
700000
780000
7C0000
FF0000
FF8000
FFC000
7FC000
3FE000
1FF000
0FF800
0FF800
07FC00
03FE00
03FE00
01FF00
01FF00
01FF80
00FF80
00FF80
007FC0
007FC0
007FC0
007FE0
003FE0
003FE0
003FF0
003FF0
003FF0
001FF0
001FF0
001FF8
001FF8
001FF8
001FF8
001FF8
001FF8
001FF8
001FF8
001FF8
001FF8
001FF8
001FF8
001FF8
001FF8
001FF8
001FF8
001FF8
001FF8
001FF0
001FF0
003FF0
003FF0
003FF0
003FE0
003FE0
007FE0
007FC0
007FC0
007FC0
00FF80
00FF80
01FF80
01FF00
01FF00
03FE00
03FE00
07FC00
0FF800
0FF800
1FF000
3FE000
7FC000
FF8000
FF0000
FE0000
7C0000
780000
600000
ENDCHAR
STARTCHAR 002A
ENCODING 42
SWIDTH 450 0
DWIDTH 35 0
BBX 34 33 1 22
BITMAP
0007F80000
0003F80000
0003F80000
0003F80000
0003F80000
0003F00000
0003F00000
0003F00000
2003F00000
3803F00700
3F03F01F00
7FE3F0FF80
7FFBF3FF80
FFFFFFFF80
FFFFFFFFC0
3FFFFFFF80
03FFFFFC00
007FFFC000
000FFE0000
001FFC0000
003FFE0000
003FFF0000
007F7F8000
00FF3F8000
01FE3FC000
03FC1FE000
03FC0FF000
07F80FF800
0FF807F800
07F007F800
03E003E000
00E001C000
0040018000
ENDCHAR
STARTCHAR 002B
ENCODING 43
SWIDTH 540 0
DWIDTH 42 0
BBX 38 40 2 6
BITMAP
0003FF0000
0003FF0000
0003FF0000
0003FF0000
0003FF0000
0003FF0000
0003FF0000
0003FF0000
0003FF0000
0003FF0000
0003FF0000
0003FF0000
0003FF0000
0003FF0000
0003FF0000
FFFFFFFFFC
FFFFFFFFFC
FFFFFFFFFC
FFFFFFFFFC
FFFFFFFFFC
FFFFFFFFFC
FFFFFFFFFC
FFFFFFFFFC
FFFFFFFFFC
FFFFFFFFFC
0003FF0000
0003FF0000
0003FF0000
0003FF0000
0003FF0000
0003FF0000
0003FF0000
0003FF0000
0003FF0000
0003FF0000
0003FF0000
0003FF0000
0003FF0000
0003FF0000
0003FF0000
ENDCHAR
STARTCHAR 002C
ENCODING 44
SWIDTH 244 0
DWIDTH 19 0
BBX 13 22 2 -14
BITMAP
1FF8
1FF8
1FF8
1FF8
1FF8
1FF8
1FF8
1FF8
1FF8
1FF0
1FF0
1FF0
1FF0
3FE0
3FE0
3FE0
7FC0
7F80
FF80
FF00
7E00
1C00
ENDCHAR
STARTCHAR 002D
ENCODING 45
SWIDTH 385 0
DWIDTH 30 0
BBX 22 9 4 19
BITMAP
FFFFFC
FFFFFC
FFFFFC
FFFFFC
FFFFFC
FFFFFC
FFFFFC
FFFFFC
FFFFFC
ENDCHAR
STARTCHAR 002E
ENCODING 46
SWIDTH 282 0
DWIDTH 22 0
BBX 12 11 5 0
BITMAP
1F80
3FC0
7FE0
FFF0
FFF0
FFF0
FFF0
FFF0
FFE0
7FE0
3FC0
ENDCHAR
STARTCHAR 002F
ENCODING 47
SWIDTH 360 0
DWIDTH 28 0
BBX 28 60 0 -5
BITMAP
00001FF0
00001FE0
00001FE0
00003FE0
00003FC0
00003FC0
00007FC0
00007F80
00007F80
0000FF80
0000FF00
0000FF00
0001FF00
0001FE00
0001FE00
0003FE00
0003FC00
0003FC00
0007FC00
0007F800
0007F800
000FF800
000FF000
000FF000
001FF000
001FE000
001FE000
003FE000
003FC000
003FC000
007F8000
007F8000
007F8000
00FF0000
00FF0000
00FF0000
01FE0000
01FE0000
01FE0000
03FC0000
03FC0000
03FC0000
07F80000
07F80000
07F80000
0FF00000
0FF00000
0FF00000
1FE00000
1FE00000
1FE00000
3FC00000
3FC00000
3FC00000
7F800000
7F800000
7F800000
FF000000
FF000000
FF000000
ENDCHAR
STARTCHAR 0030
ENCODING 48
SWIDTH 565 0
DWIDTH 44 0
BBX 37 57 4 -1
BITMAP
0007FE0000
003FFFC000
00FFFFF000
01FFFFFC00
03FFFFFE00
07FFFFFF00
0FFFFFFF80
1FFFFFFF80
1FFFFFFFC0
3FFE03FFC0
3FF801FFE0
7FF800FFE0
7FF0007FF0
7FF0007FF0
FFE0007FF0
FFE0007FF0
FFE0003FF0
FFE0003FF8
FFE0003FF8
FFE0003FF8
FFE0003FF8
FFE0003FF8
FFE0003FF8
FFE0003FF8
FFE0003FF8
FFE0003FF8
FFE0003FF8
FFE0003FF8
FFE0003FF8
FFE0003FF8
FFE0003FF8
FFE0003FF8
FFE0003FF8
FFE0003FF8
FFE0003FF8
FFE0003FF8
FFE0003FF8
FFE0003FF8
FFE0003FF8
FFE0003FF8
FFE0003FF0
FFE0007FF0
7FE0007FF0
7FF0007FF0
7FF000FFE0
3FF800FFE0
3FFC01FFE0
3FFE03FFC0
1FFFFFFFC0
0FFFFFFF80
0FFFFFFF00
07FFFFFF00
03FFFFFE00
01FFFFF800
007FFFF000
001FFFC000
0001F80000
ENDCHAR
STARTCHAR 0031
ENCODING 49
SWIDTH 565 0
DWIDTH 44 0
BBX 24 55 6 0
BITMAP
000007
00003F
0001FF
000FFF
007FFF
01FFFF
0FFFFF
7FFFFF
FFFFFF
FFFFFF
FFFFFF
FFFFFF
FFFBFF
FF83FF
FC03FF
E003FF
0003FF
0003FF
0003FF
0003FF
0003FF
0003FF
0003FF
0003FF
0003FF
0003FF
0003FF
0003FF
0003FF
0003FF
0003FF
0003FF
0003FF
0003FF
0003FF
0003FF
0003FF
0003FF
0003FF
0003FF
0003FF
0003FF
0003FF
0003FF
0003FF
0003FF
0003FF
0003FF
0003FF
0003FF
0003FF
0003FF
0003FF
0003FF
0003FF
ENDCHAR
STARTCHAR 0032
ENCODING 50
SWIDTH 565 0
DWIDTH 44 0
BBX 39 56 3 0
BITMAP
0003FF8000
003FFFF000
00FFFFFC00
01FFFFFF00
03FFFFFF80
07FFFFFFC0
0FFFFFFFC0
1FFFFFFFE0
3FFFDFFFE0
3FFE01FFF0
7FF800FFF0
7FF8007FF0
FFF0007FF8
FFE0007FF8
FFE0003FF8
FFE0003FF8
FFE0003FF8
FFE0003FF8
0000003FF8
0000007FF0
0000007FF0
0000007FF0
000000FFE0
000001FFE0
000001FFC0
000003FFC0
000007FF80
00000FFF00
00000FFF00
00001FFE00
00003FFC00
00007FF800
0000FFF000
0001FFF000
0003FFE000
0007FFC000
000FFF8000
001FFF0000
003FFE0000
007FFC0000
00FFF80000
00FFF00000
01FFE00000
03FFC00000
07FFC00000
0FFF800000
1FFF000000
3FFFFFFFFE
7FFFFFFFFE
7FFFFFFFFE
7FFFFFFFFE
7FFFFFFFFE
7FFFFFFFFE
7FFFFFFFFE
7FFFFFFFFE
7FFFFFFFFE
ENDCHAR
STARTCHAR 0033
ENCODING 51
SWIDTH 565 0
DWIDTH 44 0
BBX 39 57 2 -1
BITMAP
0003FF8000
001FFFF800
007FFFFE00
01FFFFFF00
03FFFFFFC0
07FFFFFFC0
0FFFFFFFE0
1FFFFFFFF0
1FFFEFFFF8
3FFE00FFF8
3FFC007FF8
7FF8003FFC
7FF8003FFC
7FF0001FFC
7FF0001FFC
0000001FFC
0000001FFC
0000001FFC
0000001FFC
0000003FF8
0000003FF8
0000007FF0
000000FFF0
00000FFFE0
0007FFFFC0
0007FFFF80
0007FFFE00
0007FFFC00
0007FFFF00
0007FFFF80
0007FFFFE0
0007FFFFF0
000001FFF0
0000007FF8
0000003FFC
0000001FFC
0000001FFC
0000000FFE
0000000FFE
0000000FFE
0000000FFE
FFE0000FFE
FFF0000FFE
7FF0001FFE
7FF0001FFC
7FF8003FFC
7FFC007FFC
3FFF01FFF8
3FFFFFFFF8
1FFFFFFFF0
0FFFFFFFE0
07FFFFFFE0
03FFFFFF80
01FFFFFF00
007FFFFC00
001FFFF000
0001FE0000
ENDCHAR
STARTCHAR 0034
ENCODING 52
SWIDTH 565 0
DWIDTH 44 0
BBX 41 55 2 0
BITMAP
000001FFC000
000003FFC000
000007FFC000
000007FFC000
00000FFFC000
00000FFFC000
00001FFFC000
00003FFFC000
00003FFFC000
00007FFFC000
0000FFFFC000
0000FFFFC000
0001FFFFC000
0001FFFFC000
0003FFFFC000
0007FDFFC000
0007FDFFC000
000FF9FFC000
001FF9FFC000
001FF1FFC000
003FE1FFC000
007FE1FFC000
007FC1FFC000
00FFC1FFC000
00FF81FFC000
01FF01FFC000
03FF01FFC000
03FE01FFC000
07FE01FFC000
0FFC01FFC000
0FF801FFC000
1FF801FFC000
1FF001FFC000
3FF001FFC000
7FFFFFFFFF80
7FFFFFFFFF80
FFFFFFFFFF80
FFFFFFFFFF80
FFFFFFFFFF80
FFFFFFFFFF80
7FFFFFFFFF80
7FFFFFFFFF80
7FFFFFFFFF80
000001FFC000
000001FFC000
000001FFC000
000001FFC000
000001FFC000
000001FFC000
000001FFC000
000001FFC000
000001FFC000
000001FFC000
000001FFC000
000001FFC000
ENDCHAR
STARTCHAR 0035
ENCODING 53
SWIDTH 565 0
DWIDTH 44 0
BBX 37 56 4 -1
BITMAP
0FFFFFFFF0
0FFFFFFFF0
0FFFFFFFF0
0FFFFFFFF0
0FFFFFFFF0
0FFFFFFFF0
0FFFFFFFF0
0FFFFFFFF0
0FFFFFFFF0
1FF8000000
1FF8000000
1FF8000000
1FF8000000
1FF8000000
1FF8000000
1FF8000000
1FF8000000
3FF8000000
3FF0000000
3FF1FFC000
3FF7FFF800
3FFFFFFE00
3FFFFFFF00
3FFFFFFF80
3FFFFFFFC0
3FFFFFFFC0
7FFFFFFFE0
7FF803FFE0
07F001FFF0
004000FFF0
0000007FF8
0000007FF8
0000003FF8
0000003FF8
0000003FF8
0000003FF8
0000003FF8
0000003FF8
0000003FF8
0000003FF8
FFE0003FF8
FFE0003FF8
FFE0007FF8
FFF0007FF0
7FF800FFF0
7FFC00FFF0
3FFE03FFE0
3FFFFFFFE0
1FFFFFFFC0
0FFFFFFF80
07FFFFFF80
03FFFFFF00
01FFFFFC00
007FFFF800
001FFFC000
0001FC0000
ENDCHAR
STARTCHAR 0036
ENCODING 54
SWIDTH 565 0
DWIDTH 44 0
BBX 38 57 4 -1
BITMAP
000001FC00
00001FFC00
0000FFFC00
0003FFFC00
000FFFFC00
001FFFFC00
003FFFFC00
007FFFFC00
00FFFFFC00
01FFFE0000
03FFF00000
07FFE00000
07FF800000
0FFF000000
1FFE000000
1FFC000000
3FF8000000
3FF8000000
3FF0000000
7FF03FC000
7FF1FFF800
7FE7FFFE00
7FEFFFFF00
FFFFFFFF80
FFFFFFFFC0
FFFFFFFFE0
FFFFFFFFE0
FFFFFFFFF0
FFFE01FFF0
FFF800FFF8
FFF0007FF8
FFE0007FF8
FFE0003FF8
FFE0003FFC
FFE0001FFC
FFE0001FFC
FFE0001FFC
FFE0001FFC
FFE0001FFC
FFE0001FFC
FFE0001FFC
7FE0001FFC
7FF0003FF8
7FF0003FF8
7FF8007FF8
3FF8007FF8
3FFC00FFF0
1FFF03FFF0
0FFFFFFFE0
0FFFFFFFC0
07FFFFFFC0
03FFFFFF80
01FFFFFF00
00FFFFFC00
003FFFF800
000FFFE000
0000FC0000
ENDCHAR
STARTCHAR 0037
ENCODING 55
SWIDTH 565 0
DWIDTH 44 0
BBX 39 55 2 0
BITMAP
FFFFFFFFFE
FFFFFFFFFE
FFFFFFFFFE
FFFFFFFFFE
FFFFFFFFFE
FFFFFFFFFE
FFFFFFFFFE
FFFFFFFFFE
0000000FFC
0000001FFC
0000001FF8
0000003FF8
0000003FF0
0000007FF0
0000007FF0
000000FFE0
000000FFE0
000000FFC0
000001FFC0
000001FF80
000003FF80
000003FF00
000007FF00
000007FF00
00000FFE00
00000FFE00
00001FFC00
00001FFC00
00001FF800
00003FF800
00003FF800
00007FF000
00007FF000
0000FFE000
0000FFE000
0001FFC000
0001FFC000
0003FFC000
0003FF8000
0003FF8000
0007FF0000
0007FF0000
000FFE0000
000FFE0000
001FFE0000
001FFC0000
003FFC0000
003FF80000
007FF80000
007FF00000
00FFF00000
00FFF00000
00FFE00000
01FFE00000
01FFC00000
ENDCHAR
STARTCHAR 0038
ENCODING 56
SWIDTH 565 0
DWIDTH 44 0
BBX 37 57 4 -1
BITMAP
0007FF0000
003FFFE000
00FFFFF800
03FFFFFC00
07FFFFFF00
0FFFFFFF80
1FFFFFFF80
1FFFFFFFC0
3FFFDFFFC0
3FFE03FFE0
7FF801FFE0
7FF800FFE0
7FF000FFF0
7FF0007FF0
7FF0007FF0
7FF0007FF0
7FF0007FF0
7FF0007FF0
7FF0007FF0
7FF000FFE0
3FF800FFE0
3FFC01FFC0
1FFE03FFC0
1FFFFFFF80
0FFFFFFF00
07FFFFFE00
01FFFFFC00
00FFFFF000
01FFFFFC00
07FFFFFF00
0FFFFFFF80
1FFFFFFFC0
3FFE07FFC0
3FF801FFE0
7FF000FFF0
7FF0007FF0
FFE0007FF0
FFE0003FF8
FFE0003FF8
FFE0003FF8
FFE0003FF8
FFE0003FF8
FFE0003FF8
FFE0003FF8
FFF0007FF8
FFF000FFF0
FFF800FFF0
7FFE03FFF0
7FFFFFFFE0
3FFFFFFFE0
1FFFFFFFC0
0FFFFFFF80
07FFFFFF00
03FFFFFE00
00FFFFF800
003FFFE000
0001F80000
ENDCHAR
STARTCHAR 0039
ENCODING 57
SWIDTH 565 0
DWIDTH 44 0
BBX 38 57 3 -1
BITMAP
0003FF0000
001FFFC000
007FFFF000
00FFFFFC00
01FFFFFE00
07FFFFFF00
07FFFFFF80
0FFFFFFF80
1FFFFFFFC0
1FFE03FFE0
3FFC00FFE0
3FF800FFF0
7FF8007FF0
7FF0003FF0
7FF0003FF8
7FF0003FF8
FFE0003FF8
FFE0001FF8
FFE0001FF8
FFE0001FF8
FFE0001FFC
FFE0001FFC
FFE0001FFC
7FF0001FFC
7FF0001FFC
7FF0003FFC
7FF8003FFC
3FFC007FFC
3FFE00FFFC
3FFF83FFFC
1FFFFFFFF8
0FFFFFFFF8
0FFFFFFFF8
07FFFFFFF8
03FFFFFFF8
01FFFF3FF8
007FFE3FF0
000FF03FF0
0000003FF0
0000007FE0
0000007FE0
000000FFE0
000001FFC0
000003FFC0
000007FF80
00000FFF00
00007FFF00
000FFFFE00
007FFFFC00
007FFFF800
007FFFF000
007FFFE000
007FFF8000
007FFE0000
007FF80000
007FC00000
0040000000
ENDCHAR
STARTCHAR 003A
ENCODING 58
SWIDTH 270 0
DWIDTH 21 0
BBX 12 42 5 0
BITMAP
1F80
7FE0
FFE0
FFF0
FFF0
FFF0
FFF0
FFF0
7FE0
7FC0
1F80
0000
0000
0000
0000
0000
0000
0000
0000
0000
0000
0000
0000
0000
0000
0000
0000
0000
0000
0000
0000
1F80
3FC0
7FE0
FFF0
FFF0
FFF0
FFF0
FFF0
FFE0
7FE0
3F80
ENDCHAR
STARTCHAR 003B
ENCODING 59
SWIDTH 257 0
DWIDTH 20 0
BBX 14 55 2 -14
BITMAP
07F0
0FF8
1FFC
3FFC
3FFC
3FFC
3FFC
3FFC
1FFC
0FF8
07E0
0000
0000
0000
0000
0000
0000
0000
0000
0000
0000
0000
0000
0000
0000
0000
0000
0000
0000
0000
0000
0000
0000
0FF8
0FF8
0FF8
0FF8
0FF8
0FF8
0FF8
0FF8
0FF8
0FF8
0FF8
0FF8
0FF8
1FF0
1FF0
3FE0
3FE0
7FC0
7FC0
FF80
3F00
0E00
ENDCHAR
STARTCHAR 003C
ENCODING 60
SWIDTH 501 0
DWIDTH 39 0
BBX 33 36 2 5
BITMAP
0000000080
0000000380
0000001F80
0000007F80
000001FF80
00000FFF80
00003FFF80
0001FFFF80
0007FFFF80
001FFFFF80
00FFFFFF80
03FFFFFC00
0FFFFFE000
7FFFFF0000
FFFFFC0000
FFFFE00000
FFFF000000
FFFC000000
FFE0000000
FFFC000000
FFFF800000
FFFFF00000
FFFFFC0000
3FFFFF8000
0FFFFFF000
01FFFFFE00
007FFFFF80
001FFFFF80
0003FFFF80
0000FFFF80
00001FFF80
000007FF80
000001FF80
0000003F80
0000000F80
0000000380
ENDCHAR
STARTCHAR 003D
ENCODING 61
SWIDTH 565 0
DWIDTH 44 0
BBX 34 25 5 12
BITMAP
FFFFFFFFC0
FFFFFFFFC0
FFFFFFFFC0
FFFFFFFFC0
FFFFFFFFC0
FFFFFFFFC0
FFFFFFFFC0
FFFFFFFFC0
0000000000
0000000000
0000000000
0000000000
0000000000
0000000000
0000000000
0000000000
FFFFFFFFC0
FFFFFFFFC0
FFFFFFFFC0
FFFFFFFFC0
FFFFFFFFC0
FFFFFFFFC0
FFFFFFFFC0
FFFFFFFFC0
FFFFFFFFC0
ENDCHAR
STARTCHAR 003E
ENCODING 62
SWIDTH 514 0
DWIDTH 40 0
BBX 33 35 5 6
BITMAP
E000000000
F800000000
FF00000000
FFC0000000
FFF0000000
FFFE000000
FFFF800000
FFFFE00000
FFFFFC0000
FFFFFF0000
1FFFFFE000
07FFFFF800
00FFFFFE00
001FFFFF80
0003FFFF80
00007FFF80
00001FFF80
000007FF80
00003FFF80
0000FFFF80
0007FFFF80
003FFFFF80
01FFFFFE00
07FFFFF000
3FFFFFC000
FFFFFE0000
FFFFF80000
FFFFE00000
FFFF000000
FFFC000000
FFF0000000
FF80000000
FE00000000
F000000000
C000000000
ENDCHAR
STARTCHAR 003F
ENCODING 63
SWIDTH 488 0
DWIDTH 38 0
BBX 34 56 2 0
BITMAP
000FFE0000
007FFFC000
03FFFFF000
07FFFFF800
0FFFFFFC00
1FFFFFFE00
3FFFFFFF00
3FFFFFFF00
7FFFFFFF80
7FFC0FFF80
FFF003FF80
FFF003FFC0
FFE001FFC0
FFE001FFC0
FFE001FFC0
000001FFC0
000001FFC0
000001FFC0
000003FF80
000003FF80
000007FF80
00000FFF00
00001FFF00
00003FFE00
00007FFC00
0000FFF800
0001FFF000
0003FFE000
0003FFC000
0007FF8000
0007FF0000
000FFE0000
000FFE0000
000FFC0000
000FFC0000
001FF80000
001FF80000
001FF80000
001FF80000
0000000000
0000000000
0000000000
0000000000
0000000000
0000000000
0003C00000
000FF00000
001FF80000
001FFC0000
003FFC0000
003FFC0000
003FFC0000
003FFC0000
001FFC0000
001FF80000
0007F00000
ENDCHAR
STARTCHAR 0040
ENCODING 64
SWIDTH 887 0
DWIDTH 69 0
BBX 63 71 3 -17
BITMAP
00000003FC000000
000000FFFFF00000
000007FFFFFE0000
00001FFFFFFF8000
00007FFFFFFFE000
0000FFFFFFFFF000
0003FFFC03FFF800
0007FF80003FFC00
000FFE000007FE00
001FF8000001FF00
003FF0000000FF80
007FC00000007FC0
00FF800000003FE0
01FF000000001FE0
01FE000000000FF0
03FC0000000007F0
03FC0000700007F8
07F80007FF8003F8
0FF0001FFFE003F8
0FF0007FFFF801FC
0FE000FFFFFC01FC
1FE001FFFFFC01FC
1FC003FFFFFC00FE
3FC003FF03FC00FE
3FC007FC03FC00FE
3F800FF803FC00FE
3F800FF003FC00FE
7F801FF003F800FE
7F801FE003F8007E
7F001FE003F8007E
7F003FC003F8007E
7F003FC007F8007E
FF003FC007F8007E
FF007FC007F8007E
FF007FC007F8007E
FF007F8007F8007E
FF007F8007F800FE
FF007F8007F800FE
FF007F8007F800FE
FF007F8007F000FE
FF007F8007F000FC
FF007F8007F001FC
FF007F800FF001FC
FF007F800FF001FC
FF007FC01FF003F8
7F007FC01FF003F8
7F007FE03FF007F0
7F003FF0FFF80FF0
7F803FFFFFFC3FE0
7F801FFFFBFFFFC0
3F801FFFFBFFFF80
3FC00FFFF1FFFF00
3FC007FFC0FFFE00
3FE001FF807FF800
1FE0003C000F8000
1FF0000000000000
0FF0000000000000
0FF8000000000000
07FC000000000000
03FE000000000000
03FF000000000000
01FFC00000000000
00FFF00000100000
007FFC0000F00000
003FFFE01FF00000
001FFFFFFFF00000
0007FFFFFFF80000
0003FFFFFFF80000
0000FFFFFFF00000
00001FFFFF800000
000001FFFC000000
ENDCHAR
STARTCHAR 0041
ENCODING 65
SWIDTH 668 0
DWIDTH 52 0
BBX 52 55 0 0
BITMAP
000007FF000000
00000FFF000000
00000FFF000000
00001FFF800000
00001FFF800000
00001FFFC00000
00003FFFC00000
00003FFFC00000
00003FFFE00000
00007FFFE00000
00007FFFE00000
0000FFFFF00000
0000FFFFF00000
0000FFFFF80000
0001FFDFF80000
0001FF9FF80000
0001FF9FFC0000
0003FF8FFC0000
0003FF0FFC0000
0007FF0FFE0000
0007FF07FE0000
0007FE07FF0000
000FFE07FF0000
000FFE03FF0000
000FFC03FF8000
001FFC03FF8000
001FFC01FF8000
003FF801FFC000
003FF801FFC000
003FF800FFE000
007FF000FFE000
007FF000FFE000
007FF0007FF000
00FFE0007FF000
00FFFFFFFFF000
01FFFFFFFFF800
01FFFFFFFFF800
01FFFFFFFFFC00
03FFFFFFFFFC00
03FFFFFFFFFC00
03FFFFFFFFFE00
07FFFFFFFFFE00
07FFFFFFFFFE00
07FF00000FFF00
0FFF00000FFF00
0FFF000007FF80
1FFE000007FF80
1FFE000007FF80
1FFE000003FFC0
3FFC000003FFC0
3FFC000003FFC0
3FFC000001FFE0
7FF8000001FFE0
7FF8000001FFF0
FFF8000000FFF0
ENDCHAR
STARTCHAR 0042
ENCODING 66
SWIDTH 630 0
DWIDTH 49 0
BBX 41 55 5 0
BITMAP
FFFFFFE00000
FFFFFFFE0000
FFFFFFFF8000
FFFFFFFFC000
FFFFFFFFF000
FFFFFFFFF800
FFFFFFFFF800
FFFFFFFFFC00
FFFFFFFFFE00
FFE0007FFE00
FFE0003FFE00
FFE0001FFF00
FFE0000FFF00
FFE0000FFF00
FFE0000FFF00
FFE0000FFF00
FFE0000FFF00
FFE0000FFF00
FFE0000FFE00
FFE0000FFE00
FFE0001FFE00
FFE0003FFC00
FFE001FFF800
FFFFFFFFF000
FFFFFFFFE000
FFFFFFFFC000
FFFFFFFF0000
FFFFFFFFE000
FFFFFFFFF000
FFFFFFFFF800
FFFFFFFFFC00
FFE0003FFE00
FFE0001FFF00
FFE0000FFF00
FFE00007FF00
FFE00007FF80
FFE00003FF80
FFE00003FF80
FFE00003FF80
FFE00003FF80
FFE00003FF80
FFE00007FF80
FFE00007FF80
FFE0000FFF80
FFE0001FFF00
FFE0007FFF00
FFFFFFFFFE00
FFFFFFFFFE00
FFFFFFFFFC00
FFFFFFFFF800
FFFFFFFFF000
FFFFFFFFE000
FFFFFFFFC000
FFFFFFFE0000
FFFFFFE00000
ENDCHAR
STARTCHAR 0043
ENCODING 67
SWIDTH 642 0
DWIDTH 50 0
BBX 45 57 3 -1
BITMAP
00003FF80000
0003FFFF8000
000FFFFFE000
001FFFFFF800
007FFFFFFC00
00FFFFFFFE00
01FFFFFFFF00
03FFFFFFFF80
07FFFFFFFFC0
07FFE00FFFC0
0FFF8003FFE0
0FFF0001FFE0
1FFE0000FFF0
1FFC00007FF0
3FFC00007FF0
3FF800007FF8
3FF800003FF8
7FF800003FF8
7FF800003FF8
7FF000000000
7FF000000000
7FF000000000
FFF000000000
FFF000000000
FFF000000000
FFF000000000
FFF000000000
FFF000000000
FFF000000000
FFF000000000
FFF000000000
FFF000000000
FFF000000000
FFF000000000
FFF000000000
7FF000000000
7FF000000000
7FF000000000
7FF800003FF8
7FF800003FF8
3FF800003FF8
3FF800007FF8
3FFC00007FF8
1FFE0000FFF0
1FFE0000FFF0
0FFF0001FFE0
0FFFC007FFE0
07FFF03FFFC0
07FFFFFFFFC0
03FFFFFFFF80
01FFFFFFFF00
00FFFFFFFE00
007FFFFFFC00
001FFFFFF000
0007FFFFC000
0001FFFF0000
00000FF00000
ENDCHAR
STARTCHAR 0044
ENCODING 68
SWIDTH 642 0
DWIDTH 50 0
BBX 42 55 5 0
BITMAP
FFFFFF000000
FFFFFFE00000
FFFFFFF80000
FFFFFFFE0000
FFFFFFFF0000
FFFFFFFFC000
FFFFFFFFE000
FFFFFFFFF000
FFFFFFFFF800
FFE003FFF800
FFE000FFFC00
FFE0003FFE00
FFE0001FFE00
FFE0001FFF00
FFE0000FFF00
FFE00007FF00
FFE00007FF80
FFE00007FF80
FFE00003FF80
FFE00003FFC0
FFE00003FFC0
FFE00003FFC0
FFE00001FFC0
FFE00001FFC0
FFE00001FFC0
FFE00001FFC0
FFE00001FFC0
FFE00001FFC0
FFE00001FFC0
FFE00001FFC0
FFE00001FFC0
FFE00001FFC0
FFE00003FFC0
FFE00003FFC0
FFE00003FFC0
FFE00003FFC0
FFE00003FF80
FFE00007FF80
FFE00007FF80
FFE0000FFF00
FFE0000FFF00
FFE0001FFF00
FFE0003FFE00
FFE0007FFC00
FFE000FFFC00
FFE007FFF800
FFFFFFFFF000
FFFFFFFFE000
FFFFFFFFC000
FFFFFFFF8000
FFFFFFFF0000
FFFFFFFE0000
FFFFFFF80000
FFFFFFC00000
FFFFFE000000
ENDCHAR
STARTCHAR 0045
ENCODING 69
SWIDTH 552 0
DWIDTH 43 0
BBX 37 55 5 0
BITMAP
FFFFFFFFF8
FFFFFFFFF8
FFFFFFFFF8
FFFFFFFFF8
FFFFFFFFF8
FFFFFFFFF8
FFFFFFFFF8
FFFFFFFFF8
FFFFFFFFF8
FFE0000000
FFE0000000
FFE0000000
FFE0000000
FFE0000000
FFE0000000
FFE0000000
FFE0000000
FFE0000000
FFE0000000
FFE0000000
FFE0000000
FFE0000000
FFFFFFFF80
FFFFFFFF80
FFFFFFFF80
FFFFFFFF80
FFFFFFFF80
FFFFFFFF80
FFFFFFFF80
FFFFFFFF80
FFFFFFFF80
FFE0000000
FFE0000000
FFE0000000
FFE0000000
FFE0000000
FFE0000000
FFE0000000
FFE0000000
FFE0000000
FFE0000000
FFE0000000
FFE0000000
FFE0000000
FFE0000000
FFE0000000
FFFFFFFFF8
FFFFFFFFF8
FFFFFFFFF8
FFFFFFFFF8
FFFFFFFFF8
FFFFFFFFF8
FFFFFFFFF8
FFFFFFFFF8
FFFFFFFFF8
ENDCHAR
STARTCHAR 0046
ENCODING 70
SWIDTH 540 0
DWIDTH 42 0
BBX 36 55 5 0
BITMAP
FFFFFFFFF0
FFFFFFFFF0
FFFFFFFFF0
FFFFFFFFF0
FFFFFFFFF0
FFFFFFFFF0
FFFFFFFFF0
FFFFFFFFF0
FFFFFFFFF0
FFE0000000
FFE0000000
FFE0000000
FFE0000000
FFE0000000
FFE0000000
FFE0000000
FFE0000000
FFE0000000
FFE0000000
FFE0000000
FFE0000000
FFE0000000
FFE0000000
FFFFFFFF80
FFFFFFFF80
FFFFFFFF80
FFFFFFFF80
FFFFFFFF80
FFFFFFFF80
FFFFFFFF80
FFFFFFFF80
FFFFFFFF80
FFE0000000
FFE0000000
FFE0000000
FFE0000000
FFE0000000
FFE0000000
FFE0000000
FFE0000000
FFE0000000
FFE0000000
FFE0000000
FFE0000000
FFE0000000
FFE0000000
FFE0000000
FFE0000000
FFE0000000
FFE0000000
FFE0000000
FFE0000000
FFE0000000
FFE0000000
FFE0000000
ENDCHAR
STARTCHAR 0047
ENCODING 71
SWIDTH 681 0
DWIDTH 53 0
BBX 45 57 4 -1
BITMAP
00007FF80000
0003FFFF8000
000FFFFFE000
003FFFFFF800
007FFFFFFC00
01FFFFFFFE00
03FFFFFFFF00
07FFFFFFFF80
07FFFFFFFFC0
0FFFE00FFFC0
1FFF8003FFE0
1FFF0001FFE0
3FFE0000FFE0
3FFC0000FFF0
3FFC00007FF0
7FF800007FF0
7FF800007FF0
7FF000003FF8
FFF000000000
FFF000000000
FFF000000000
FFE000000000
FFE000000000
FFE000000000
FFE000000000
FFE000000000
FFE000000000
FFE001FFFFF8
FFE001FFFFF8
FFE001FFFFF8
FFE001FFFFF8
FFE001FFFFF8
FFE001FFFFF8
FFE001FFFFF8
FFE001FFFFF8
FFF000007FF8
FFF000007FF8
FFF000007FF8
FFF000007FF8
7FF800007FF8
7FF800007FF8
7FF800007FF8
3FFC00007FF8
3FFE00007FF8
1FFE00007FF8
1FFF80007FF8
0FFFC001FFF8
0FFFF80FFFF8
07FFFFFFFFF8
03FFFFFFFFF0
01FFFFFFFFE0
00FFFFFFFFC0
007FFFFFFF80
001FFFFFFE00
0007FFFFF800
0001FFFFC000
00000FF00000
ENDCHAR
STARTCHAR 0048
ENCODING 72
SWIDTH 694 0
DWIDTH 54 0
BBX 45 55 5 0
BITMAP
FFE000003FF8
FFE000003FF8
FFE000003FF8
FFE000003FF8
FFE000003FF8
FFE000003FF8
FFE000003FF8
FFE000003FF8
FFE000003FF8
FFE000003FF8
FFE000003FF8
FFE000003FF8
FFE000003FF8
FFE000003FF8
FFE000003FF8
FFE000003FF8
FFE000003FF8
FFE000003FF8
FFE000003FF8
FFE000003FF8
FFE000003FF8
FFE000003FF8
FFFFFFFFFFF8
FFFFFFFFFFF8
FFFFFFFFFFF8
FFFFFFFFFFF8
FFFFFFFFFFF8
FFFFFFFFFFF8
FFFFFFFFFFF8
FFFFFFFFFFF8
FFFFFFFFFFF8
FFE000003FF8
FFE000003FF8
FFE000003FF8
FFE000003FF8
FFE000003FF8
FFE000003FF8
FFE000003FF8
FFE000003FF8
FFE000003FF8
FFE000003FF8
FFE000003FF8
FFE000003FF8
FFE000003FF8
FFE000003FF8
FFE000003FF8
FFE000003FF8
FFE000003FF8
FFE000003FF8
FFE000003FF8
FFE000003FF8
FFE000003FF8
FFE000003FF8
FFE000003FF8
FFE000003FF8
ENDCHAR
STARTCHAR 0049
ENCODING 73
SWIDTH 282 0
DWIDTH 22 0
BBX 11 55 6 0
BITMAP
FFE0
FFE0
FFE0
FFE0
FFE0
FFE0
FFE0
FFE0
FFE0
FFE0
FFE0
FFE0
FFE0
FFE0
FFE0
FFE0
FFE0
FFE0
FFE0
FFE0
FFE0
FFE0
FFE0
FFE0
FFE0
FFE0
FFE0
FFE0
FFE0
FFE0
FFE0
FFE0
FFE0
FFE0
FFE0
FFE0
FFE0
FFE0
FFE0
FFE0
FFE0
FFE0
FFE0
FFE0
FFE0
FFE0
FFE0
FFE0
FFE0
FFE0
FFE0
FFE0
FFE0
FFE0
FFE0
ENDCHAR
STARTCHAR 004A
ENCODING 74
SWIDTH 552 0
DWIDTH 43 0
BBX 37 56 2 -1
BITMAP
0000007FF8
0000007FF8
0000007FF8
0000007FF8
0000007FF8
0000007FF8
0000007FF8
0000007FF8
0000007FF8
0000007FF8
0000007FF8
0000007FF8
0000007FF8
0000007FF8
0000007FF8
0000007FF8
0000007FF8
0000007FF8
0000007FF8
0000007FF8
0000007FF8
0000007FF8
0000007FF8
0000007FF8
0000007FF8
0000007FF8
0000007FF8
0000007FF8
0000007FF8
0000007FF8
0000007FF8
0000007FF8
0000007FF8
0000007FF8
0000007FF8
0000007FF8
0000007FF8
0000007FF8
0000007FF8
FFE0007FF8
FFE0007FF8
FFE0007FF0
FFE0007FF0
FFF000FFF0
FFF001FFF0
7FF803FFE0
7FFE07FFE0
7FFFFFFFC0
3FFFFFFFC0
1FFFFFFF80
0FFFFFFF00
07FFFFFE00
03FFFFF800
00FFFFF000
003FFFC000
0001FC0000
ENDCHAR
STARTCHAR 004B
ENCODING 75
SWIDTH 630 0
DWIDTH 49 0
BBX 45 55 5 0
BITMAP
FFE00003FFF0
FFE00007FFE0
FFE0000FFFC0
FFE0000FFF80
FFE0001FFF80
FFE0003FFF00
FFE0007FFE00
FFE000FFFC00
FFE000FFF800
FFE001FFF800
FFE003FFF000
FFE007FFE000
FFE007FFC000
FFE00FFF8000
FFE01FFF8000
FFE03FFF0000
FFE03FFE0000
FFE07FFC0000
FFE0FFF80000
FFE1FFF80000
FFE1FFF00000
FFE3FFE00000
FFE7FFC00000
FFEFFF800000
FFEFFF800000
FFFFFFC00000
FFFFFFC00000
FFFFFFE00000
FFFFFFF00000
FFFFFFF00000
FFFFFFF80000
FFFFFFFC0000
FFFFFFFC0000
FFFFBFFE0000
FFFF3FFF0000
FFFE1FFF0000
FFFC0FFF8000
FFF80FFFC000
FFF007FFC000
FFE003FFE000
FFE003FFF000
FFE001FFF000
FFE000FFF800
FFE000FFF800
FFE0007FFC00
FFE0007FFE00
FFE0003FFE00
FFE0001FFF00
FFE0001FFF80
FFE0000FFF80
FFE00007FFC0
FFE00007FFE0
FFE00003FFE0
FFE00001FFF0
FFE00001FFF8
ENDCHAR
STARTCHAR 004C
ENCODING 76
SWIDTH 540 0
DWIDTH 42 0
BBX 35 55 5 0
BITMAP
FFE0000000
FFE0000000
FFE0000000
FFE0000000
FFE0000000
FFE0000000
FFE0000000
FFE0000000
FFE0000000
FFE0000000
FFE0000000
FFE0000000
FFE0000000
FFE0000000
FFE0000000
FFE0000000
FFE0000000
FFE0000000
FFE0000000
FFE0000000
FFE0000000
FFE0000000
FFE0000000
FFE0000000
FFE0000000
FFE0000000
FFE0000000
FFE0000000
FFE0000000
FFE0000000
FFE0000000
FFE0000000
FFE0000000
FFE0000000
FFE0000000
FFE0000000
FFE0000000
FFE0000000
FFE0000000
FFE0000000
FFE0000000
FFE0000000
FFE0000000
FFE0000000
FFE0000000
FFE0000000
FFFFFFFFE0
FFFFFFFFE0
FFFFFFFFE0
FFFFFFFFE0
FFFFFFFFE0
FFFFFFFFE0
FFFFFFFFE0
FFFFFFFFE0
FFFFFFFFE0
ENDCHAR
STARTCHAR 004D
ENCODING 77
SWIDTH 874 0
DWIDTH 68 0
BBX 58 55 5 0
BITMAP
FFFE0000001FFFC0
FFFE0000001FFFC0
FFFF0000003FFFC0
FFFF0000003FFFC0
FFFF0000003FFFC0
FFFF8000007FFFC0
FFFF8000007FFFC0
FFFFC00000FFFFC0
FFFFC00000FFFFC0
FFFFC00000FFFFC0
FFFFE00001FFFFC0
FFFFE00001FFFFC0
FFFFE00001FFFFC0
FFFFF00003FFFFC0
FFFFF00003FFFFC0
FFDFF00003FEFFC0
FFDFF80007FEFFC0
FFCFF80007FCFFC0
FFCFF80007FCFFC0
FFCFFC000FFCFFC0
FFC7FC000FF9FFC0
FFE7FC000FF9FFC0
FFE7FE001FF9FFC0
FFE3FE001FF1FFC0
FFE3FE001FF1FFC0
FFE3FF003FF1FFC0
FFE1FF003FE1FFC0
FFE1FF807FE1FFC0
FFE0FF807FC1FFC0
FFE0FF807FC1FFC0
FFE0FFC0FFC1FFC0
FFE07FC0FF81FFC0
FFE07FC0FF81FFC0
FFE07FE1FF81FFC0
FFE03FE1FF01FFC0
FFE03FE1FF01FFC0
FFE03FF3FF01FFC0
FFE01FF3FE01FFC0
FFE01FF3FE01FFC0
FFE00FFFFC01FFC0
FFE00FFFFC01FFC0
FFE00FFFFC01FFC0
FFE007FFF801FFC0
FFE007FFF801FFC0
FFE007FFF801FFC0
FFE003FFF001FFC0
FFE003FFF001FFC0
FFE003FFF001FFC0
FFE001FFE001FFC0
FFE001FFE001FFC0
FFE001FFE001FFC0
FFE000FFC001FFC0
FFE000FFC001FFC0
FFE0007F8001FFC0
FFE0007F8001FFC0
ENDCHAR
STARTCHAR 004E
ENCODING 78
SWIDTH 694 0
DWIDTH 54 0
BBX 45 55 5 0
BITMAP
FFF000003FF8
FFF000003FF8
FFF800003FF8
FFFC00003FF8
FFFC00003FF8
FFFE00003FF8
FFFE00003FF8
FFFF00003FF8
FFFF80003FF8
FFFF80003FF8
FFFFC0003FF8
FFFFC0003FF8
FFFFE0003FF8
FFFFF0003FF8
FFFFF0003FF8
FFFFF8003FF8
FFFFF8003FF8
FFFFFC003FF8
FFEFFE003FF8
FFEFFE003FF8
FFE7FF003FF8
FFE7FF003FF8
FFE3FF803FF8
FFE1FFC03FF8
FFE1FFC03FF8
FFE0FFE03FF8
FFE0FFE03FF8
FFE07FF03FF8
FFE03FF83FF8
FFE03FF83FF8
FFE01FFC3FF8
FFE01FFC3FF8
FFE00FFE3FF8
FFE007FF3FF8
FFE007FF3FF8
FFE003FFBFF8
FFE003FFBFF8
FFE001FFFFF8
FFE000FFFFF8
FFE000FFFFF8
FFE0007FFFF8
FFE0007FFFF8
FFE0003FFFF8
FFE0001FFFF8
FFE0001FFFF8
FFE0000FFFF8
FFE0000FFFF8
FFE00007FFF8
FFE00003FFF8
FFE00003FFF8
FFE00001FFF8
FFE00001FFF8
FFE00000FFF8
FFE000007FF8
FFE000007FF8
ENDCHAR
STARTCHAR 004F
ENCODING 79
SWIDTH 681 0
DWIDTH 53 0
BBX 47 57 3 -1
BITMAP
00003FF80000
0001FFFF8000
0007FFFFE000
001FFFFFF800
003FFFFFFC00
00FFFFFFFE00
01FFFFFFFF00
01FFFFFFFF80
03FFFFFFFFC0
07FFF01FFFE0
0FFFC007FFE0
0FFF8001FFF0
1FFF0000FFF0
1FFE00007FF8
3FFC00007FF8
3FFC00003FFC
3FF800003FFC
7FF800001FFC
7FF800001FFC
7FF800001FFE
7FF000001FFE
7FF000001FFE
FFF000000FFE
FFF000000FFE
FFF000000FFE
FFF000000FFE
FFF000000FFE
FFF000000FFE
FFF000000FFE
FFF000000FFE
FFF000000FFE
FFF000000FFE
FFF000000FFE
FFF000000FFE
7FF000000FFE
7FF000001FFE
7FF000001FFE
7FF800001FFE
7FF800001FFC
7FF800003FFC
3FFC00003FFC
3FFC00003FF8
1FFE00007FF8
1FFE0000FFF8
1FFF0000FFF0
0FFF8001FFF0
07FFE007FFE0
07FFFC3FFFC0
03FFFFFFFFC0
01FFFFFFFF80
00FFFFFFFF00
007FFFFFFE00
003FFFFFFC00
000FFFFFF000
0007FFFFC000
0000FFFF0000
000007E00000
ENDCHAR
STARTCHAR 0050
ENCODING 80
SWIDTH 642 0
DWIDTH 50 0
BBX 42 55 5 0
BITMAP
FFFFFFF00000
FFFFFFFE0000
FFFFFFFF8000
FFFFFFFFE000
FFFFFFFFF000
FFFFFFFFF800
FFFFFFFFFC00
FFFFFFFFFE00
FFFFFFFFFF00
FFE0003FFF00
FFE0000FFF80
FFE00007FF80
FFE00007FF80
FFE00003FFC0
FFE00003FFC0
FFE00003FFC0
FFE00001FFC0
FFE00001FFC0
FFE00001FFC0
FFE00001FFC0
FFE00003FFC0
FFE00003FFC0
FFE00003FFC0
FFE00007FF80
FFE0000FFF80
FFE0003FFF80
FFFFFFFFFF00
FFFFFFFFFE00
FFFFFFFFFE00
FFFFFFFFFC00
FFFFFFFFF800
FFFFFFFFE000
FFFFFFFFC000
FFFFFFFF0000
FFFFFFF80000
FFE000000000
FFE000000000
FFE000000000
FFE000000000
FFE000000000
FFE000000000
FFE000000000
FFE000000000
FFE000000000
FFE000000000
FFE000000000
FFE000000000
FFE000000000
FFE000000000
FFE000000000
FFE000000000
FFE000000000
FFE000000000
FFE000000000
FFE000000000
ENDCHAR
STARTCHAR 0051
ENCODING 81
SWIDTH 681 0
DWIDTH 53 0
BBX 47 66 3 -10
BITMAP
00003FF80000
0001FFFF8000
0007FFFFE000
001FFFFFF000
003FFFFFFC00
00FFFFFFFE00
01FFFFFFFF00
03FFFFFFFF80
03FFFFFFFFC0
07FFF01FFFE0
0FFFC007FFE0
0FFF8001FFF0
1FFF0000FFF0
1FFE00007FF8
3FFC00007FF8
3FFC00003FFC
3FF800003FFC
7FF800003FFC
7FF800001FFC
7FF000001FFE
7FF000001FFE
7FF000001FFE
FFF000000FFE
FFF000000FFE
FFF000000FFE
FFF000000FFE
FFF000000FFE
FFF000000FFE
FFF000000FFE
FFF000000FFE
FFF000000FFE
FFF000000FFE
FFF000000FFE
FFF000000FFE
FFF000000FFE
7FF000001FFE
7FF000001FFE
7FF800001FFE
7FF800001FFC
7FF800003FFC
3FF800003FFC
3FFC00003FF8
3FFC00007FF8
1FFE0000FFF8
1FFF0000FFF0
0FFF8003FFF0
0FFFE007FFE0
07FFFC3FFFC0
03FFFFFFFFC0
01FFFFFFFF80
00FFFFFFFF00
007FFFFFFE00
003FFFFFFC00
000FFFFFFE00
0007FFFFFF00
0000FFFFFFC0
000007EFFFE0
00000007FFF0
00000001FFFC
00000000FFFE
000000007FFC
000000003FF8
000000000FF0
0000000007E0
000000000380
000000000100
ENDCHAR
STARTCHAR 0052
ENCODING 82
SWIDTH 630 0
DWIDTH 49 0
BBX 43 55 5 0
BITMAP
FFFFFFF00000
FFFFFFFE0000
FFFFFFFF8000
FFFFFFFFE000
FFFFFFFFF000
FFFFFFFFF800
FFFFFFFFFC00
FFFFFFFFFE00
FFFFFFFFFE00
FFE0007FFF00
FFE0001FFF00
FFE0000FFF00
FFE00007FF80
FFE00007FF80
FFE00007FF80
FFE00007FF80
FFE00003FF80
FFE00003FF80
FFE00003FF80
FFE00007FF80
FFE00007FF80
FFE00007FF00
FFE0000FFF00
FFE0001FFF00
FFE0003FFE00
FFE003FFFE00
FFFFFFFFFC00
FFFFFFFFF800
FFFFFFFFF000
FFFFFFFFE000
FFFFFFFF8000
FFFFFFFF0000
FFFFFFFE0000
FFFFFFFF0000
FFFFFFFF8000
FFE007FF8000
FFE007FFC000
FFE003FFC000
FFE003FFE000
FFE001FFE000
FFE001FFF000
FFE000FFF000
FFE000FFF800
FFE0007FF800
FFE0007FFC00
FFE0003FFC00
FFE0001FFE00
FFE0001FFE00
FFE0000FFF00
FFE0000FFF00
FFE00007FF80
FFE00007FF80
FFE00003FFC0
FFE00003FFE0
FFE00001FFE0
ENDCHAR
STARTCHAR 0053
ENCODING 83
SWIDTH 604 0
DWIDTH 47 0
BBX 42 57 3 -1
BITMAP
0000FFF00000
000FFFFE0000
003FFFFF8000
00FFFFFFE000
01FFFFFFF000
03FFFFFFF800
07FFFFFFFC00
0FFFFFFFFE00
1FFFFFFFFF00
1FFF803FFF00
3FFE000FFF80
3FFC0007FF80
3FF80003FF80
7FF80003FFC0
7FF80003FFC0
7FF80001FFC0
7FF80001FFC0
7FF800000000
3FFC00000000
3FFE00000000
3FFF00000000
1FFFC0000000
1FFFF8000000
0FFFFE000000
07FFFFC00000
03FFFFF80000
01FFFFFE0000
00FFFFFF8000
003FFFFFE000
000FFFFFF000
0003FFFFF800
00007FFFFC00
00001FFFFE00
000003FFFF00
0000007FFF80
0000001FFF80
0000000FFF80
00000007FFC0
00000003FFC0
FFE00003FFC0
FFE00001FFC0
FFE00001FFC0
FFF00001FFC0
FFF00003FFC0
7FF80003FFC0
7FFC0007FFC0
7FFE000FFF80
3FFF803FFF80
1FFFFFFFFF00
1FFFFFFFFF00
0FFFFFFFFE00
03FFFFFFFC00
01FFFFFFF800
00FFFFFFE000
001FFFFFC000
0007FFFE0000
00003FE00000
ENDCHAR
STARTCHAR 0054
ENCODING 84
SWIDTH 617 0
DWIDTH 48 0
BBX 45 55 2 0
BITMAP
FFFFFFFFFFF8
FFFFFFFFFFF8
FFFFFFFFFFF8
FFFFFFFFFFF8
FFFFFFFFFFF8
FFFFFFFFFFF8
FFFFFFFFFFF8
FFFFFFFFFFF8
FFFFFFFFFFF8
0000FFF00000
0000FFF00000
0000FFF00000
0000FFF00000
0000FFF00000
0000FFF00000
0000FFF00000
0000FFF00000
0000FFF00000
0000FFF00000
0000FFF00000
0000FFF00000
0000FFF00000
0000FFF00000
0000FFF00000
0000FFF00000
0000FFF00000
0000FFF00000
0000FFF00000
0000FFF00000
0000FFF00000
0000FFF00000
0000FFF00000
0000FFF00000
0000FFF00000
0000FFF00000
0000FFF00000
0000FFF00000
0000FFF00000
0000FFF00000
0000FFF00000
0000FFF00000
0000FFF00000
0000FFF00000
0000FFF00000
0000FFF00000
0000FFF00000
0000FFF00000
0000FFF00000
0000FFF00000
0000FFF00000
0000FFF00000
0000FFF00000
0000FFF00000
0000FFF00000
0000FFF00000
ENDCHAR
STARTCHAR 0055
ENCODING 85
SWIDTH 655 0
DWIDTH 51 0
BBX 43 56 4 -1
BITMAP
FFF00001FFE0
FFF00001FFE0
FFF00001FFE0
FFF00001FFE0
FFF00001FFE0
FFF00001FFE0
FFF00001FFE0
FFF00001FFE0
FFF00001FFE0
FFF00001FFE0
FFF00001FFE0
FFF00001FFE0
FFF00001FFE0
FFF00001FFE0
FFF00001FFE0
FFF00001FFE0
FFF00001FFE0
FFF00001FFE0
FFF00001FFE0
FFF00001FFE0
FFF00001FFE0
FFF00001FFE0
FFF00001FFE0
FFF00001FFE0
FFF00001FFE0
FFF00001FFE0
FFF00001FFE0
FFF00001FFE0
FFF00001FFE0
FFF00001FFE0
FFF00001FFE0
FFF00001FFE0
FFF00001FFE0
FFF00001FFE0
FFF00001FFE0
FFF00001FFE0
FFF00001FFE0
FFF00001FFE0
7FF00001FFE0
7FF00001FFE0
7FF00001FFC0
7FF80001FFC0
7FF80003FFC0
3FFC0003FFC0
3FFE0007FF80
3FFF001FFF80
1FFFC07FFF00
1FFFFFFFFF00
0FFFFFFFFE00
07FFFFFFFC00
03FFFFFFF800
01FFFFFFF000
007FFFFFE000
003FFFFF8000
0007FFFC0000
00003FC00000
ENDCHAR
STARTCHAR 0056
ENCODING 86
SWIDTH 642 0
DWIDTH 50 0
BBX 49 55 1 0
BITMAP
FFF0000007FF80
FFF000000FFF80
FFF800000FFF80
7FF800000FFF00
7FF800001FFF00
7FFC00001FFF00
3FFC00001FFE00
3FFC00001FFE00
3FFC00003FFE00
1FFE00003FFC00
1FFE00003FFC00
1FFE00007FF800
0FFF00007FF800
0FFF00007FF800
0FFF0000FFF000
07FF8000FFF000
07FF8000FFF000
07FF8000FFE000
03FF8001FFE000
03FFC001FFE000
03FFC001FFC000
01FFC003FFC000
01FFE003FFC000
01FFE003FF8000
00FFE003FF8000
00FFF007FF8000
007FF007FF0000
007FF007FF0000
007FF00FFF0000
003FF80FFE0000
003FF80FFE0000
003FF81FFE0000
001FFC1FFC0000
001FFC1FFC0000
001FFC1FF80000
000FFE3FF80000
000FFE3FF80000
000FFE3FF00000
0007FE7FF00000
0007FF7FF00000
0007FF7FE00000
0003FFFFE00000
0003FFFFE00000
0003FFFFC00000
0001FFFFC00000
0001FFFFC00000
0001FFFF800000
0000FFFF800000
0000FFFF800000
0000FFFF000000
00007FFF000000
00007FFF000000
00003FFE000000
00003FFE000000
00003FFE000000
ENDCHAR
STARTCHAR 0057
ENCODING 87
SWIDTH 874 0
DWIDTH 68 0
BBX 65 55 2 0
BITMAP
FFE0001FF80007FF80
FFE0001FF80007FF00
FFE0001FFC0007FF00
FFE0003FFC0007FF00
FFF0003FFC0007FF00
7FF0003FFC000FFF00
7FF0003FFE000FFE00
7FF0007FFE000FFE00
7FF0007FFE000FFE00
7FF8007FFE000FFE00
3FF8007FFE001FFC00
3FF800FFFF001FFC00
3FF800FFFF001FFC00
3FF800FFFF001FFC00
1FFC00FFFF001FFC00
1FFC00FFFF803FF800
1FFC01FFFF803FF800
1FFC01FFFF803FF800
1FFC01FFFF803FF800
0FFC01FFFFC03FF000
0FFE03FFFFC07FF000
0FFE03FE7FC07FF000
0FFE03FE7FC07FF000
07FE03FE7FE07FF000
07FE07FE7FE07FE000
07FF07FC3FE07FE000
07FF07FC3FE0FFE000
07FF07FC3FE0FFE000
03FF0FFC3FF0FFC000
03FF0FF81FF0FFC000
03FF8FF81FF0FFC000
03FF8FF81FF1FFC000
01FF9FF81FF9FFC000
01FF9FF00FF9FF8000
01FF9FF00FF9FF8000
01FFDFF00FF9FF8000
01FFDFF00FFFFF8000
00FFFFE007FFFF0000
00FFFFE007FFFF0000
00FFFFE007FFFF0000
00FFFFE007FFFF0000
007FFFC003FFFF0000
007FFFC003FFFE0000
007FFFC003FFFE0000
007FFFC003FFFE0000
007FFF8001FFFE0000
003FFF8001FFFC0000
003FFF8001FFFC0000
003FFF8001FFFC0000
003FFF0000FFFC0000
001FFF0000FFFC0000
001FFF0000FFF80000
001FFF0000FFF80000
001FFE00007FF80000
001FFE00007FF80000
ENDCHAR
STARTCHAR 0058
ENCODING 88
SWIDTH 630 0
DWIDTH 49 0
BBX 47 55 1 0
BITMAP
7FFC00003FFE
7FFC00007FFC
3FFE00007FFC
3FFE0000FFF8
1FFF0000FFF0
0FFF0001FFF0
0FFF8003FFE0
07FFC003FFE0
07FFC007FFC0
03FFE007FF80
01FFE00FFF80
01FFF00FFF00
00FFF01FFF00
00FFF81FFE00
007FF83FFE00
003FFC3FFC00
003FFC7FF800
001FFE7FF800
001FFEFFF000
000FFFFFF000
000FFFFFE000
0007FFFFC000
0003FFFFC000
0003FFFF8000
0001FFFF8000
0001FFFF0000
0000FFFE0000
0000FFFE0000
0000FFFF0000
0001FFFF8000
0003FFFF8000
0003FFFFC000
0007FFFFC000
0007FFFFE000
000FFFFFE000
001FFFFFF000
001FFEFFF800
003FFE7FF800
003FFC7FFC00
007FF83FFC00
00FFF81FFE00
00FFF01FFF00
01FFF00FFF00
01FFE00FFF80
03FFE007FF80
07FFC007FFC0
07FFC003FFE0
0FFF8003FFE0
0FFF8001FFF0
1FFF0001FFF0
3FFE0000FFF8
3FFE00007FFC
7FFC00007FFC
7FFC00003FFE
FFF800003FFE
ENDCHAR
STARTCHAR 0059
ENCODING 89
SWIDTH 617 0
DWIDTH 48 0
BBX 48 55 0 0
BITMAP
FFF800001FFF
7FF800001FFE
3FFC00003FFE
3FFC00003FFC
1FFE00007FFC
1FFE00007FF8
0FFF0000FFF8
0FFF0000FFF0
07FF8000FFF0
07FF8001FFE0
03FF8001FFC0
03FFC003FFC0
01FFC003FF80
01FFE007FF80
00FFE007FF00
00FFF00FFF00
007FF00FFE00
007FF81FFE00
003FF81FFC00
003FFC1FFC00
001FFC3FF800
001FFE3FF800
000FFE7FF000
000FFE7FF000
0007FFFFE000
0007FFFFE000
0003FFFFC000
0003FFFFC000
0001FFFF8000
0000FFFF8000
0000FFFF0000
00007FFF0000
00007FFE0000
00003FFE0000
00003FFC0000
00003FFC0000
00003FFC0000
00003FFC0000
00003FFC0000
00003FFC0000
00003FFC0000
00003FFC0000
00003FFC0000
00003FFC0000
00003FFC0000
00003FFC0000
00003FFC0000
00003FFC0000
00003FFC0000
00003FFC0000
00003FFC0000
00003FFC0000
00003FFC0000
00003FFC0000
00003FFC0000
ENDCHAR
STARTCHAR 005A
ENCODING 90
SWIDTH 604 0
DWIDTH 47 0
BBX 42 55 3 0
BITMAP
FFFFFFFFFF80
FFFFFFFFFF80
FFFFFFFFFF80
FFFFFFFFFF80
FFFFFFFFFF80
FFFFFFFFFF80
FFFFFFFFFF80
FFFFFFFFFF00
FFFFFFFFFF00
0000001FFE00
0000003FFC00
0000007FFC00
0000007FF800
000000FFF000
000001FFF000
000001FFE000
000003FFC000
000007FFC000
000007FF8000
00000FFF0000
00001FFE0000
00003FFE0000
00003FFC0000
00007FF80000
0000FFF80000
0000FFF00000
0001FFE00000
0003FFE00000
0003FFC00000
0007FF800000
000FFF800000
000FFF000000
001FFE000000
003FFE000000
007FFC000000
007FF8000000
00FFF0000000
01FFF0000000
01FFE0000000
03FFC0000000
07FFC0000000
07FF80000000
0FFF00000000
1FFF00000000
1FFE00000000
3FFC00000000
7FFFFFFFFFC0
FFFFFFFFFFC0
FFFFFFFFFFC0
FFFFFFFFFFC0
FFFFFFFFFFC0
FFFFFFFFFFC0
FFFFFFFFFFC0
FFFFFFFFFFC0
FFFFFFFFFFC0
ENDCHAR
STARTCHAR 005B
ENCODING 91
SWIDTH 270 0
DWIDTH 21 0
BBX 16 77 5 -13
BITMAP
FFFF
FFFF
FFFF
FFFF
FFFF
FFFF
FFFF
FFFF
FFE0
FFE0
FFE0
FFE0
FFE0
FFE0
FFE0
FFE0
FFE0
FFE0
FFE0
FFE0
FFE0
FFE0
FFE0
FFE0
FFE0
FFE0
FFE0
FFE0
FFE0
FFE0
FFE0
FFE0
FFE0
FFE0
FFE0
FFE0
FFE0
FFE0
FFE0
FFE0
FFE0
FFE0
FFE0
FFE0
FFE0
FFE0
FFE0
FFE0
FFE0
FFE0
FFE0
FFE0
FFE0
FFE0
FFE0
FFE0
FFE0
FFE0
FFE0
FFE0
FFE0
FFE0
FFE0
FFE0
FFE0
FFE0
FFE0
FFE0
FFE0
FFFF
FFFF
FFFF
FFFF
FFFF
FFFF
FFFF
FFFF
ENDCHAR
STARTCHAR 005C
ENCODING 92
SWIDTH 411 0
DWIDTH 32 0
BBX 34 60 0 -5
BITMAP
FFF0000000
7FF0000000
7FF0000000
7FF8000000
3FF8000000
3FF8000000
1FFC000000
1FFC000000
1FFE000000
0FFE000000
0FFE000000
0FFF000000
07FF000000
07FF800000
03FF800000
03FF800000
03FFC00000
01FFC00000
01FFC00000
00FFE00000
00FFE00000
00FFF00000
007FF00000
007FF00000
007FF80000
003FF80000
003FFC0000
001FFC0000
001FFC0000
001FFE0000
000FFE0000
000FFE0000
0007FF0000
0007FF0000
0007FF8000
0003FF8000
0003FF8000
0003FFC000
0001FFC000
0001FFE000
0000FFE000
0000FFE000
0000FFF000
00007FF000
00007FF000
00003FF800
00003FF800
00003FFC00
00001FFC00
00001FFC00
00001FFE00
00000FFE00
00000FFF00
000007FF00
000007FF00
000007FF80
000003FF80
000003FF80
000001FFC0
000001FFC0
ENDCHAR
STARTCHAR 005D
ENCODING 93
SWIDTH 270 0
DWIDTH 21 0
BBX 17 77 0 -13
BITMAP
FFFF80
FFFF80
FFFF80
FFFF80
FFFF80
FFFF80
FFFF80
FFFF80
03FF80
03FF80
03FF80
03FF80
03FF80
03FF80
03FF80
03FF80
03FF80
03FF80
03FF80
03FF80
03FF80
03FF80
03FF80
03FF80
03FF80
03FF80
03FF80
03FF80
03FF80
03FF80
03FF80
03FF80
03FF80
03FF80
03FF80
03FF80
03FF80
03FF80
03FF80
03FF80
03FF80
03FF80
03FF80
03FF80
03FF80
03FF80
03FF80
03FF80
03FF80
03FF80
03FF80
03FF80
03FF80
03FF80
03FF80
03FF80
03FF80
03FF80
03FF80
03FF80
03FF80
03FF80
03FF80
03FF80
03FF80
03FF80
03FF80
03FF80
03FF80
FFFF80
FFFF80
FFFF80
FFFF80
FFFF80
FFFF80
FFFF80
FFFF80
ENDCHAR
STARTCHAR 005E
ENCODING 94
SWIDTH 437 0
DWIDTH 34 0
BBX 30 27 2 28
BITMAP
001FE000
003FF000
003FF000
007FF800
007FF800
007FF800
00FFFC00
00FFFC00
01FFFE00
01FFFE00
01FFFF00
03FCFF00
03FCFF00
07FC7F80
07F87F80
07F87FC0
0FF83FC0
0FF03FC0
1FF03FE0
1FE01FE0
3FE01FF0
3FE00FF0
3FC00FF0
7FC00FF8
7F8007F8
FF8007FC
FF8007FC
ENDCHAR
STARTCHAR 005F
ENCODING 95
SWIDTH 437 0
DWIDTH 34 0
BBX 35 8 0 -8
BITMAP
FFFFFFFFE0
FFFFFFFFE0
FFFFFFFFE0
FFFFFFFFE0
FFFFFFFFE0
FFFFFFFFE0
FFFFFFFFE0
FFFFFFFFE0
ENDCHAR
STARTCHAR 0060
ENCODING 96
SWIDTH 321 0
DWIDTH 25 0
BBX 18 11 3 47
BITMAP
FFF000
7FF000
3FF800
1FF800
1FFC00
0FFE00
07FE00
03FF00
01FF80
00FF80
007FC0
ENDCHAR
STARTCHAR 0061
ENCODING 97
SWIDTH 527 0
DWIDTH 41 0
BBX 37 43 2 -1
BITMAP
0001FE0000
001FFFE000
007FFFF800
01FFFFFC00
03FFFFFF00
07FFFFFF80
0FFFFFFF80
1FFFFFFFC0
3FFF07FFC0
3FFC01FFE0
3FF801FFE0
3FF800FFE0
7FF000FFE0
000000FFE0
000000FFE0
000000FFE0
000000FFE0
0007FFFFE0
007FFFFFE0
01FFFFFFE0
07FFFFFFE0
0FFFFFFFE0
1FFFFFFFE0
3FFF80FFE0
3FFC00FFE0
7FF800FFE0
7FF000FFE0
7FF000FFE0
7FF000FFE0
7FE000FFE0
FFF000FFE0
7FF000FFE0
7FF001FFE0
7FF807FFE0
7FFF3FFFF0
3FFFFFFFF0
3FFFFFFFF0
1FFFFFFFF0
0FFFFFFFF0
07FFFF7FF0
03FFFC7FF8
00FFF03FF8
000F800000
ENDCHAR
STARTCHAR 0062
ENCODING 98
SWIDTH 552 0
DWIDTH 43 0
BBX 37 59 4 -1
BITMAP
FFE0000000
FFE0000000
FFE0000000
FFE0000000
FFE0000000
FFE0000000
FFE0000000
FFE0000000
FFE0000000
FFE0000000
FFE0000000
FFE0000000
FFE0000000
FFE0000000
FFE0000000
FFE0000000
FFE03F8000
FFE1FFF000
FFE7FFFC00
FFEFFFFE00
FFFFFFFF00
FFFFFFFF80
FFFFFFFFC0
FFFFFFFFC0
FFFFFFFFE0
FFFE03FFE0
FFF801FFF0
FFF000FFF0
FFF0007FF0
FFE0007FF0
FFE0007FF8
FFE0003FF8
FFE0003FF8
FFE0003FF8
FFE0003FF8
FFE0003FF8
FFE0003FF8
FFE0003FF8
FFE0003FF8
FFE0003FF8
FFE0003FF8
FFE0003FF8
FFE0003FF8
FFE0003FF8
FFE0003FF8
FFE0007FF0
FFF0007FF0
FFF000FFF0
FFF801FFF0
FFFE03FFE0
FFFFFFFFE0
FFFFFFFFC0
FFFFFFFFC0
FFFFFFFF80
FFFFFFFF00
FFCFFFFE00
FFC3FFFC00
FFC1FFF000
00001F8000
ENDCHAR
STARTCHAR 0063
ENCODING 99
SWIDTH 514 0
DWIDTH 40 0
BBX 36 43 2 -1
BITMAP
0001FE0000
000FFFE000
003FFFF800
00FFFFFE00
01FFFFFF00
03FFFFFF80
07FFFFFFC0
0FFFFFFFC0
0FFFFFFFE0
1FFF01FFE0
1FFC00FFF0
3FF8007FF0
3FF8007FF0
7FF0003FF0
7FF0003FF0
7FF0003FF0
7FF0000000
7FF0000000
7FF0000000
7FE0000000
FFE0000000
FFE0000000
FFE0000000
7FE0000000
7FF0000000
7FF0000000
7FF0000000
7FF0000000
7FF0003FF0
7FF0003FF0
3FF8003FF0
3FF8007FF0
1FFC00FFF0
1FFF01FFE0
0FFFFFFFE0
0FFFFFFFC0
07FFFFFF80
03FFFFFF80
01FFFFFF00
00FFFFFC00
003FFFF800
000FFFE000
0000FC0000
ENDCHAR
STARTCHAR 0064
ENCODING 100
SWIDTH 552 0
DWIDTH 43 0
BBX 37 59 3 -1
BITMAP
0000003FF8
0000003FF8
0000003FF8
0000003FF8
0000003FF8
0000003FF8
0000003FF8
0000003FF8
0000003FF8
0000003FF8
0000003FF8
0000003FF8
0000003FF8
0000003FF8
0000003FF8
0000003FF8
000FE03FF8
007FFC3FF8
01FFFE3FF8
03FFFF3FF8
07FFFFBFF8
0FFFFFFFF8
1FFFFFFFF8
1FFFFFFFF8
3FFFFFFFF8
3FFE03FFF8
7FFC00FFF8
7FF800FFF8
7FF0007FF8
FFF0003FF8
FFE0003FF8
FFE0003FF8
FFE0003FF8
FFE0003FF8
FFE0003FF8
FFE0003FF8
FFC0003FF8
FFC0003FF8
FFC0003FF8
FFE0003FF8
FFE0003FF8
FFE0003FF8
FFE0003FF8
FFE0003FF8
FFE0003FF8
FFF0003FF8
7FF0007FF8
7FF800FFF8
7FFC01FFF8
3FFE03FFF8
3FFFFFFFF8
1FFFFFFFF8
1FFFFFFFF8
0FFFFFFFF8
07FFFFBFF8
03FFFF3FF8
01FFFE3FF8
007FF81FF8
0007C00000
ENDCHAR
STARTCHAR 0065
ENCODING 101
SWIDTH 540 0
DWIDTH 42 0
BBX 37 43 3 -1
BITMAP
0001FE0000
001FFFC000
007FFFF800
00FFFFFC00
03FFFFFE00
07FFFFFF00
0FFFFFFF80
0FFFFFFFC0
1FFFFFFFC0
3FFE01FFE0
3FFC00FFE0
7FF8007FF0
7FF8007FF0
7FF0003FF0
FFF0003FF0
FFE0003FF8
FFE0003FF8
FFE0003FF8
FFFFFFFFF8
FFFFFFFFF8
FFFFFFFFF8
FFFFFFFFF8
FFFFFFFFF8
FFFFFFFFF8
FFFFFFFFF8
FFE0000000
FFE0000000
FFE0000000
FFF0000000
7FF0000000
7FF8000300
7FFC000780
3FFE001FC0
3FFF807FC0
1FFFFFFFE0
0FFFFFFFF0
07FFFFFFE0
03FFFFFFC0
01FFFFFF80
00FFFFFF00
003FFFFC00
000FFFF000
00007F0000
ENDCHAR
STARTCHAR 0066
ENCODING 102
SWIDTH 347 0
DWIDTH 27 0
BBX 27 59 1 0
BITMAP
0000FFC0
0007FFE0
000FFFE0
003FFFE0
007FFFE0
007FFFE0
00FFFFE0
01FFFFE0
01FFFFE0
01FFE000
03FFC000
03FFC000
03FF8000
03FF8000
03FF8000
03FF8000
03FF8000
03FF8000
FFFFFF80
FFFFFF80
FFFFFF80
FFFFFF80
FFFFFF80
FFFFFF80
FFFFFF80
FFFFFF80
03FF8000
03FF8000
03FF8000
03FF8000
03FF8000
03FF8000
03FF8000
03FF8000
03FF8000
03FF8000
03FF8000
03FF8000
03FF8000
03FF8000
03FF8000
03FF8000
03FF8000
03FF8000
03FF8000
03FF8000
03FF8000
03FF8000
03FF8000
03FF8000
03FF8000
03FF8000
03FF8000
03FF8000
03FF8000
03FF8000
03FF8000
03FF8000
03FF8000
ENDCHAR
STARTCHAR 0067
ENCODING 103
SWIDTH 565 0
DWIDTH 44 0
BBX 37 58 3 -16
BITMAP
0007F00000
003FFE1FF8
00FFFF1FF8
03FFFFDFF8
07FFFFFFF8
0FFFFFFFF8
0FFFFFFFF8
1FFFFFFFF8
3FFFFFFFF8
3FFF01FFF8
7FFC00FFF8
7FF8007FF8
7FF8003FF8
7FF0003FF8
FFF0003FF8
FFE0003FF8
FFE0003FF8
FFE0003FF8
FFE0003FF8
FFE0003FF8
FFE0003FF8
FFE0003FF8
FFE0003FF8
FFE0003FF8
FFE0003FF8
FFE0003FF8
FFE0003FF8
FFE0003FF8
FFF0003FF8
7FF0003FF8
7FF8003FF8
7FF8007FF8
3FFC00FFF8
3FFF01FFF8
1FFFFFFFF8
1FFFFFFFF8
0FFFFFFFF8
07FFFFFFF8
03FFFFFFF8
01FFFFBFF8
00FFFF3FF8
003FFC3FF8
0003E03FF8
0000003FF8
0000003FF8
0000007FF8
0300007FF0
078000FFF0
07E001FFF0
0FFC0FFFE0
1FFFFFFFE0
3FFFFFFFC0
1FFFFFFF80
0FFFFFFF00
07FFFFFE00
01FFFFF800
007FFFE000
000FFF0000
ENDCHAR
STARTCHAR 0068
ENCODING 104
SWIDTH 552 0
DWIDTH 43 0
BBX 36 58 4 0
BITMAP
FFE0000000
FFE0000000
FFE0000000
FFE0000000
FFE0000000
FFE0000000
FFE0000000
FFE0000000
FFE0000000
FFE0000000
FFE0000000
FFE0000000
FFE0000000
FFE0000000
FFE0000000
FFE0000000
FFE01FC000
FFE0FFF800
FFE3FFFC00
FFE7FFFF00
FFEFFFFF00
FFFFFFFF80
FFFFFFFFC0
FFFFFFFFC0
FFFFFFFFC0
FFFC03FFE0
FFF801FFE0
FFF000FFE0
FFE000FFE0
FFE000FFE0
FFE000FFE0
FFE000FFF0
FFE0007FF0
FFE0007FF0
FFE0007FF0
FFE0007FF0
FFE0007FF0
FFE0007FF0
FFE0007FF0
FFE0007FF0
FFE0007FF0
FFE0007FF0
FFE0007FF0
FFE0007FF0
FFE0007FF0
FFE0007FF0
FFE0007FF0
FFE0007FF0
FFE0007FF0
FFE0007FF0
FFE0007FF0
FFE0007FF0
FFE0007FF0
FFE0007FF0
FFE0007FF0
FFE0007FF0
FFE0007FF0
FFE0007FF0
ENDCHAR
STARTCHAR 0069
ENCODING 105
SWIDTH 257 0
DWIDTH 20 0
BBX 12 57 4 0
BITMAP
1FC0
3FE0
7FF0
FFF0
FFF0
FFF0
FFF0
7FF0
7FE0
3FC0
0700
0000
0000
0000
0000
0000
7FF0
7FF0
7FF0
7FF0
7FF0
7FF0
7FF0
7FF0
7FF0
7FF0
7FF0
7FF0
7FF0
7FF0
7FF0
7FF0
7FF0
7FF0
7FF0
7FF0
7FF0
7FF0
7FF0
7FF0
7FF0
7FF0
7FF0
7FF0
7FF0
7FF0
7FF0
7FF0
7FF0
7FF0
7FF0
7FF0
7FF0
7FF0
7FF0
7FF0
7FF0
ENDCHAR
STARTCHAR 006A
ENCODING 106
SWIDTH 257 0
DWIDTH 20 0
BBX 20 74 -4 -17
BITMAP
001FC0
007FE0
007FF0
00FFF0
00FFF0
00FFF0
00FFF0
00FFF0
007FE0
003FC0
000600
000000
000000
000000
000000
000000
007FF0
007FF0
007FF0
007FF0
007FF0
007FF0
007FF0
007FF0
007FF0
007FF0
007FF0
007FF0
007FF0
007FF0
007FF0
007FF0
007FF0
007FF0
007FF0
007FF0
007FF0
007FF0
007FF0
007FF0
007FF0
007FF0
007FF0
007FF0
007FF0
007FF0
007FF0
007FF0
007FF0
007FF0
007FF0
007FF0
007FF0
007FF0
007FF0
007FF0
007FF0
007FF0
007FF0
007FF0
007FF0
007FF0
00FFF0
00FFE0
03FFE0
FFFFE0
FFFFC0
FFFFC0
FFFF80
FFFF80
FFFF00
FFFC00
FFF000
0E0000
ENDCHAR
STARTCHAR 006B
ENCODING 107
SWIDTH 527 0
DWIDTH 41 0
BBX 38 58 4 0
BITMAP
FFE0000000
FFE0000000
FFE0000000
FFE0000000
FFE0000000
FFE0000000
FFE0000000
FFE0000000
FFE0000000
FFE0000000
FFE0000000
FFE0000000
FFE0000000
FFE0000000
FFE0000000
FFE0000000
FFE0000000
FFE001FFF8
FFE001FFF0
FFE003FFE0
FFE007FFC0
FFE00FFF80
FFE01FFF00
FFE03FFE00
FFE07FFC00
FFE07FFC00
FFE0FFF800
FFE1FFF000
FFE3FFE000
FFE7FFC000
FFEFFF8000
FFEFFF0000
FFFFFE0000
FFFFFE0000
FFFFFE0000
FFFFFE0000
FFFFFF0000
FFFFFF8000
FFFFFF8000
FFFFFFC000
FFFFFFE000
FFFFFFE000
FFFCFFF000
FFF8FFF800
FFF07FF800
FFE03FFC00
FFE03FFE00
FFE01FFE00
FFE00FFF00
FFE00FFF80
FFE007FF80
FFE003FFC0
FFE003FFE0
FFE001FFE0
FFE000FFF0
FFE000FFF8
FFE0007FF8
FFE0007FFC
ENDCHAR
STARTCHAR 006C
ENCODING 108
SWIDTH 257 0
DWIDTH 20 0
BBX 11 58 5 0
BITMAP
FFE0
FFE0
FFE0
FFE0
FFE0
FFE0
FFE0
FFE0
FFE0
FFE0
FFE0
FFE0
FFE0
FFE0
FFE0
FFE0
FFE0
FFE0
FFE0
FFE0
FFE0
FFE0
FFE0
FFE0
FFE0
FFE0
FFE0
FFE0
FFE0
FFE0
FFE0
FFE0
FFE0
FFE0
FFE0
FFE0
FFE0
FFE0
FFE0
FFE0
FFE0
FFE0
FFE0
FFE0
FFE0
FFE0
FFE0
FFE0
FFE0
FFE0
FFE0
FFE0
FFE0
FFE0
FFE0
FFE0
FFE0
FFE0
ENDCHAR
STARTCHAR 006D
ENCODING 109
SWIDTH 861 0
DWIDTH 67 0
BBX 59 42 4 0
BITMAP
00001FC0003FC000
FFE0FFF801FFF800
FFE3FFFE03FFFC00
FFE7FFFF0FFFFE00
FFEFFFFF1FFFFF00
FFFFFFFFBFFFFF80
FFFFFFFFFFFFFF80
FFFFFFFFFFFFFFC0
FFFFFFFFFFFFFFC0
FFFE03FFFE03FFC0
FFF801FFF801FFE0
FFF001FFF001FFE0
FFE000FFF000FFE0
FFE000FFE000FFE0
FFE000FFE000FFE0
FFE000FFE000FFE0
FFE000FFE000FFE0
FFE000FFE000FFE0
FFE000FFE000FFE0
FFE000FFE000FFE0
FFE000FFE000FFE0
FFE000FFE000FFE0
FFE000FFE000FFE0
FFE000FFE000FFE0
FFE000FFE000FFE0
FFE000FFE000FFE0
FFE000FFE000FFE0
FFE000FFE000FFE0
FFE000FFE000FFE0
FFE000FFE000FFE0
FFE000FFE000FFE0
FFE000FFE000FFE0
FFE000FFE000FFE0
FFE000FFE000FFE0
FFE000FFE000FFE0
FFE000FFE000FFE0
FFE000FFE000FFE0
FFE000FFE000FFE0
FFE000FFE000FFE0
FFE000FFE000FFE0
FFE000FFE000FFE0
FFE000FFE000FFE0
ENDCHAR
STARTCHAR 006E
ENCODING 110
SWIDTH 552 0
DWIDTH 43 0
BBX 36 42 4 0
BITMAP
00001FC000
FFC0FFF800
FFC3FFFE00
FFC7FFFF00
FFEFFFFF80
FFFFFFFF80
FFFFFFFFC0
FFFFFFFFC0
FFFFFFFFE0
FFFC03FFE0
FFF801FFE0
FFF000FFE0
FFE000FFE0
FFE000FFE0
FFE000FFF0
FFE0007FF0
FFE0007FF0
FFE0007FF0
FFE0007FF0
FFE0007FF0
FFE0007FF0
FFE0007FF0
FFE0007FF0
FFE0007FF0
FFE0007FF0
FFE0007FF0
FFE0007FF0
FFE0007FF0
FFE0007FF0
FFE0007FF0
FFE0007FF0
FFE0007FF0
FFE0007FF0
FFE0007FF0
FFE0007FF0
FFE0007FF0
FFE0007FF0
FFE0007FF0
FFE0007FF0
FFE0007FF0
FFE0007FF0
FFE0007FF0
ENDCHAR
STARTCHAR 006F
ENCODING 111
SWIDTH 552 0
DWIDTH 43 0
BBX 39 43 2 -1
BITMAP
0000FF0000
000FFFF000
003FFFFC00
00FFFFFE00
01FFFFFF80
03FFFFFFC0
07FFFFFFE0
0FFFFFFFE0
0FFFFFFFF0
1FFF01FFF8
1FFE007FF8
3FFC003FFC
3FF8001FFC
3FF8001FFC
7FF0001FFE
7FF0000FFE
7FF0000FFE
7FF0000FFE
7FF0000FFE
7FE0000FFE
FFE0000FFE
FFE0000FFE
FFE0000FFE
7FE0000FFE
7FF0000FFE
7FF0000FFE
7FF0000FFE
7FF0000FFE
7FF0001FFE
3FF8001FFC
3FF8001FFC
3FFC003FFC
1FFE007FF8
1FFF01FFF8
0FFFFFFFF0
07FFFFFFE0
07FFFFFFE0
03FFFFFFC0
01FFFFFF80
007FFFFE00
003FFFFC00
000FFFF000
00007E0000
ENDCHAR
STARTCHAR 0070
ENCODING 112
SWIDTH 552 0
DWIDTH 43 0
BBX 37 58 4 -16
BITMAP
00003F8000
FFC1FFF000
FFE7FFFC00
FFEFFFFE00
FFFFFFFF00
FFFFFFFF80
FFFFFFFFC0
FFFFFFFFC0
FFFFFFFFE0
FFFC03FFE0
FFF801FFF0
FFF000FFF0
FFE0007FF0
FFE0007FF0
FFE0007FF8
FFE0003FF8
FFE0003FF8
FFE0003FF8
FFE0003FF8
FFE0003FF8
FFE0003FF8
FFE0003FF8
FFE0003FF8
FFE0003FF8
FFE0003FF8
FFE0003FF8
FFE0003FF8
FFE0003FF8
FFE0007FF8
FFE0007FF0
FFE0007FF0
FFF000FFF0
FFF801FFE0
FFFE03FFE0
FFFFFFFFC0
FFFFFFFFC0
FFFFFFFF80
FFFFFFFF80
FFFFFFFF00
FFEFFFFE00
FFE7FFF800
FFE1FFF000
FFE01F0000
FFE0000000
FFE0000000
FFE0000000
FFE0000000
FFE0000000
FFE0000000
FFE0000000
FFE0000000
FFE0000000
FFE0000000
FFE0000000
FFE0000000
FFE0000000
FFE0000000
FFE0000000
ENDCHAR
STARTCHAR 0071
ENCODING 113
SWIDTH 552 0
DWIDTH 43 0
BBX 37 58 3 -16
BITMAP
000FE00000
007FFC1FF8
01FFFE1FF8
03FFFFBFF8
07FFFFFFF8
0FFFFFFFF8
1FFFFFFFF8
1FFFFFFFF8
3FFFFFFFF8
3FFE03FFF8
7FFC00FFF8
7FF8007FF8
7FF0007FF8
FFF0003FF8
FFE0003FF8
FFE0003FF8
FFE0003FF8
FFE0003FF8
FFE0003FF8
FFE0003FF8
FFC0003FF8
FFC0003FF8
FFC0003FF8
FFE0003FF8
FFE0003FF8
FFE0003FF8
FFE0003FF8
FFE0003FF8
FFE0003FF8
FFF0003FF8
7FF0007FF8
7FF8007FF8
7FFC00FFF8
3FFE03FFF8
3FFFFFFFF8
1FFFFFFFF8
1FFFFFFFF8
0FFFFFFFF8
07FFFFFFF8
03FFFF3FF8
00FFFE3FF8
007FFC3FF8
0007C03FF8
0000003FF8
0000003FF8
0000003FF8
0000003FF8
0000003FF8
0000003FF8
0000003FF8
0000003FF8
0000003FF8
0000003FF8
0000003FF8
0000003FF8
0000003FF8
0000003FF8
0000003FF8
ENDCHAR
STARTCHAR 0072
ENCODING 114
SWIDTH 360 0
DWIDTH 28 0
BBX 24 42 4 0
BITMAP
00007E
FFE1FF
FFE3FF
FFE7FF
FFEFFF
FFFFFF
FFFFFE
FFFFFE
FFFFFE
FFFFFE
FFFFFE
FFFC00
FFF800
FFF000
FFE000
FFE000
FFE000
FFE000
FFE000
FFE000
FFE000
FFE000
FFE000
FFE000
FFE000
FFE000
FFE000
FFE000
FFE000
FFE000
FFE000
FFE000
FFE000
FFE000
FFE000
FFE000
FFE000
FFE000
FFE000
FFE000
FFE000
FFE000
ENDCHAR
STARTCHAR 0073
ENCODING 115
SWIDTH 501 0
DWIDTH 39 0
BBX 35 43 2 -1
BITMAP
0003FC0000
003FFFC000
00FFFFF000
03FFFFFC00
07FFFFFE00
0FFFFFFF00
1FFFFFFF80
1FFFFFFFC0
3FFC07FFC0
3FF801FFC0
3FF001FFE0
7FF000FFE0
7FF000FFE0
7FF0000000
7FF8000000
3FFC000000
3FFF000000
3FFFF00000
1FFFFF0000
0FFFFFE000
07FFFFF800
03FFFFFE00
00FFFFFF00
003FFFFF80
0007FFFFC0
00007FFFC0
000007FFE0
000001FFE0
000000FFE0
FFC000FFE0
FFE000FFE0
FFE000FFE0
7FF000FFE0
7FF801FFE0
3FFC03FFC0
3FFFFFFFC0
1FFFFFFF80
0FFFFFFF00
07FFFFFE00
03FFFFFC00
00FFFFF000
003FFFC000
0003FC0000
ENDCHAR
STARTCHAR 0074
ENCODING 116
SWIDTH 334 0
DWIDTH 26 0
BBX 25 52 0 -1
BITMAP
03FF8000
03FF8000
03FF8000
03FF8000
03FF8000
03FF8000
03FF8000
03FF8000
03FF8000
03FF8000
FFFFFF00
FFFFFF00
FFFFFF00
FFFFFF00
FFFFFF00
FFFFFF00
FFFFFF00
FFFFFF00
03FF8000
03FF8000
03FF8000
03FF8000
03FF8000
03FF8000
03FF8000
03FF8000
03FF8000
03FF8000
03FF8000
03FF8000
03FF8000
03FF8000
03FF8000
03FF8000
03FF8000
03FF8000
03FF8000
03FF8000
03FF8000
03FF8000
03FF8000
03FFC000
01FFE000
01FFFF80
01FFFF80
01FFFF80
00FFFF80
00FFFF80
007FFF80
003FFF80
000FFF80
0001FC00
ENDCHAR
STARTCHAR 0075
ENCODING 117
SWIDTH 552 0
DWIDTH 43 0
BBX 36 42 4 -1
BITMAP
FFE0007FF0
FFE0007FF0
FFE0007FF0
FFE0007FF0
FFE0007FF0
FFE0007FF0
FFE0007FF0
FFE0007FF0
FFE0007FF0
FFE0007FF0
FFE0007FF0
FFE0007FF0
FFE0007FF0
FFE0007FF0
FFE0007FF0
FFE0007FF0
FFE0007FF0
FFE0007FF0
FFE0007FF0
FFE0007FF0
FFE0007FF0
FFE0007FF0
FFE0007FF0
FFE0007FF0
FFE0007FF0
FFE0007FF0
FFE0007FF0
FFE0007FF0
FFE0007FF0
FFE000FFF0
FFF000FFF0
FFF001FFF0
7FFC07FFF0
7FFFFFFFF0
7FFFFFFFF0
3FFFFFFFF0
3FFFFFFFF0
1FFFFF7FF0
0FFFFE7FF0
07FFFC7FF0
01FFF07FF0
003F000000
ENDCHAR
STARTCHAR 0076
ENCODING 118
SWIDTH 501 0
DWIDTH 39 0
BBX 38 41 1 0
BITMAP
FFE0003FFC
FFE0003FF8
FFF0003FF8
7FF0007FF8
7FF0007FF0
7FF8007FF0
3FF8007FF0
3FF800FFE0
3FF800FFE0
1FFC00FFE0
1FFC01FFC0
1FFC01FFC0
0FFC01FFC0
0FFE01FF80
0FFE03FF80
07FE03FF80
07FF03FF00
07FF07FF00
03FF07FF00
03FF07FE00
03FF87FE00
01FF8FFE00
01FF8FFC00
01FF8FFC00
00FFCFF800
00FFDFF800
00FFDFF800
007FFFF000
007FFFF000
007FFFF000
003FFFE000
003FFFE000
003FFFE000
001FFFC000
001FFFC000
001FFFC000
000FFF8000
000FFF8000
0007FF8000
0007FF0000
0007FF0000
ENDCHAR
STARTCHAR 0077
ENCODING 119
SWIDTH 732 0
DWIDTH 57 0
BBX 55 41 1 0
BITMAP
FFE001FF000FFE
FFE001FF000FFC
7FE001FF000FFC
7FE001FF000FFC
7FF003FF801FFC
3FF003FF801FF8
3FF003FF801FF8
3FF007FFC01FF8
3FF007FFC01FF8
1FF807FFC03FF0
1FF807FFC03FF0
1FF80FFFE03FF0
1FF80FFFE03FF0
0FF80FFFE03FE0
0FFC1FFFF07FE0
0FFC1FEFF07FE0
0FFC1FEFF07FE0
07FC1FEFF07FC0
07FC3FC7F87FC0
07FE3FC7F8FFC0
07FE3FC7F8FFC0
03FE7F83FCFF80
03FE7F83FCFF80
03FE7F83FCFF80
03FF7F83FDFF80
01FFFF01FFFF00
01FFFF01FFFF00
01FFFF01FFFF00
01FFFE00FFFF00
00FFFE00FFFE00
00FFFE00FFFE00
00FFFE00FFFE00
00FFFC007FFE00
007FFC007FFC00
007FFC007FFC00
007FF8003FFC00
007FF8003FFC00
003FF8003FF800
003FF0001FF800
003FF0001FF800
003FF0001FF800
ENDCHAR
STARTCHAR 0078
ENCODING 120
SWIDTH 501 0
DWIDTH 39 0
BBX 38 41 1 0
BITMAP
7FF0007FF8
7FF8007FF8
3FF800FFF0
3FFC00FFE0
1FFE01FFE0
0FFE01FFC0
0FFF03FFC0
07FF03FF80
07FF87FF80
03FF8FFF00
01FFCFFE00
01FFDFFE00
00FFFFFC00
00FFFFFC00
007FFFF800
007FFFF800
003FFFF000
001FFFE000
001FFFE000
000FFFC000
000FFFC000
001FFFE000
001FFFE000
003FFFF000
007FFFF800
007FFFF800
00FFFFFC00
00FFFFFC00
01FFFFFE00
03FFCFFE00
03FF8FFF00
07FF87FF80
07FF03FF80
0FFF03FFC0
0FFE01FFC0
1FFE01FFE0
3FFC00FFE0
3FFC00FFF0
7FF8007FF8
7FF0007FF8
FFF0003FFC
ENDCHAR
STARTCHAR 0079
ENCODING 121
SWIDTH 501 0
DWIDTH 39 0
BBX 39 58 0 -17
BITMAP
FFF0001FFE
7FF0001FFE
7FF8001FFC
7FF8003FFC
3FF8003FF8
3FFC003FF8
3FFC007FF8
1FFC007FF0
1FFC007FF0
0FFE00FFF0
0FFE00FFE0
0FFE00FFE0
07FF00FFE0
07FF01FFC0
07FF01FFC0
03FF81FFC0
03FF83FF80
03FF83FF80
01FF83FF80
01FFC7FF00
01FFC7FF00
00FFC7FF00
00FFE7FE00
00FFEFFE00
007FEFFE00
007FFFFC00
007FFFFC00
003FFFF800
003FFFF800
001FFFF800
001FFFF000
001FFFF000
000FFFF000
000FFFE000
000FFFE000
0007FFE000
0007FFC000
0007FFC000
0003FFC000
0003FF8000
0003FF8000
0003FF8000
0003FF0000
0003FF0000
0007FF0000
0007FE0000
000FFE0000
001FFC0000
007FFC0000
07FFFC0000
07FFF80000
07FFF80000
07FFF00000
07FFE00000
07FFC00000
07FF800000
07FE000000
00E0000000
ENDCHAR
STARTCHAR 007A
ENCODING 122
SWIDTH 501 0
DWIDTH 39 0
BBX 34 41 3 0
BITMAP
FFFFFFFF80
FFFFFFFF80
FFFFFFFF80
FFFFFFFF80
FFFFFFFF80
FFFFFFFF80
FFFFFFFF80
FFFFFFFF00
00001FFF00
00001FFE00
00003FFC00
00007FF800
0000FFF800
0000FFF000
0001FFE000
0003FFC000
0007FFC000
0007FF8000
000FFF0000
001FFE0000
003FFE0000
003FFC0000
007FF80000
00FFF00000
01FFF00000
01FFE00000
03FFC00000
07FF800000
0FFF800000
0FFF000000
1FFE000000
3FFC000000
7FFFFFFFC0
7FFFFFFFC0
FFFFFFFFC0
FFFFFFFFC0
FFFFFFFFC0
FFFFFFFFC0
FFFFFFFFC0
FFFFFFFFC0
FFFFFFFFC0
ENDCHAR
STARTCHAR 007B
ENCODING 123
SWIDTH 321 0
DWIDTH 25 0
BBX 22 74 2 -13
BITMAP
000078
0001F8
0007F8
000FFC
001FFC
003FFC
007FF0
007FE0
00FFC0
00FFC0
01FF80
01FF80
01FF80
01FF80
01FF00
01FF00
01FF00
01FF00
01FF00
01FF00
01FF00
01FF00
01FF00
01FF00
01FF00
01FF00
03FF00
03FF00
03FF00
03FF00
07FE00
0FFE00
3FFC00
FFFC00
FFF800
FFE000
FFC000
FFE000
FFF000
FFF800
7FFC00
0FFE00
07FE00
03FF00
03FF00
03FF00
03FF00
01FF00
01FF00
01FF00
01FF00
01FF00
01FF00
01FF00
01FF00
01FF00
01FF00
01FF00
01FF00
01FF80
01FF80
01FF80
01FF80
00FFC0
00FFC0
007FE0
007FF0
003FFC
001FFC
000FFC
0007F8
0001F8
000078
000010
ENDCHAR
STARTCHAR 007C
ENCODING 124
SWIDTH 244 0
DWIDTH 19 0
BBX 6 65 7 -10
BITMAP
FC
FC
FC
FC
FC
FC
FC
FC
FC
FC
FC
FC
FC
FC
FC
FC
FC
FC
FC
FC
FC
FC
FC
FC
FC
FC
FC
FC
FC
FC
FC
FC
FC
FC
FC
FC
FC
FC
FC
FC
FC
FC
FC
FC
FC
FC
FC
FC
FC
FC
FC
FC
FC
FC
FC
FC
FC
FC
FC
FC
FC
FC
FC
FC
FC
ENDCHAR
STARTCHAR 007D
ENCODING 125
SWIDTH 321 0
DWIDTH 25 0
BBX 22 75 2 -14
BITMAP
400000
780000
7E0000
FF0000
FFC000
FFE000
FFF000
3FF000
1FF800
1FF800
0FFC00
0FFC00
07FC00
07FE00
07FE00
07FE00
07FE00
07FE00
07FE00
07FE00
07FE00
07FE00
07FE00
07FE00
07FE00
07FE00
07FE00
07FE00
07FE00
03FF00
03FF00
03FF80
01FFC0
01FFF0
00FFFC
007FFC
003FFC
000FFC
001FFC
007FFC
00FFFC
01FFF0
01FFC0
03FF80
03FF00
03FF00
07FE00
07FE00
07FE00
07FE00
07FE00
07FE00
07FE00
07FE00
07FE00
07FE00
07FE00
07FE00
07FE00
07FE00
07FE00
07FE00
07FC00
0FFC00
0FFC00
1FF800
1FF800
3FF000
FFF000
FFE000
FFC000
FF0000
7E0000
780000
400000
ENDCHAR
STARTCHAR 007E
ENCODING 126
SWIDTH 642 0
DWIDTH 50 0
BBX 42 17 4 14
BITMAP
00FF80000000
03FFE0003FC0
07FFF8003FC0
0FFFFC003FC0
1FFFFE003FC0
3FFFFF007FC0
3FFFFF80FFC0
7FFFFFE1FF80
7FF3FFFFFF80
7FC07FFFFF80
FF803FFFFF00
FF801FFFFE00
FF800FFFFE00
FF0007FFFC00
FF0001FFF000
000000FFE000
000000070000
ENDCHAR
STARTCHAR 00A0
ENCODING 160
SWIDTH 244 0
DWIDTH 19 0
BBX 0 0 0 0
BITMAP
ENDCHAR
STARTCHAR 00A1
ENCODING 161
SWIDTH 270 0
DWIDTH 21 0
BBX 12 56 5 -14
BITMAP
0F00
3FC0
7FE0
FFF0
FFF0
FFF0
FFF0
FFF0
FFF0
7FE0
3FC0
0000
0000
0000
0000
0000
0000
0000
7FE0
7FE0
7FE0
7FE0
7FE0
7FE0
7FE0
7FE0
7FE0
7FE0
7FE0
7FE0
7FE0
7FE0
7FE0
7FE0
7FE0
7FE0
7FE0
7FE0
7FE0
7FE0
7FE0
7FE0
7FE0
7FE0
7FE0
7FF0
7FF0
FFF0
FFF0
FFF0
FFF0
FFF0
FFF0
FFF0
FFF0
FFF0
ENDCHAR
STARTCHAR 00A2
ENCODING 162
SWIDTH 565 0
DWIDTH 44 0
BBX 36 59 4 -9
BITMAP
0001FE0000
0001FE0000
0001FE0000
0001FE0000
0001FE0000
0001FE0000
0001FE0000
0001FE0000
0001FE0000
001FFFC000
007FFFF000
01FFFFFC00
03FFFFFE00
07FFFFFF00
0FFFFFFF80
0FFFFFFFC0
1FFFFFFFC0
3FFE03FFE0
3FFC01FFE0
7FF800FFE0
7FF0007FE0
7FF0007FF0
7FE0007FF0
FFE0007FF0
FFE0000000
FFE0000000
FFE0000000
FFE0000000
FFE0000000
FFE0000000
FFE0000000
FFE0000000
FFE0000000
FFE0000000
FFE0000000
FFE0000000
7FE0007FF0
7FF0007FF0
7FF0007FF0
7FF800FFE0
3FFC00FFE0
3FFE03FFE0
1FFFFFFFC0
0FFFFFFFC0
0FFFFFFF80
07FFFFFF00
03FFFFFE00
00FFFFFC00
007FFFF000
001FFFC000
0001FE0000
0001FE0000
0001FE0000
0001FE0000
0001FE0000
0001FE0000
0001FE0000
0001FE0000
0001FE0000
ENDCHAR
STARTCHAR 00A3
ENCODING 163
SWIDTH 591 0
DWIDTH 46 0
BBX 40 56 4 0
BITMAP
00003FF000
0001FFFE00
0007FFFF80
001FFFFFC0
003FFFFFF0
007FFFFFF0
00FFFFFFF8
00FFFFFFFC
01FFFFFFFC
01FFF03FFE
03FFE01FFE
03FFC00FFE
03FF8007FF
03FF8007FF
03FF8007FF
07FF8007FF
07FF800000
07FF800000
03FF800000
03FF800000
03FF800000
03FF800000
03FF800000
03FF800000
03FF800000
FFFFFFF800
FFFFFFF800
FFFFFFF800
FFFFFFF800
FFFFFFF800
FFFFFFF800
FFFFFFF800
FFFFFFF800
FFFFFFF800
03FFC00000
03FFC00000
03FFC00000
03FFC00000
03FFC00000
03FFC00000
03FFC00000
03FFC00000
03FF800000
03FF800000
03FF800000
07FF000000
07FF000000
FFFFFFFFFF
FFFFFFFFFF
FFFFFFFFFF
FFFFFFFFFF
FFFFFFFFFF
FFFFFFFFFF
FFFFFFFFFF
FFFFFFFFFF
FFFFFFFFFF
ENDCHAR
STARTCHAR 00A4
ENCODING 164
SWIDTH 681 0
DWIDTH 53 0
BBX 48 49 3 -1
BITMAP
040000000020
0E000FF00070
1F00FFFF00F8
3F83FFFFC1FC
7FCFFFFFF3FE
FFFFFFFFFFFF
7FFFFFFFFFFE
3FFFFFFFFFFC
1FFFF81FFFF8
0FFFC003FFF0
07FF0000FFE0
07FE00007FE0
07F800001FE0
0FF000000FF0
0FF000000FF0
1FE0000007F8
1FC0000003F8
3FC0000003FC
3F80000001FC
3F80000001FC
3F80000001FC
3F80000001FC
7F00000000FC
7F00000000FE
7F00000000FE
7F00000000FE
7F00000000FE
3F00000001FC
3F80000001FC
3F80000001FC
3F80000001FC
3F80000003FC
1FC0000003F8
1FC0000003F8
1FE0000007F8
0FF000000FF0
0FF800001FF0
07FC00003FE0
07FE00007FE0
0FFF0000FFF0
1FFFC003FFF8
3FFFFC3FFFFC
7FFFFFFFFFFE
FFFFFFFFFFFF
7FDFFFFFFBFE
3F8FFFFFE1FC
1F03FFFFC0F8
0E007FFE0070
040007F00020
ENDCHAR
STARTCHAR 00A5
ENCODING 165
SWIDTH 527 0
DWIDTH 41 0
BBX 40 55 1 0
BITMAP
FFF0000FFF
FFF0000FFE
7FF0001FFE
7FF8001FFE
3FF8001FFC
3FFC003FFC
1FFC003FF8
1FFC007FF8
1FFE007FF0
0FFE007FF0
0FFF00FFE0
07FF00FFE0
07FF01FFC0
03FF81FFC0
03FF81FFC0
01FFC3FF80
01FFC3FF80
00FFC7FF00
00FFE7FF00
00FFE7FE00
007FFFFE00
007FFFFC00
003FFFFC00
003FFFF800
001FFFF800
001FFFF800
000FFFF000
3FFFFFFFF0
3FFFFFFFF0
3FFFFFFFF0
3FFFFFFFF0
3FFFFFFFF0
3FFFFFFFF0
0003FF8000
0003FF8000
0003FF8000
0003FF8000
0003FF8000
3FFFFFFFF0
3FFFFFFFF0
3FFFFFFFF0
3FFFFFFFF0
3FFFFFFFF0
3FFFFFFFF0
0003FF8000
0003FF8000
0003FF8000
0003FF8000
0003FF8000
0003FF8000
0003FF8000
0003FF8000
0003FF8000
0003FF8000
0003FF8000
ENDCHAR
STARTCHAR 00A6
ENCODING 166
SWIDTH 244 0
DWIDTH 19 0
BBX 10 65 5 -10
BITMAP
FFC0
FFC0
FFC0
FFC0
FFC0
FFC0
FFC0
FFC0
FFC0
FFC0
FFC0
FFC0
FFC0
FFC0
FFC0
FFC0
FFC0
FFC0
FFC0
FFC0
FFC0
FFC0
FFC0
FFC0
FFC0
FFC0
FFC0
FFC0
0000
0000
0000
0000
0000
0000
0000
FFC0
FFC0
FFC0
FFC0
FFC0
FFC0
FFC0
FFC0
FFC0
FFC0
FFC0
FFC0
FFC0
FFC0
FFC0
FFC0
FFC0
FFC0
FFC0
FFC0
FFC0
FFC0
FFC0
FFC0
FFC0
FFC0
FFC0
FFC0
FFC0
FFC0
ENDCHAR
STARTCHAR 00A7
ENCODING 167
SWIDTH 617 0
DWIDTH 48 0
BBX 41 73 4 -17
BITMAP
0003FFC00000
003FFFFC0000
00FFFFFF0000
03FFFFFFC000
07FFFFFFE000
0FFFFFFFF000
1FFFFFFFF800
3FFFFFFFFC00
3FFFFFFFFC00
7FFE007FFE00
7FF8001FFE00
7FF0000FFE00
7FF0000FFF00
7FF00007FF00
7FF00007FF00
7FF00007FF00
7FF000000000
7FF800000000
7FFC00000000
7FFE00000000
3FFFC0000000
3FFFF8000000
1FFFFF800000
0FFFFFF00000
07FFFFFE0000
03FFFFFF8000
0FFFFFFFE000
1FFFFFFFF000
3FFFFFFFF800
7FF9FFFFFC00
7FF03FFFFE00
FFE007FFFE00
FFE000FFFF00
FFE0003FFF00
FFE0000FFF00
FFE00007FF80
FFE00007FF80
FFE00003FF80
FFF00003FF80
FFF80003FF80
FFFE0003FF80
7FFFC007FF00
7FFFF807FF00
3FFFFF0FFE00
1FFFFFFFFE00
0FFFFFFFFC00
07FFFFFFF800
01FFFFFFF000
007FFFFFE000
001FFFFFF000
0003FFFFF800
00007FFFFC00
000007FFFC00
000001FFFE00
0000003FFE00
0000001FFE00
0000000FFF00
FFE00007FF00
FFE00007FF00
FFE00007FF00
FFE00007FF00
FFF0000FFF00
FFF0001FFE00
7FFC003FFE00
7FFFC1FFFE00
3FFFFFFFFC00
3FFFFFFFFC00
1FFFFFFFF800
0FFFFFFFF000
07FFFFFFE000
01FFFFFF8000
007FFFFE0000
0007FFF00000
ENDCHAR
STARTCHAR 00A8
ENCODING 168
SWIDTH 462 0
DWIDTH 36 0
BBX 29 10 4 47
BITMAP
0C000100
7F000FE0
FF801FF0
FFC01FF0
FFC03FF8
FFC03FF8
FFC01FF8
FF801FF0
7F800FE0
1E0003C0
ENDCHAR
STARTCHAR 00A9
ENCODING 169
SWIDTH 784 0
DWIDTH 61 0
BBX 54 57 3 -1
BITMAP
000003FF800000
00003FFFF00000
0000FFFFFE0000
0003FFFFFF8000
000FFFFFFFC000
001FF8007FF000
003FC0000FF800
007F000003FC00
00FE000000FE00
01FC0000007F00
03F00000003F00
07E00030001F80
07C007FF800FC0
0FC01FFFE007C0
0F803FFFF003E0
1F007FFFF803E0
1F00FFDFFC01F0
3E00FE01FC01F0
3E01FC00FE00F8
3C01F8007E00F8
7C03F0007E00F8
7C03F0003E007C
7C03F0003E007C
7803E00000007C
7803E00000007C
F803E00000003C
F803E00000003C
F803E00000003C
F803E00000003C
F803E00000003C
F803E00000003C
F803E00000007C
7803E00000007C
7803F0003E007C
7C03F0003E007C
7C03F0007E0078
7C03F8007E00F8
3E01F8007E00F8
3E01FC00FE00F8
3E00FE01FC01F0
1F007FFFFC01F0
1F807FFFF803E0
0F803FFFF007E0
0FC00FFFC007C0
07E003FF000FC0
03F00000001F80
03F80000003F00
01FC0000007E00
00FE000001FC00
007F800003F800
003FE0001FF000
000FFC00FFE000
0007FFFFFFC000
0001FFFFFF0000
00007FFFFC0000
00001FFFF00000
000000FE000000
ENDCHAR
STARTCHAR 00AA
ENCODING 170
SWIDTH 437 0
DWIDTH 34 0
BBX 24 30 5 26
BITMAP
00FF80
03FFE0
0FFFF0
1FFFF8
3FFFFC
3FF7FE
7F80FE
7F007E
7E007F
00007F
00007F
00007F
001FFF
03FFFF
0FFFFF
3FFFFF
3FFFFF
7F807F
7F007F
FE007F
FE007F
FE007F
FE00FF
FF01FF
7FFFFF
7FFFFF
3FFFFF
1FFF3F
0FFE3F
01F000
ENDCHAR
STARTCHAR 00AB
ENCODING 171
SWIDTH 488 0
DWIDTH 38 0
BBX 32 30 3 5
BITMAP
003F807F
007F80FE
007F01FE
00FE01FC
01FE03F8
03FC07F8
03FC0FF0
07F80FF0
0FF01FE0
0FF03FC0
1FE03FC0
3FE07F80
7FC0FF80
7F81FF00
FF81FE00
FF81FE00
7F81FF00
7FC0FF80
3FE07F80
1FE03FC0
0FF03FC0
0FF01FE0
07F80FF0
03FC0FF0
03FC07F8
01FE03F8
00FE01FC
007F01FE
007F80FE
003F807F
ENDCHAR
STARTCHAR 00AC
ENCODING 172
SWIDTH 540 0
DWIDTH 42 0
BBX 31 17 5 14
BITMAP
FFFFFFFE
FFFFFFFE
FFFFFFFE
FFFFFFFE
FFFFFFFE
FFFFFFFE
FFFFFFFE
000000FE
000000FE
000000FE
000000FE
000000FE
000000FE
000000FE
000000FE
000000FE
000000FE
ENDCHAR
STARTCHAR 00AD
ENCODING 173
SWIDTH 385 0
DWIDTH 30 0
BBX 22 9 4 19
BITMAP
FFFFFC
FFFFFC
FFFFFC
FFFFFC
FFFFFC
FFFFFC
FFFFFC
FFFFFC
FFFFFC
ENDCHAR
STARTCHAR 00AE
ENCODING 174
SWIDTH 784 0
DWIDTH 61 0
BBX 54 57 3 -1
BITMAP
000003FF800000
00003FFFF00000
0000FFFFFE0000
0003FFFFFF8000
000FFFFFFFC000
001FF8007FF000
003FC0000FF800
007F000003FC00
00FE000000FE00
01F80000007F00
03F00000003F00
07E00000001F80
07E0FFFF000FC0
0FC0FFFFE007C0
0F80FFFFF003E0
1F00FFFFF803E0
1F00FFFFFC01F0
3E00FC01FC01F0
3E00FC007E00F8
3C00FC007E00F8
7C00FC007E00F8
7C00FC007E0078
7C00FC007E007C
7800FC007E007C
7800FC00FE007C
F800FC01FC003C
F800FFFFF8003C
F800FFFFF0003C
F800FFFFE0003C
F800FFFFF8003C
F800FFFFF8003C
F800FC03FC007C
7800FC00FC007C
7800FC007E007C
7C00FC007E007C
7C00FC007E0078
7C00FC007E00F8
3E00FC007E00F8
3E00FC007E00F8
3E00FC007E01F0
1F00FC007E01F0
1F80FC007E03E0
0F80FC007E07E0
0FC0FC003F07C0
07E00000000FC0
03F00000001F80
03F80000003F00
01FC0000007E00
00FE000001FC00
007F800003F800
003FE0001FF000
000FFC00FFE000
0007FFFFFFC000
0001FFFFFF0000
00007FFFFC0000
00001FFFF00000
000000FE000000
ENDCHAR
STARTCHAR 00AF
ENCODING 175
SWIDTH 488 0
DWIDTH 38 0
BBX 26 6 6 49
BITMAP
FFFFFFC0
FFFFFFC0
FFFFFFC0
FFFFFFC0
FFFFFFC0
FFFFFFC0
ENDCHAR
STARTCHAR 00B0
ENCODING 176
SWIDTH 385 0
DWIDTH 30 0
BBX 20 21 5 35
BITMAP
01FC00
07FF00
1FFF80
3FFFC0
3FFFE0
7FFFE0
7E07F0
FC03F0
FC01F0
F801F0
F801F0
F801F0
FC03F0
FC03F0
7F07E0
7FFFE0
3FFFC0
1FFF80
0FFF00
07FE00
006000
ENDCHAR
STARTCHAR 00B1
ENCODING 177
SWIDTH 527 0
DWIDTH 41 0
BBX 35 49 3 0
BITMAP
0007FE0000
0007FE0000
0007FE0000
0007FE0000
0007FE0000
0007FE0000
0007FE0000
0007FE0000
0007FE0000
0007FE0000
0007FE0000
0007FE0000
0007FE0000
FFFFFFFFE0
FFFFFFFFE0
FFFFFFFFE0
FFFFFFFFE0
FFFFFFFFE0
FFFFFFFFE0
FFFFFFFFE0
FFFFFFFFE0
FFFFFFFFE0
0007FE0000
0007FE0000
0007FE0000
0007FE0000
0007FE0000
0007FE0000
0007FE0000
0007FE0000
0007FE0000
0007FE0000
0007FE0000
0007FE0000
0007FE0000
0007FE0000
0000000000
0000000000
0000000000
0000000000
7FFFFFFFC0
7FFFFFFFC0
7FFFFFFFC0
7FFFFFFFC0
7FFFFFFFC0
7FFFFFFFC0
7FFFFFFFC0
7FFFFFFFC0
7FFFFFFFC0
ENDCHAR
STARTCHAR 00B2
ENCODING 178
SWIDTH 360 0
DWIDTH 28 0
BBX 24 31 2 25
BITMAP
007E00
03FFC0
0FFFF0
1FFFF8
3FFFFC
3FFFFE
7FE7FE
7F81FE
FF00FE
FF00FE
FF01FE
0001FE
0001FE
0003FE
0007FC
000FF8
001FF0
003FE0
007FC0
00FF80
03FF00
07FE00
0FF800
1FF000
3FE000
7FFFFF
7FFFFF
7FFFFF
7FFFFF
7FFFFF
7FFFFF
ENDCHAR
STARTCHAR 00B3
ENCODING 179
SWIDTH 360 0
DWIDTH 28 0
BBX 24 31 2 25
BITMAP
007E00
03FFE0
0FFFF8
1FFFFC
3FFFFE
7FFFFE
7FE7FE
FF81FF
FF00FF
0000FF
0000FF
0001FE
0003FE
00FFFC
00FFF0
00FFE0
00FFF8
00FFFE
0001FE
0000FF
0000FF
00007F
FF00FF
FF00FF
FFC1FF
7FFFFF
7FFFFE
3FFFFC
1FFFF8
07FFE0
01FF80
ENDCHAR
STARTCHAR 00B4
ENCODING 180
SWIDTH 321 0
DWIDTH 25 0
BBX 19 11 4 47
BITMAP
01FFE0
03FFC0
07FF80
07FF00
0FFE00
0FFC00
1FF800
3FF000
3FE000
7FC000
FFC000
ENDCHAR
STARTCHAR 00B5
ENCODING 181
SWIDTH 617 0
DWIDTH 48 0
BBX 37 57 5 -16
BITMAP
FFE0003FF8
FFE0003FF8
FFE0003FF8
FFE0003FF8
FFE0003FF8
FFE0003FF8
FFE0003FF8
FFE0003FF8
FFE0003FF8
FFE0003FF8
FFE0003FF8
FFE0003FF8
FFE0003FF8
FFE0003FF8
FFE0003FF8
FFE0003FF8
FFE0003FF8
FFE0003FF8
FFE0003FF8
FFE0003FF8
FFE0003FF8
FFE0003FF8
FFE0003FF8
FFE0003FF8
FFE0003FF8
FFE0003FF8
FFE0003FF8
FFF0003FF8
FFF0003FF8
FFF0003FF8
FFF8007FF8
FFF800FFF8
FFFE03FFF8
FFFFFFFFF8
FFFFFFFFF8
FFFFFFFFF8
FFFFFFFFF8
FFFFFFFFF8
FFFFFFDFF8
FFFFFF9FF8
FFEFFF1FF8
FFE1F80000
FFE0000000
FFE0000000
FFE0000000
FFE0000000
FFE0000000
FFE0000000
FFE0000000
FFE0000000
FFE0000000
FFE0000000
FFE0000000
FFE0000000
FFE0000000
FFE0000000
FFE0000000
ENDCHAR
STARTCHAR 00B6
ENCODING 182
SWIDTH 488 0
DWIDTH 38 0
BBX 30 55 3 0
BITMAP
000FFFFC
007FFFFC
00FFFFFC
03FFFFFC
07FFFFFC
0FFFFFFC
1FFFFFFC
1FFFFFFC
3FFFFFFC
7FFFFFFC
7FFFFFFC
7FFFFFFC
FFFFFFFC
FFFFFFFC
FFFFFFFC
FFFFFFFC
FFFFFFFC
FFFFFFFC
FFFFFFFC
FFFFFFFC
FFFFFFFC
FFFFFFFC
FFFFFFFC
7FFFFFFC
7FFFFFFC
7FFFFFFC
3FFFFFFC
1FFFFFFC
1FFFFFFC
0FFFFFFC
07FFFFFC
03FFFFFC
00FFFFFC
007FFFFC
000FFFFC
000003FC
000003FC
000003FC
000003FC
000003FC
000003FC
000003FC
000003FC
000003FC
000003FC
000003FC
000003FC
000003FC
000003FC
000003FC
000003FC
000003FC
000003FC
000003FC
000003FC
ENDCHAR
STARTCHAR 00B7
ENCODING 183
SWIDTH 295 0
DWIDTH 23 0
BBX 13 11 5 21
BITMAP
1FC0
3FE0
7FF0
7FF0
FFF8
FFF8
FFF8
7FF0
7FF0
3FE0
1FC0
ENDCHAR
STARTCHAR 00B8
ENCODING 184
SWIDTH 257 0
DWIDTH 20 0
BBX 14 17 4 -17
BITMAP
7F80
FF80
FFC0
FFF0
FFF8
3FFC
07FC
07FC
07FC
07FC
0FFC
7FFC
7FF8
7FF8
7FF0
7FC0
7F00
ENDCHAR
STARTCHAR 00B9
ENCODING 185
SWIDTH 360 0
DWIDTH 28 0
BBX 15 30 5 25
BITMAP
000E
007E
03FE
1FFE
FFFE
FFFE
FFFE
FFFE
FFFE
E1FE
01FE
01FE
01FE
01FE
01FE
01FE
01FE
01FE
01FE
01FE
01FE
01FE
01FE
01FE
01FE
01FE
01FE
01FE
01FE
01FE
ENDCHAR
STARTCHAR 00BA
ENCODING 186
SWIDTH 450 0
DWIDTH 35 0
BBX 26 30 5 26
BITMAP
00FF8000
03FFE000
0FFFF800
1FFFFC00
3FFFFE00
3FF7FF00
7F80FF00
7F007F80
FE003F80
FE001F80
FC001FC0
FC001FC0
FC001FC0
FC001FC0
FC001FC0
FC001FC0
FC001FC0
FC001FC0
FC001FC0
FC001F80
FE001F80
FE003F80
7F007F80
7F80FF00
3FFFFE00
1FFFFE00
0FFFFC00
07FFF800
03FFE000
003E0000
ENDCHAR
STARTCHAR 00BB
ENCODING 187
SWIDTH 488 0
DWIDTH 38 0
BBX 32 30 4 5
BITMAP
FE01FC00
FF01FC00
7F00FE00
7F80FF00
3FC07F80
1FC03F80
1FE03FC0
0FF01FE0
0FF81FE0
07F80FF0
03FC07F8
03FE07FC
01FE03FC
01FF03FE
00FF81FF
00FF81FF
01FF03FE
01FE03FC
03FE07FC
03FC07F8
07F80FF0
0FF81FE0
0FF01FE0
1FE03FC0
1FC03F80
3FC07F80
7F80FF00
7F00FE00
FF01FC00
FE01FC00
ENDCHAR
STARTCHAR 00BC
ENCODING 188
SWIDTH 707 0
DWIDTH 55 0
BBX 49 55 4 0
BITMAP
000E0000000000
007E0000000000
03FE0000000000
1FFE0000000000
FFFE0000000000
FFFE0000380000
FFFE00003E0000
FFFE00007F0000
FFFE00007F0000
F1FE0000FE0000
01FE0001FC0000
01FE0001FC0000
01FE0003F80000
01FE0007F00000
01FE0007F00000
01FE000FE00000
01FE000FE00000
01FE001FC00000
01FE003F800000
01FE003F800000
01FE007F000000
01FE00FE000000
01FE00FE000000
01FE01FC000000
01FE01FC000000
01FE03F807F800
01FE07F00FF800
01FE07F00FF800
01FE0FE01FF800
01FE1FC03FF800
00001FC03FF800
00003F807FF800
00003F80FFF800
00007F01FFF800
0000FE01FBF800
0000FE03FBF800
0001FC07F3F800
0003F807E3F800
0003F80FE3F800
0007F01FC3F800
0007F03F83F800
000FE03F03F800
001FC07E03F800
001FC0FFFFFF80
003F80FFFFFF80
007F00FFFFFF80
007F00FFFFFF80
00FE00FFFFFF80
007E00FFFFFF80
001C000003F800
0000000003F800
0000000003F800
0000000003F800
0000000003F800
0000000003F800
ENDCHAR
STARTCHAR 00BD
ENCODING 189
SWIDTH 758 0
DWIDTH 59 0
BBX 53 55 3 0
BITMAP
000E0000000000
007E0000000000
03FE0000000000
1FFE0000000000
FFFE0000000000
FFFE0000300000
FFFE00007C0000
FFFE00007F0000
FFFE0000FE0000
E1FE0001FC0000
01FE0001FC0000
01FE0003F80000
01FE0007F80000
01FE0007F00000
01FE000FE00000
01FE000FE00000
01FE001FC00000
01FE003F800000
01FE003F800000
01FE007F000000
01FE00FF000000
01FE00FE000000
01FE01FC000000
01FE01FC000000
01FE03F8000000
01FE07F01FFC00
01FE07F07FFF00
01FE0FE0FFFFC0
01FE1FE1FFFFC0
01FE1FC3FFFFE0
00003F83FFFFF0
00003F87FC1FF0
00007F07F80FF0
0000FE07F80FF0
0000FE07F80FF0
0001FC00000FF0
0003FC00001FF0
0003F800001FE0
0007F000003FE0
0007F000007FC0
000FE00000FF80
001FC00001FF00
001FC00003FE00
003F800007FC00
007F80001FF800
007F00003FF000
00FE00007FE000
00FE0000FF8000
007C0001FF0000
00180003FFFFF8
00000007FFFFF8
00000007FFFFF8
00000007FFFFF8
00000007FFFFF8
00000007FFFFF8
ENDCHAR
STARTCHAR 00BE
ENCODING 190
SWIDTH 797 0
DWIDTH 62 0
BBX 55 56 4 0
BITMAP
007E0000000000
07FFC000000000
1FFFF000000000
3FFFF800000000
7FFFFC00000000
7FFFFE00000000
FFC7FE00006000
FF01FE0000F800
FF00FF0001FC00
0000FF0001FC00
0000FE0003F800
0001FE0003F800
0007FC0007F000
00FFF8000FE000
00FFF0000FE000
00FFE0001FC000
00FFF8003F8000
00FFFC003F8000
0001FE007F0000
0000FF007F0000
0000FF00FE0000
0000FF01FC0000
FE00FF01FC0000
FF00FF03F80000
FFC3FF07F00000
FFFFFE07F00000
7FFFFE0FE01FF0
3FFFFC0FE01FF0
1FFFF81FC03FF0
0FFFE03F807FF0
01FF803F807FF0
0000007F00FFF0
000000FE01FFF0
000000FE03FFF0
000001FC03FFF0
000001FC07FFF0
000003F80FEFF0
000007F01FCFF0
000007F01F8FF0
00000FE03F8FF0
00001FC07F0FF0
00001FC07E0FF0
00003F80FC0FF0
00003F81FC0FF0
00007F03FFFFFE
0000FE03FFFFFE
0000FE03FFFFFE
0001FC03FFFFFE
0003F801FFFFFE
0000F801FFFFFE
00003000000FF0
00001000000FF0
00000000000FF0
00000000000FF0
00000000000FF0
00000000000FF0
ENDCHAR
STARTCHAR 00BF
ENCODING 191
SWIDTH 488 0
DWIDTH 38 0
BBX 34 57 3 -15
BITMAP
0001F00000
0007FC0000
000FFE0000
000FFE0000
000FFF0000
001FFF0000
001FFF0000
000FFF0000
000FFE0000
0007FC0000
0003F80000
0000000000
0000000000
0000000000
0000000000
0000000000
0000000000
0007FC0000
0007FC0000
0007FC0000
000FFC0000
000FFC0000
000FFC0000
001FFC0000
001FFC0000
003FF80000
007FF80000
00FFF00000
01FFF00000
03FFE00000
07FFC00000
0FFF800000
1FFF000000
3FFE000000
3FFC000000
7FF8000000
7FF0000000
FFF0000000
FFE0000000
FFE0000000
FFE0000000
FFE001FFC0
FFE001FFC0
FFE001FFC0
FFE003FFC0
FFF003FF80
FFF007FF80
7FFC1FFF80
7FFFFFFF00
7FFFFFFF00
3FFFFFFE00
1FFFFFFC00
0FFFFFF800
07FFFFF000
01FFFFC000
007FFF0000
0001D00000
ENDCHAR
STARTCHAR 00C0
ENCODING 192
SWIDTH 668 0
DWIDTH 52 0
BBX 52 70 0 0
BITMAP
0007FF80000000
0003FF80000000
0001FFC0000000
0001FFC0000000
0000FFE0000000
00007FF0000000
00003FF0000000
00001FF8000000
00000FFC000000
000007FC000000
000003FE000000
000001FF000000
00000000000000
00000000000000
00000000000000
000007FF000000
00000FFF000000
00000FFF000000
00001FFF800000
00001FFF800000
00001FFFC00000
00003FFFC00000
00003FFFC00000
00003FFFE00000
00007FFFE00000
00007FFFE00000
0000FFFFF00000
0000FFFFF00000
0000FFFFF80000
0001FFDFF80000
0001FF9FF80000
0001FF9FFC0000
0003FF8FFC0000
0003FF0FFC0000
0007FF0FFE0000
0007FF07FE0000
0007FE07FF0000
000FFE07FF0000
000FFE03FF0000
000FFC03FF8000
001FFC03FF8000
001FFC01FF8000
003FF801FFC000
003FF801FFC000
003FF800FFE000
007FF000FFE000
007FF000FFE000
007FF0007FF000
00FFE0007FF000
00FFFFFFFFF000
01FFFFFFFFF800
01FFFFFFFFF800
01FFFFFFFFFC00
03FFFFFFFFFC00
03FFFFFFFFFC00
03FFFFFFFFFE00
07FFFFFFFFFE00
07FFFFFFFFFE00
07FF00000FFF00
0FFF00000FFF00
0FFF000007FF80
1FFE000007FF80
1FFE000007FF80
1FFE000003FFC0
3FFC000003FFC0
3FFC000003FFC0
3FFC000001FFE0
7FF8000001FFE0
7FF8000001FFF0
FFF8000000FFF0
ENDCHAR
STARTCHAR 00C1
ENCODING 193
SWIDTH 668 0
DWIDTH 52 0
BBX 52 70 0 0
BITMAP
0000000FFF0000
0000001FFE0000
0000001FFC0000
0000003FF80000
0000007FF00000
0000007FE00000
000000FFC00000
000000FFC00000
000001FF800000
000003FF000000
000003FE000000
000007FC000000
00000000000000
00000000000000
00000000000000
000007FF000000
00000FFF000000
00000FFF000000
00001FFF800000
00001FFF800000
00001FFFC00000
00003FFFC00000
00003FFFC00000
00003FFFE00000
00007FFFE00000
00007FFFE00000
0000FFFFF00000
0000FFFFF00000
0000FFFFF80000
0001FFDFF80000
0001FF9FF80000
0001FF9FFC0000
0003FF8FFC0000
0003FF0FFC0000
0007FF0FFE0000
0007FF07FE0000
0007FE07FF0000
000FFE07FF0000
000FFE03FF0000
000FFC03FF8000
001FFC03FF8000
001FFC01FF8000
003FF801FFC000
003FF801FFC000
003FF800FFE000
007FF000FFE000
007FF000FFE000
007FF0007FF000
00FFE0007FF000
00FFFFFFFFF000
01FFFFFFFFF800
01FFFFFFFFF800
01FFFFFFFFFC00
03FFFFFFFFFC00
03FFFFFFFFFC00
03FFFFFFFFFE00
07FFFFFFFFFE00
07FFFFFFFFFE00
07FF00000FFF00
0FFF00000FFF00
0FFF000007FF80
1FFE000007FF80
1FFE000007FF80
1FFE000003FFC0
3FFC000003FFC0
3FFC000003FFC0
3FFC000001FFE0
7FF8000001FFE0
7FF8000001FFF0
FFF8000000FFF0
ENDCHAR
STARTCHAR 00C2
ENCODING 194
SWIDTH 668 0
DWIDTH 52 0
BBX 52 70 0 0
BITMAP
000003FC000000
000007FE000000
00000FFF000000
00001FFF800000
00003FFFC00000
00007FFFE00000
0000FF9FF80000
0001FF0FFC0000
0003FE03FE0000
0007FC01FF0000
000FF800FF8000
00000000000000
00000000000000
00000000000000
00000000000000
000007FF000000
00000FFF000000
00000FFF000000
00001FFF800000
00001FFF800000
00001FFFC00000
00003FFFC00000
00003FFFC00000
00003FFFE00000
00007FFFE00000
00007FFFE00000
0000FFFFF00000
0000FFFFF00000
0000FFFFF80000
0001FFDFF80000
0001FF9FF80000
0001FF9FFC0000
0003FF8FFC0000
0003FF0FFC0000
0007FF0FFE0000
0007FF07FE0000
0007FE07FF0000
000FFE07FF0000
000FFE03FF0000
000FFC03FF8000
001FFC03FF8000
001FFC01FF8000
003FF801FFC000
003FF801FFC000
003FF800FFE000
007FF000FFE000
007FF000FFE000
007FF0007FF000
00FFE0007FF000
00FFFFFFFFF000
01FFFFFFFFF800
01FFFFFFFFF800
01FFFFFFFFFC00
03FFFFFFFFFC00
03FFFFFFFFFC00
03FFFFFFFFFE00
07FFFFFFFFFE00
07FFFFFFFFFE00
07FF00000FFF00
0FFF00000FFF00
0FFF000007FF80
1FFE000007FF80
1FFE000007FF80
1FFE000003FFC0
3FFC000003FFC0
3FFC000003FFC0
3FFC000001FFE0
7FF8000001FFE0
7FF8000001FFF0
FFF8000000FFF0
ENDCHAR
STARTCHAR 00C3
ENCODING 195
SWIDTH 668 0
DWIDTH 52 0
BBX 52 70 0 0
BITMAP
000008003F0000
00007F803F0000
0001FFE07F0000
0003FFF8FF0000
0003FFFFFF0000
0007FFFFFE0000
0007FFFFFE0000
000FF0FFFC0000
000FE03FF80000
000FC00FF00000
000FC000000000
00000000000000
00000000000000
00000000000000
00000000000000
000007FF000000
00000FFF000000
00000FFF000000
00001FFF800000
00001FFF800000
00001FFFC00000
00003FFFC00000
00003FFFC00000
00003FFFE00000
00007FFFE00000
00007FFFE00000
0000FFFFF00000
0000FFFFF00000
0000FFFFF80000
0001FFDFF80000
0001FF9FF80000
0001FF9FFC0000
0003FF8FFC0000
0003FF0FFC0000
0007FF0FFE0000
0007FF07FE0000
0007FE07FF0000
000FFE07FF0000
000FFE03FF0000
000FFC03FF8000
001FFC03FF8000
001FFC01FF8000
003FF801FFC000
003FF801FFC000
003FF800FFE000
007FF000FFE000
007FF000FFE000
007FF0007FF000
00FFE0007FF000
00FFFFFFFFF000
01FFFFFFFFF800
01FFFFFFFFF800
01FFFFFFFFFC00
03FFFFFFFFFC00
03FFFFFFFFFC00
03FFFFFFFFFE00
07FFFFFFFFFE00
07FFFFFFFFFE00
07FF00000FFF00
0FFF00000FFF00
0FFF000007FF80
1FFE000007FF80
1FFE000007FF80
1FFE000003FFC0
3FFC000003FFC0
3FFC000003FFC0
3FFC000001FFE0
7FF8000001FFE0
7FF8000001FFF0
FFF8000000FFF0
ENDCHAR
STARTCHAR 00C4
ENCODING 196
SWIDTH 668 0
DWIDTH 52 0
BBX 52 68 0 0
BITMAP
0003F000FE0000
0007F801FF0000
000FFC01FF0000
000FFC03FF8000
000FFC03FF8000
000FFC03FF8000
000FFC01FF0000
0007F800FE0000
0003E0007C0000
00000000000000
00000000000000
00000000000000
00000000000000
000007FF000000
00000FFF000000
00000FFF000000
00001FFF800000
00001FFF800000
00001FFFC00000
00003FFFC00000
00003FFFC00000
00003FFFE00000
00007FFFE00000
00007FFFE00000
0000FFFFF00000
0000FFFFF00000
0000FFFFF80000
0001FFDFF80000
0001FF9FF80000
0001FF9FFC0000
0003FF8FFC0000
0003FF0FFC0000
0007FF0FFE0000
0007FF07FE0000
0007FE07FF0000
000FFE07FF0000
000FFE03FF0000
000FFC03FF8000
001FFC03FF8000
001FFC01FF8000
003FF801FFC000
003FF801FFC000
003FF800FFE000
007FF000FFE000
007FF000FFE000
007FF0007FF000
00FFE0007FF000
00FFFFFFFFF000
01FFFFFFFFF800
01FFFFFFFFF800
01FFFFFFFFFC00
03FFFFFFFFFC00
03FFFFFFFFFC00
03FFFFFFFFFE00
07FFFFFFFFFE00
07FFFFFFFFFE00
07FF00000FFF00
0FFF00000FFF00
0FFF000007FF80
1FFE000007FF80
1FFE000007FF80
1FFE000003FFC0
3FFC000003FFC0
3FFC000003FFC0
3FFC000001FFE0
7FF8000001FFE0
7FF8000001FFF0
FFF8000000FFF0
ENDCHAR
STARTCHAR 00C5
ENCODING 197
SWIDTH 668 0
DWIDTH 52 0
BBX 52 74 0 0
BITMAP
00000020000000
000003FE000000
000007FF000000
00000FFF800000
00001F0FC00000
00003E07C00000
00003E03C00000
00003C03E00000
00003C03E00000
00003C03E00000
00003E03C00000
00001F07C00000
00001FFF800000
00000FFF800000
000007FE000000
000001F8000000
00000000000000
00000000000000
00000000000000
000007FF000000
00000FFF000000
00000FFF000000
00001FFF800000
00001FFF800000
00001FFFC00000
00003FFFC00000
00003FFFC00000
00003FFFE00000
00007FFFE00000
00007FFFE00000
0000FFFFF00000
0000FFFFF00000
0000FFFFF80000
0001FFDFF80000
0001FF9FF80000
0001FF9FFC0000
0003FF8FFC0000
0003FF0FFC0000
0007FF0FFE0000
0007FF07FE0000
0007FE07FF0000
000FFE07FF0000
000FFE03FF0000
000FFC03FF8000
001FFC03FF8000
001FFC01FF8000
003FF801FFC000
003FF801FFC000
003FF800FFE000
007FF000FFE000
007FF000FFE000
007FF0007FF000
00FFE0007FF000
00FFFFFFFFF000
01FFFFFFFFF800
01FFFFFFFFF800
01FFFFFFFFFC00
03FFFFFFFFFC00
03FFFFFFFFFC00
03FFFFFFFFFE00
07FFFFFFFFFE00
07FFFFFFFFFE00
07FF00000FFF00
0FFF00000FFF00
0FFF000007FF80
1FFE000007FF80
1FFE000007FF80
1FFE000003FFC0
3FFC000003FFC0
3FFC000003FFC0
3FFC000001FFE0
7FF8000001FFE0
7FF8000001FFF0
FFF8000000FFF0
ENDCHAR
STARTCHAR 00C6
ENCODING 198
SWIDTH 938 0
DWIDTH 73 0
BBX 71 55 0 0
BITMAP
00000007FFFFFFFFF0
00000007FFFFFFFFF0
0000000FFFFFFFFFF0
0000000FFFFFFFFFF0
0000001FFFFFFFFFF0
0000001FFFFFFFFFF0
0000003FFFFFFFFFF0
0000003FFFFFFFFFF0
0000007FFFFC000000
0000007FFFFC000000
000000FFFFFC000000
000000FFFFFC000000
000001FFDFFC000000
000003FFDFFC000000
000003FF9FFC000000
000007FF9FFC000000
000007FF1FFC000000
00000FFF1FFC000000
00000FFE1FFC000000
00001FFE1FFC000000
00001FFC1FFC000000
00003FFC1FFC000000
00003FF81FFFFFFF80
00007FF81FFFFFFF80
00007FF01FFFFFFF80
0000FFF00FFFFFFF80
0000FFE00FFFFFFF80
0001FFE00FFFFFFF80
0003FFC00FFFFFFF80
0003FFC00FFFFFFF80
0007FF800FFFFFFF80
0007FF800FFE000000
000FFF000FFE000000
000FFFFFFFFE000000
001FFFFFFFFE000000
001FFFFFFFFE000000
003FFFFFFFFE000000
003FFFFFFFFE000000
007FFFFFFFFE000000
007FFFFFFFFE000000
00FFFFFFFFFE000000
01FFFFFFFFFE000000
01FFE0000FFE000000
03FFE0000FFE000000
03FFC0000FFE000000
07FFC0000FFE000000
07FF80000FFFFFFFFE
0FFF80000FFFFFFFFE
0FFF00000FFFFFFFFE
1FFF000007FFFFFFFE
1FFE000007FFFFFFFE
3FFE000007FFFFFFFE
3FFC000007FFFFFFFE
7FFC000007FFFFFFFE
FFF8000007FFFFFFFE
ENDCHAR
STARTCHAR 00C7
ENCODING 199
SWIDTH 642 0
DWIDTH 50 0
BBX 45 74 3 -18
BITMAP
00003FF80000
0003FFFF8000
000FFFFFE000
001FFFFFF800
007FFFFFFC00
00FFFFFFFE00
01FFFFFFFF00
03FFFFFFFF80
07FFFFFFFFC0
07FFE00FFFC0
0FFF8003FFE0
0FFF0001FFE0
1FFE0000FFF0
1FFC00007FF0
3FFC00007FF0
3FF800007FF8
3FF800003FF8
7FF800003FF8
7FF800003FF8
7FF000000000
7FF000000000
7FF000000000
FFF000000000
FFF000000000
FFF000000000
FFF000000000
FFF000000000
FFF000000000
FFF000000000
FFF000000000
FFF000000000
FFF000000000
FFF000000000
FFF000000000
FFF000000000
7FF000000000
7FF000000000
7FF000000000
7FF800003FF8
7FF800003FF8
3FF800003FF8
3FF800007FF8
3FFC00007FF8
1FFE0000FFF0
1FFE0000FFF0
0FFF0001FFE0
0FFFC007FFE0
07FFF03FFFC0
07FFFFFFFFC0
03FFFFFFFF80
01FFFFFFFF00
00FFFFFFFE00
007FFFFFFC00
001FFFFFF000
0007FFFFC000
0001FFFF0000
00001FF00000
00001FE00000
00003FF00000
00003FFC0000
00003FFE0000
00001FFF0000
000001FF0000
000001FF8000
000001FF8000
000001FF8000
000003FF0000
00001FFF0000
00001FFF0000
00001FFE0000
00001FFC0000
00001FF80000
00001FC00000
00001C000000
ENDCHAR
STARTCHAR 00C8
ENCODING 200
SWIDTH 552 0
DWIDTH 43 0
BBX 37 70 5 0
BITMAP
03FFC00000
01FFC00000
00FFE00000
007FE00000
007FF00000
003FF80000
001FF80000
000FFC0000
0007FE0000
0003FE0000
0001FF0000
0000000000
0000000000
0000000000
0000000000
FFFFFFFFF8
FFFFFFFFF8
FFFFFFFFF8
FFFFFFFFF8
FFFFFFFFF8
FFFFFFFFF8
FFFFFFFFF8
FFFFFFFFF8
FFFFFFFFF8
FFE0000000
FFE0000000
FFE0000000
FFE0000000
FFE0000000
FFE0000000
FFE0000000
FFE0000000
FFE0000000
FFE0000000
FFE0000000
FFE0000000
FFE0000000
FFFFFFFF80
FFFFFFFF80
FFFFFFFF80
FFFFFFFF80
FFFFFFFF80
FFFFFFFF80
FFFFFFFF80
FFFFFFFF80
FFFFFFFF80
FFE0000000
FFE0000000
FFE0000000
FFE0000000
FFE0000000
FFE0000000
FFE0000000
FFE0000000
FFE0000000
FFE0000000
FFE0000000
FFE0000000
FFE0000000
FFE0000000
FFE0000000
FFFFFFFFF8
FFFFFFFFF8
FFFFFFFFF8
FFFFFFFFF8
FFFFFFFFF8
FFFFFFFFF8
FFFFFFFFF8
FFFFFFFFF8
FFFFFFFFF8
ENDCHAR
STARTCHAR 00C9
ENCODING 201
SWIDTH 552 0
DWIDTH 43 0
BBX 37 70 5 0
BITMAP
000007FF80
00000FFF00
00000FFE00
00001FFC00
00003FF800
00003FF000
00007FE000
0000FFC000
0000FF8000
0001FF8000
0001FF0000
0002000000
0000000000
0000000000
0000000000
FFFFFFFFF8
FFFFFFFFF8
FFFFFFFFF8
FFFFFFFFF8
FFFFFFFFF8
FFFFFFFFF8
FFFFFFFFF8
FFFFFFFFF8
FFFFFFFFF8
FFE0000000
FFE0000000
FFE0000000
FFE0000000
FFE0000000
FFE0000000
FFE0000000
FFE0000000
FFE0000000
FFE0000000
FFE0000000
FFE0000000
FFE0000000
FFFFFFFF80
FFFFFFFF80
FFFFFFFF80
FFFFFFFF80
FFFFFFFF80
FFFFFFFF80
FFFFFFFF80
FFFFFFFF80
FFFFFFFF80
FFE0000000
FFE0000000
FFE0000000
FFE0000000
FFE0000000
FFE0000000
FFE0000000
FFE0000000
FFE0000000
FFE0000000
FFE0000000
FFE0000000
FFE0000000
FFE0000000
FFE0000000
FFFFFFFFF8
FFFFFFFFF8
FFFFFFFFF8
FFFFFFFFF8
FFFFFFFFF8
FFFFFFFFF8
FFFFFFFFF8
FFFFFFFFF8
FFFFFFFFF8
ENDCHAR
STARTCHAR 00CA
ENCODING 202
SWIDTH 552 0
DWIDTH 43 0
BBX 37 70 5 0
BITMAP
0001FE0000
0003FF0000
0007FF8000
000FFFC000
001FFFF000
003FFFF800
007FC7FC00
00FF83FE00
03FF01FF00
07FE00FF80
07FC007FC0
0000000000
0000000000
0000000000
0000000000
FFFFFFFFF8
FFFFFFFFF8
FFFFFFFFF8
FFFFFFFFF8
FFFFFFFFF8
FFFFFFFFF8
FFFFFFFFF8
FFFFFFFFF8
FFFFFFFFF8
FFE0000000
FFE0000000
FFE0000000
FFE0000000
FFE0000000
FFE0000000
FFE0000000
FFE0000000
FFE0000000
FFE0000000
FFE0000000
FFE0000000
FFE0000000
FFFFFFFF80
FFFFFFFF80
FFFFFFFF80
FFFFFFFF80
FFFFFFFF80
FFFFFFFF80
FFFFFFFF80
FFFFFFFF80
FFFFFFFF80
FFE0000000
FFE0000000
FFE0000000
FFE0000000
FFE0000000
FFE0000000
FFE0000000
FFE0000000
FFE0000000
FFE0000000
FFE0000000
FFE0000000
FFE0000000
FFE0000000
FFE0000000
FFFFFFFFF8
FFFFFFFFF8
FFFFFFFFF8
FFFFFFFFF8
FFFFFFFFF8
FFFFFFFFF8
FFFFFFFFF8
FFFFFFFFF8
FFFFFFFFF8
ENDCHAR
STARTCHAR 00CB
ENCODING 203
SWIDTH 552 0
DWIDTH 43 0
BBX 37 69 5 0
BITMAP
0040000800
03F8007F00
07FC00FF80
07FE00FF80
07FE01FFC0
07FE01FFC0
07FE01FF80
07FC00FF80
03FC007F00
00F0003E00
0000000000
0000000000
0000000000
0000000000
FFFFFFFFF8
FFFFFFFFF8
FFFFFFFFF8
FFFFFFFFF8
FFFFFFFFF8
FFFFFFFFF8
FFFFFFFFF8
FFFFFFFFF8
FFFFFFFFF8
FFE0000000
FFE0000000
FFE0000000
FFE0000000
FFE0000000
FFE0000000
FFE0000000
FFE0000000
FFE0000000
FFE0000000
FFE0000000
FFE0000000
FFE0000000
FFFFFFFF80
FFFFFFFF80
FFFFFFFF80
FFFFFFFF80
FFFFFFFF80
FFFFFFFF80
FFFFFFFF80
FFFFFFFF80
FFFFFFFF80
FFE0000000
FFE0000000
FFE0000000
FFE0000000
FFE0000000
FFE0000000
FFE0000000
FFE0000000
FFE0000000
FFE0000000
FFE0000000
FFE0000000
FFE0000000
FFE0000000
FFE0000000
FFFFFFFFF8
FFFFFFFFF8
FFFFFFFFF8
FFFFFFFFF8
FFFFFFFFF8
FFFFFFFFF8
FFFFFFFFF8
FFFFFFFFF8
FFFFFFFFF8
ENDCHAR
STARTCHAR 00CC
ENCODING 204
SWIDTH 282 0
DWIDTH 22 0
BBX 19 70 -2 0
BITMAP
FFF000
7FF000
3FF800
1FFC00
0FFC00
07FE00
07FF00
03FF00
01FF80
00FFC0
007FC0
000000
000000
000000
000000
00FFE0
00FFE0
00FFE0
00FFE0
00FFE0
00FFE0
00FFE0
00FFE0
00FFE0
00FFE0
00FFE0
00FFE0
00FFE0
00FFE0
00FFE0
00FFE0
00FFE0
00FFE0
00FFE0
00FFE0
00FFE0
00FFE0
00FFE0
00FFE0
00FFE0
00FFE0
00FFE0
00FFE0
00FFE0
00FFE0
00FFE0
00FFE0
00FFE0
00FFE0
00FFE0
00FFE0
00FFE0
00FFE0
00FFE0
00FFE0
00FFE0
00FFE0
00FFE0
00FFE0
00FFE0
00FFE0
00FFE0
00FFE0
00FFE0
00FFE0
00FFE0
00FFE0
00FFE0
00FFE0
00FFE0
ENDCHAR
STARTCHAR 00CD
ENCODING 205
SWIDTH 282 0
DWIDTH 22 0
BBX 19 70 6 0
BITMAP
01FFE0
03FFC0
03FF80
07FF00
07FE00
0FFC00
1FF800
1FF800
3FF000
7FE000
7FC000
000000
000000
000000
000000
FFE000
FFE000
FFE000
FFE000
FFE000
FFE000
FFE000
FFE000
FFE000
FFE000
FFE000
FFE000
FFE000
FFE000
FFE000
FFE000
FFE000
FFE000
FFE000
FFE000
FFE000
FFE000
FFE000
FFE000
FFE000
FFE000
FFE000
FFE000
FFE000
FFE000
FFE000
FFE000
FFE000
FFE000
FFE000
FFE000
FFE000
FFE000
FFE000
FFE000
FFE000
FFE000
FFE000
FFE000
FFE000
FFE000
FFE000
FFE000
FFE000
FFE000
FFE000
FFE000
FFE000
FFE000
FFE000
ENDCHAR
STARTCHAR 00CE
ENCODING 206
SWIDTH 282 0
DWIDTH 22 0
BBX 29 70 -3 0
BITMAP
003FC000
007FE000
00FFF800
01FFFC00
03FFFE00
07FDFF00
0FF8FF80
1FF07FC0
3FE03FE0
7FC01FF0
FF800FF8
00000000
00000000
00000000
00000000
007FF000
007FF000
007FF000
007FF000
007FF000
007FF000
007FF000
007FF000
007FF000
007FF000
007FF000
007FF000
007FF000
007FF000
007FF000
007FF000
007FF000
007FF000
007FF000
007FF000
007FF000
007FF000
007FF000
007FF000
007FF000
007FF000
007FF000
007FF000
007FF000
007FF000
007FF000
007FF000
007FF000
007FF000
007FF000
007FF000
007FF000
007FF000
007FF000
007FF000
007FF000
007FF000
007FF000
007FF000
007FF000
007FF000
007FF000
007FF000
007FF000
007FF000
007FF000
007FF000
007FF000
007FF000
007FF000
ENDCHAR
STARTCHAR 00CF
ENCODING 207
SWIDTH 282 0
DWIDTH 22 0
BBX 29 69 -3 0
BITMAP
0C000100
3F000FE0
7F801FF0
FFC01FF8
FFC03FF8
FFC03FF8
FFC01FF8
FFC01FF0
7F800FE0
1E0007C0
00000000
00000000
00000000
00000000
007FF000
007FF000
007FF000
007FF000
007FF000
007FF000
007FF000
007FF000
007FF000
007FF000
007FF000
007FF000
007FF000
007FF000
007FF000
007FF000
007FF000
007FF000
007FF000
007FF000
007FF000
007FF000
007FF000
007FF000
007FF000
007FF000
007FF000
007FF000
007FF000
007FF000
007FF000
007FF000
007FF000
007FF000
007FF000
007FF000
007FF000
007FF000
007FF000
007FF000
007FF000
007FF000
007FF000
007FF000
007FF000
007FF000
007FF000
007FF000
007FF000
007FF000
007FF000
007FF000
007FF000
007FF000
007FF000
ENDCHAR
STARTCHAR 00D0
ENCODING 208
SWIDTH 655 0
DWIDTH 51 0
BBX 48 55 0 0
BITMAP
03FFFFFC0000
03FFFFFF8000
03FFFFFFE000
03FFFFFFF800
03FFFFFFFE00
03FFFFFFFF00
03FFFFFFFF80
03FFFFFFFFC0
03FFFFFFFFE0
03FF800FFFE0
03FF8003FFF0
03FF8000FFF8
03FF80007FF8
03FF80003FFC
03FF80003FFC
03FF80001FFE
03FF80001FFE
03FF80000FFE
03FF80000FFF
03FF80000FFF
03FF80000FFF
03FF800007FF
03FF800007FF
03FF800007FF
FFFFFFE007FF
FFFFFFE007FF
FFFFFFE007FF
FFFFFFE007FF
FFFFFFE007FF
FFFFFFE007FF
FFFFFFE007FF
03FF800007FF
03FF800007FF
03FF80000FFF
03FF80000FFF
03FF80000FFF
03FF80000FFE
03FF80001FFE
03FF80001FFE
03FF80001FFE
03FF80003FFC
03FF80007FFC
03FF8000FFF8
03FF8001FFF8
03FF8003FFF0
03FF800FFFE0
03FFFFFFFFE0
03FFFFFFFFC0
03FFFFFFFF80
03FFFFFFFE00
03FFFFFFFC00
03FFFFFFF800
03FFFFFFE000
03FFFFFF0000
03FFFFF80000
ENDCHAR
STARTCHAR 00D1
ENCODING 209
SWIDTH 694 0
DWIDTH 54 0
BBX 45 70 5 0
BITMAP
00000001F800
0007F803F800
000FFE03F800
001FFF87F000
003FFFFFF000
007FFFFFF000
007FFFFFE000
007F0FFFE000
00FE03FFC000
00FE00FF0000
00FE00000000
000000000000
000000000000
000000000000
000000000000
FFF000003FF8
FFF000003FF8
FFF800003FF8
FFFC00003FF8
FFFC00003FF8
FFFE00003FF8
FFFE00003FF8
FFFF00003FF8
FFFF80003FF8
FFFF80003FF8
FFFFC0003FF8
FFFFC0003FF8
FFFFE0003FF8
FFFFF0003FF8
FFFFF0003FF8
FFFFF8003FF8
FFFFF8003FF8
FFFFFC003FF8
FFEFFE003FF8
FFEFFE003FF8
FFE7FF003FF8
FFE7FF003FF8
FFE3FF803FF8
FFE1FFC03FF8
FFE1FFC03FF8
FFE0FFE03FF8
FFE0FFE03FF8
FFE07FF03FF8
FFE03FF83FF8
FFE03FF83FF8
FFE01FFC3FF8
FFE01FFC3FF8
FFE00FFE3FF8
FFE007FF3FF8
FFE007FF3FF8
FFE003FFBFF8
FFE003FFBFF8
FFE001FFFFF8
FFE000FFFFF8
FFE000FFFFF8
FFE0007FFFF8
FFE0007FFFF8
FFE0003FFFF8
FFE0001FFFF8
FFE0001FFFF8
FFE0000FFFF8
FFE0000FFFF8
FFE00007FFF8
FFE00003FFF8
FFE00003FFF8
FFE00001FFF8
FFE00001FFF8
FFE00000FFF8
FFE000007FF8
FFE000007FF8
ENDCHAR
STARTCHAR 00D2
ENCODING 210
SWIDTH 681 0
DWIDTH 53 0
BBX 47 71 3 -1
BITMAP
003FFC000000
001FFE000000
000FFE000000
0007FF000000
0003FF800000
0001FF800000
0000FFC00000
00007FE00000
00007FE00000
00003FF00000
00001FF80000
00000FF80000
000000000000
000000000000
00003FF80000
0001FFFF8000
0007FFFFE000
001FFFFFF800
003FFFFFFC00
00FFFFFFFE00
01FFFFFFFF00
01FFFFFFFF80
03FFFFFFFFC0
07FFF01FFFE0
0FFFC007FFE0
0FFF8001FFF0
1FFF0000FFF0
1FFE00007FF8
3FFC00007FF8
3FFC00003FFC
3FF800003FFC
7FF800001FFC
7FF800001FFC
7FF800001FFE
7FF000001FFE
7FF000001FFE
FFF000000FFE
FFF000000FFE
FFF000000FFE
FFF000000FFE
FFF000000FFE
FFF000000FFE
FFF000000FFE
FFF000000FFE
FFF000000FFE
FFF000000FFE
FFF000000FFE
FFF000000FFE
7FF000000FFE
7FF000001FFE
7FF000001FFE
7FF800001FFE
7FF800001FFC
7FF800003FFC
3FFC00003FFC
3FFC00003FF8
1FFE00007FF8
1FFE0000FFF8
1FFF0000FFF0
0FFF8001FFF0
07FFE007FFE0
07FFFC3FFFC0
03FFFFFFFFC0
01FFFFFFFF80
00FFFFFFFF00
007FFFFFFE00
003FFFFFFC00
000FFFFFF000
0007FFFFC000
0000FFFF0000
000007E00000
ENDCHAR
STARTCHAR 00D3
ENCODING 211
SWIDTH 681 0
DWIDTH 53 0
BBX 47 71 3 -1
BITMAP
0000003FF800
0000007FF000
000000FFF000
000000FFE000
000001FFC000
000003FF8000
000003FF0000
000007FE0000
00000FFC0000
00000FF80000
00001FF00000
00001FF00000
000000000000
000000000000
00003FF80000
0001FFFF8000
0007FFFFE000
001FFFFFF800
003FFFFFFC00
00FFFFFFFE00
01FFFFFFFF00
01FFFFFFFF80
03FFFFFFFFC0
07FFF01FFFE0
0FFFC007FFE0
0FFF8001FFF0
1FFF0000FFF0
1FFE00007FF8
3FFC00007FF8
3FFC00003FFC
3FF800003FFC
7FF800001FFC
7FF800001FFC
7FF800001FFE
7FF000001FFE
7FF000001FFE
FFF000000FFE
FFF000000FFE
FFF000000FFE
FFF000000FFE
FFF000000FFE
FFF000000FFE
FFF000000FFE
FFF000000FFE
FFF000000FFE
FFF000000FFE
FFF000000FFE
FFF000000FFE
7FF000000FFE
7FF000001FFE
7FF000001FFE
7FF800001FFE
7FF800001FFC
7FF800003FFC
3FFC00003FFC
3FFC00003FF8
1FFE00007FF8
1FFE0000FFF8
1FFF0000FFF0
0FFF8001FFF0
07FFE007FFE0
07FFFC3FFFC0
03FFFFFFFFC0
01FFFFFFFF80
00FFFFFFFF00
007FFFFFFE00
003FFFFFFC00
000FFFFFF000
0007FFFFC000
0000FFFF0000
000007E00000
ENDCHAR
STARTCHAR 00D4
ENCODING 212
SWIDTH 681 0
DWIDTH 53 0
BBX 47 71 3 -1
BITMAP
00000FF00000
00001FF80000
00003FFC0000
00007FFE0000
0000FFFF0000
0003FFFF8000
0007FC7FC000
000FF83FE000
001FF01FF000
003FE00FF800
007FC007FC00
000000000000
000000000000
000000000000
00003FF80000
0001FFFF8000
0007FFFFE000
001FFFFFF800
003FFFFFFC00
00FFFFFFFE00
01FFFFFFFF00
01FFFFFFFF80
03FFFFFFFFC0
07FFF01FFFE0
0FFFC007FFE0
0FFF8001FFF0
1FFF0000FFF0
1FFE00007FF8
3FFC00007FF8
3FFC00003FFC
3FF800003FFC
7FF800001FFC
7FF800001FFC
7FF800001FFE
7FF000001FFE
7FF000001FFE
FFF000000FFE
FFF000000FFE
FFF000000FFE
FFF000000FFE
FFF000000FFE
FFF000000FFE
FFF000000FFE
FFF000000FFE
FFF000000FFE
FFF000000FFE
FFF000000FFE
FFF000000FFE
7FF000000FFE
7FF000001FFE
7FF000001FFE
7FF800001FFE
7FF800001FFC
7FF800003FFC
3FFC00003FFC
3FFC00003FF8
1FFE00007FF8
1FFE0000FFF8
1FFF0000FFF0
0FFF8001FFF0
07FFE007FFE0
07FFFC3FFFC0
03FFFFFFFFC0
01FFFFFFFF80
00FFFFFFFF00
007FFFFFFE00
003FFFFFFC00
000FFFFFF000
0007FFFFC000
0000FFFF0000
000007E00000
ENDCHAR
STARTCHAR 00D5
ENCODING 213
SWIDTH 681 0
DWIDTH 53 0
BBX 47 71 3 -1
BITMAP
00002000FC00
0003FC00FC00
0007FF01FC00
000FFFE3FC00
001FFFFFF800
001FFFFFF800
003FFFFFF000
003FC7FFF000
003F01FFE000
003F007F8000
007F00000000
000000000000
000000000000
000000000000
00003FF80000
0001FFFF8000
0007FFFFE000
001FFFFFF800
003FFFFFFC00
00FFFFFFFE00
01FFFFFFFF00
01FFFFFFFF80
03FFFFFFFFC0
07FFF01FFFE0
0FFFC007FFE0
0FFF8001FFF0
1FFF0000FFF0
1FFE00007FF8
3FFC00007FF8
3FFC00003FFC
3FF800003FFC
7FF800001FFC
7FF800001FFC
7FF800001FFE
7FF000001FFE
7FF000001FFE
FFF000000FFE
FFF000000FFE
FFF000000FFE
FFF000000FFE
FFF000000FFE
FFF000000FFE
FFF000000FFE
FFF000000FFE
FFF000000FFE
FFF000000FFE
FFF000000FFE
FFF000000FFE
7FF000000FFE
7FF000001FFE
7FF000001FFE
7FF800001FFE
7FF800001FFC
7FF800003FFC
3FFC00003FFC
3FFC00003FF8
1FFE00007FF8
1FFE0000FFF8
1FFF0000FFF0
0FFF8001FFF0
07FFE007FFE0
07FFFC3FFFC0
03FFFFFFFFC0
01FFFFFFFF80
00FFFFFFFF00
007FFFFFFE00
003FFFFFFC00
000FFFFFF000
0007FFFFC000
0000FFFF0000
000007E00000
ENDCHAR
STARTCHAR 00D6
ENCODING 214
SWIDTH 681 0
DWIDTH 53 0
BBX 47 69 3 -1
BITMAP
001FC003F000
003FE007F800
003FE00FFC00
007FF00FFC00
007FF00FFC00
007FE00FFC00
003FE00FFC00
001FC007F800
000F8001E000
000000000000
000000000000
000000000000
00003FF80000
0001FFFF8000
0007FFFFE000
001FFFFFF800
003FFFFFFC00
00FFFFFFFE00
01FFFFFFFF00
01FFFFFFFF80
03FFFFFFFFC0
07FFF01FFFE0
0FFFC007FFE0
0FFF8001FFF0
1FFF0000FFF0
1FFE00007FF8
3FFC00007FF8
3FFC00003FFC
3FF800003FFC
7FF800001FFC
7FF800001FFC
7FF800001FFE
7FF000001FFE
7FF000001FFE
FFF000000FFE
FFF000000FFE
FFF000000FFE
FFF000000FFE
FFF000000FFE
FFF000000FFE
FFF000000FFE
FFF000000FFE
FFF000000FFE
FFF000000FFE
FFF000000FFE
FFF000000FFE
7FF000000FFE
7FF000001FFE
7FF000001FFE
7FF800001FFE
7FF800001FFC
7FF800003FFC
3FFC00003FFC
3FFC00003FF8
1FFE00007FF8
1FFE0000FFF8
1FFF0000FFF0
0FFF8001FFF0
07FFE007FFE0
07FFFC3FFFC0
03FFFFFFFFC0
01FFFFFFFF80
00FFFFFFFF00
007FFFFFFE00
003FFFFFFC00
000FFFFFF000
0007FFFFC000
0000FFFF0000
000007E00000
ENDCHAR
STARTCHAR 00D7
ENCODING 215
SWIDTH 527 0
DWIDTH 41 0
BBX 35 36 3 8
BITMAP
0400000400
0E00000E00
1F00001F00
3F80003F80
7FC0007FC0
FFE000FFE0
FFF001FFE0
7FF803FFC0
3FFC07FF80
1FFE0FFF00
0FFF1FFE00
07FFBFFC00
03FFFFF800
01FFFFF000
00FFFFE000
007FFFC000
003FFF8000
001FFF0000
001FFF0000
003FFF8000
007FFFC000
00FFFFE000
01FFFFF000
03FFFFF800
07FFFFFC00
0FFFBFFE00
1FFF1FFF00
3FFE0FFF80
7FFC07FFC0
FFF803FFE0
FFF001FFE0
7FE000FFC0
3FC0007F80
1F80003F00
0F00001E00
0600000C00
ENDCHAR
STARTCHAR 00D8
ENCODING 216
SWIDTH 681 0
DWIDTH 53 0
BBX 47 62 4 -4
BITMAP
0000000003F8
0000000007F0
00003FF00FF0
0003FFFF0FE0
000FFFFFDFC0
003FFFFFFFC0
007FFFFFFF80
00FFFFFFFF80
01FFFFFFFF00
03FFFFFFFF00
07FFFFFFFF80
0FFFF03FFFC0
0FFF8007FFE0
1FFF0003FFE0
1FFE0007FFF0
3FFC0007FFF0
3FFC000FFFF0
7FF8000FFFF8
7FF8001FFFF8
7FF0003FFFF8
FFF0003FBFFC
FFF0007F3FFC
FFF0007F1FFC
FFE000FE1FFC
FFE001FE1FFC
FFE001FC1FFE
FFE003F81FFE
FFE003F81FFE
FFE007F01FFE
FFE007F01FFE
FFE00FE01FFE
FFE01FC01FFE
FFE01FC01FFE
FFE03F801FFE
FFE03F801FFE
FFE07F001FFC
FFE0FE001FFC
FFE0FE001FFC
FFF1FC001FFC
FFF1FC003FFC
7FF3F8003FFC
7FF7F8003FF8
7FFFF0007FF8
7FFFE0007FF8
3FFFE000FFF0
3FFFC000FFF0
1FFFC001FFF0
1FFF8003FFE0
0FFFC00FFFC0
07FFF87FFFC0
07FFFFFFFF80
03FFFFFFFF00
01FFFFFFFE00
03FFFFFFFC00
03FFFFFFF800
07FFFFFFE000
07F7FFFFC000
0FE1FFFE0000
1FE00FC00000
1FC000000000
3F8000000000
3F8000000000
ENDCHAR
STARTCHAR 00D9
ENCODING 217
SWIDTH 655 0
DWIDTH 51 0
BBX 43 71 4 -1
BITMAP
00FFF0000000
007FF0000000
003FF8000000
001FFC000000
000FFC000000
0007FE000000
0007FF000000
0003FF000000
0001FF800000
0000FFC00000
00007FC00000
00003FE00000
000000000000
000000000000
000000000000
FFF00001FFE0
FFF00001FFE0
FFF00001FFE0
FFF00001FFE0
FFF00001FFE0
FFF00001FFE0
FFF00001FFE0
FFF00001FFE0
FFF00001FFE0
FFF00001FFE0
FFF00001FFE0
FFF00001FFE0
FFF00001FFE0
FFF00001FFE0
FFF00001FFE0
FFF00001FFE0
FFF00001FFE0
FFF00001FFE0
FFF00001FFE0
FFF00001FFE0
FFF00001FFE0
FFF00001FFE0
FFF00001FFE0
FFF00001FFE0
FFF00001FFE0
FFF00001FFE0
FFF00001FFE0
FFF00001FFE0
FFF00001FFE0
FFF00001FFE0
FFF00001FFE0
FFF00001FFE0
FFF00001FFE0
FFF00001FFE0
FFF00001FFE0
FFF00001FFE0
FFF00001FFE0
FFF00001FFE0
7FF00001FFE0
7FF00001FFE0
7FF00001FFC0
7FF80001FFC0
7FF80003FFC0
3FFC0003FFC0
3FFE0007FF80
3FFF001FFF80
1FFFC07FFF00
1FFFFFFFFF00
0FFFFFFFFE00
07FFFFFFFC00
03FFFFFFF800
01FFFFFFF000
007FFFFFE000
003FFFFF8000
0007FFFC0000
00003FC00000
ENDCHAR
STARTCHAR 00DA
ENCODING 218
SWIDTH 655 0
DWIDTH 51 0
BBX 43 71 4 -1
BITMAP
000001FFE000
000001FFC000
000003FF8000
000007FF0000
000007FF0000
00000FFE0000
00000FFC0000
00001FF80000
00003FF00000
00003FE00000
00007FC00000
0000FF800000
000000000000
000000000000
000000000000
FFF00001FFE0
FFF00001FFE0
FFF00001FFE0
FFF00001FFE0
FFF00001FFE0
FFF00001FFE0
FFF00001FFE0
FFF00001FFE0
FFF00001FFE0
FFF00001FFE0
FFF00001FFE0
FFF00001FFE0
FFF00001FFE0
FFF00001FFE0
FFF00001FFE0
FFF00001FFE0
FFF00001FFE0
FFF00001FFE0
FFF00001FFE0
FFF00001FFE0
FFF00001FFE0
FFF00001FFE0
FFF00001FFE0
FFF00001FFE0
FFF00001FFE0
FFF00001FFE0
FFF00001FFE0
FFF00001FFE0
FFF00001FFE0
FFF00001FFE0
FFF00001FFE0
FFF00001FFE0
FFF00001FFE0
FFF00001FFE0
FFF00001FFE0
FFF00001FFE0
FFF00001FFE0
FFF00001FFE0
7FF00001FFE0
7FF00001FFE0
7FF00001FFC0
7FF80001FFC0
7FF80003FFC0
3FFC0003FFC0
3FFE0007FF80
3FFF001FFF80
1FFFC07FFF00
1FFFFFFFFF00
0FFFFFFFFE00
07FFFFFFFC00
03FFFFFFF800
01FFFFFFF000
007FFFFFE000
003FFFFF8000
0007FFFC0000
00003FC00000
ENDCHAR
STARTCHAR 00DB
ENCODING 219
SWIDTH 655 0
DWIDTH 51 0
BBX 43 71 4 -1
BITMAP
00003F800000
00007FC00000
0001FFF00000
0003FFF80000
0007FFFC0000
000FFBFE0000
001FF1FF0000
003FE0FF8000
007FC07FC000
00FF803FE000
01FF001FF000
000000000000
000000000000
000000000000
000000000000
FFF00001FFE0
FFF00001FFE0
FFF00001FFE0
FFF00001FFE0
FFF00001FFE0
FFF00001FFE0
FFF00001FFE0
FFF00001FFE0
FFF00001FFE0
FFF00001FFE0
FFF00001FFE0
FFF00001FFE0
FFF00001FFE0
FFF00001FFE0
FFF00001FFE0
FFF00001FFE0
FFF00001FFE0
FFF00001FFE0
FFF00001FFE0
FFF00001FFE0
FFF00001FFE0
FFF00001FFE0
FFF00001FFE0
FFF00001FFE0
FFF00001FFE0
FFF00001FFE0
FFF00001FFE0
FFF00001FFE0
FFF00001FFE0
FFF00001FFE0
FFF00001FFE0
FFF00001FFE0
FFF00001FFE0
FFF00001FFE0
FFF00001FFE0
FFF00001FFE0
FFF00001FFE0
FFF00001FFE0
7FF00001FFE0
7FF00001FFE0
7FF00001FFC0
7FF80001FFC0
7FF80003FFC0
3FFC0003FFC0
3FFE0007FF80
3FFF001FFF80
1FFFC07FFF00
1FFFFFFFFF00
0FFFFFFFFE00
07FFFFFFFC00
03FFFFFFF800
01FFFFFFF000
007FFFFFE000
003FFFFF8000
0007FFFC0000
00003FC00000
ENDCHAR
STARTCHAR 00DC
ENCODING 220
SWIDTH 655 0
DWIDTH 51 0
BBX 43 69 4 -1
BITMAP
007E000FC000
00FF001FE000
01FF803FF000
01FF803FF000
01FF803FF000
01FF803FF000
01FF803FE000
00FF001FE000
003E000F8000
000000000000
000000000000
000000000000
000000000000
FFF00001FFE0
FFF00001FFE0
FFF00001FFE0
FFF00001FFE0
FFF00001FFE0
FFF00001FFE0
FFF00001FFE0
FFF00001FFE0
FFF00001FFE0
FFF00001FFE0
FFF00001FFE0
FFF00001FFE0
FFF00001FFE0
FFF00001FFE0
FFF00001FFE0
FFF00001FFE0
FFF00001FFE0
FFF00001FFE0
FFF00001FFE0
FFF00001FFE0
FFF00001FFE0
FFF00001FFE0
FFF00001FFE0
FFF00001FFE0
FFF00001FFE0
FFF00001FFE0
FFF00001FFE0
FFF00001FFE0
FFF00001FFE0
FFF00001FFE0
FFF00001FFE0
FFF00001FFE0
FFF00001FFE0
FFF00001FFE0
FFF00001FFE0
FFF00001FFE0
FFF00001FFE0
FFF00001FFE0
7FF00001FFE0
7FF00001FFE0
7FF00001FFC0
7FF80001FFC0
7FF80003FFC0
3FFC0003FFC0
3FFE0007FF80
3FFF001FFF80
1FFFC07FFF00
1FFFFFFFFF00
0FFFFFFFFE00
07FFFFFFFC00
03FFFFFFF800
01FFFFFFF000
007FFFFFE000
003FFFFF8000
0007FFFC0000
00003FC00000
ENDCHAR
STARTCHAR 00DD
ENCODING 221
SWIDTH 617 0
DWIDTH 48 0
BBX 48 70 0 0
BITMAP
0000003FFC00
0000007FF800
0000007FF000
000000FFE000
000001FFC000
000001FF8000
000003FF0000
000003FE0000
000007FE0000
00000FFC0000
00000FF80000
00001FF00000
000000000000
000000000000
000000000000
FFF800001FFF
7FF800001FFE
3FFC00003FFE
3FFC00003FFC
1FFE00007FFC
1FFE00007FF8
0FFF0000FFF8
0FFF0000FFF0
07FF8000FFF0
07FF8001FFE0
03FF8001FFC0
03FFC003FFC0
01FFC003FF80
01FFE007FF80
00FFE007FF00
00FFF00FFF00
007FF00FFE00
007FF81FFE00
003FF81FFC00
003FFC1FFC00
001FFC3FF800
001FFE3FF800
000FFE7FF000
000FFE7FF000
0007FFFFE000
0007FFFFE000
0003FFFFC000
0003FFFFC000
0001FFFF8000
0000FFFF8000
0000FFFF0000
00007FFF0000
00007FFE0000
00003FFE0000
00003FFC0000
00003FFC0000
00003FFC0000
00003FFC0000
00003FFC0000
00003FFC0000
00003FFC0000
00003FFC0000
00003FFC0000
00003FFC0000
00003FFC0000
00003FFC0000
00003FFC0000
00003FFC0000
00003FFC0000
00003FFC0000
00003FFC0000
00003FFC0000
00003FFC0000
00003FFC0000
00003FFC0000
ENDCHAR
STARTCHAR 00DE
ENCODING 222
SWIDTH 604 0
DWIDTH 47 0
BBX 40 55 5 0
BITMAP
FFE0000000
FFE0000000
FFE0000000
FFE0000000
FFE0000000
FFE0000000
FFE0000000
FFE0000000
FFE0000000
FFE0000000
FFFFFFC000
FFFFFFF800
FFFFFFFE00
FFFFFFFF80
FFFFFFFFC0
FFFFFFFFE0
FFFFFFFFF0
FFFFFFFFF8
FFE00FFFFC
FFE0007FFC
FFE0003FFE
FFE0001FFE
FFE0000FFE
FFE0000FFF
FFE00007FF
FFE00007FF
FFE00007FF
FFE00007FF
FFE00007FF
FFE00007FF
FFE0000FFF
FFE0000FFE
FFE0001FFE
FFE0003FFE
FFE0007FFC
FFFFFFFFFC
FFFFFFFFF8
FFFFFFFFF0
FFFFFFFFE0
FFFFFFFFC0
FFFFFFFF80
FFFFFFFE00
FFFFFFF800
FFFFFF8000
FFE0000000
FFE0000000
FFE0000000
FFE0000000
FFE0000000
FFE0000000
FFE0000000
FFE0000000
FFE0000000
FFE0000000
FFE0000000
ENDCHAR
STARTCHAR 00DF
ENCODING 223
SWIDTH 630 0
DWIDTH 49 0
BBX 42 60 5 -1
BITMAP
000FFF000000
007FFFE00000
01FFFFF00000
03FFFFFC0000
07FFFFFE0000
0FFFFFFF0000
1FFFFFFF0000
3FFFFFFF8000
3FFF1FFF8000
7FFC07FFC000
7FF803FFC000
7FF001FFC000
7FF001FFC000
FFE001FFC000
FFE001FFC000
FFE001FFC000
FFE001FFC000
FFE001FFC000
FFE003FF8000
FFE003FF8000
FFE007FF8000
FFE007FF0000
FFE00FFE0000
FFE00FFE0000
FFE00FFE0000
FFE01FFC0000
FFE01FFC0000
FFE01FFC0000
FFE01FFC0000
FFE01FFE0000
FFE01FFE0000
FFE00FFF0000
FFE00FFF8000
FFE007FFC000
FFE007FFE000
FFE003FFF000
FFE001FFF800
FFE000FFFC00
FFE0007FFE00
FFE0001FFF00
FFE0000FFF00
FFE00007FF80
FFE00003FF80
FFE00003FF80
FFE00003FF80
FFE00001FFC0
FFE00001FFC0
FFE00003FF80
FFE00003FF80
FFE08007FF80
FFE0E00FFF80
FFE1FFFFFF80
FFE1FFFFFF00
FFE1FFFFFE00
FFE1FFFFFE00
FFE3FFFFFC00
FFE3FFFFF800
FFE3FFFFE000
FFE0FFFF8000
000007F00000
ENDCHAR
STARTCHAR 00E0
ENCODING 224
SWIDTH 527 0
DWIDTH 41 0
BBX 37 59 2 -1
BITMAP
07FF800000
01FFC00000
01FFE00000
00FFE00000
007FF00000
003FF80000
001FF80000
000FFC0000
0007FC0000
0003FE0000
0001FF0000
0000000000
0000000000
0000000000
0000000000
0000000000
0001FE0000
001FFFE000
007FFFF800
01FFFFFC00
03FFFFFF00
07FFFFFF80
0FFFFFFF80
1FFFFFFFC0
3FFF07FFC0
3FFC01FFE0
3FF801FFE0
3FF800FFE0
7FF000FFE0
000000FFE0
000000FFE0
000000FFE0
000000FFE0
0007FFFFE0
007FFFFFE0
01FFFFFFE0
07FFFFFFE0
0FFFFFFFE0
1FFFFFFFE0
3FFF80FFE0
3FFC00FFE0
7FF800FFE0
7FF000FFE0
7FF000FFE0
7FF000FFE0
7FE000FFE0
FFF000FFE0
7FF000FFE0
7FF001FFE0
7FF807FFE0
7FFF3FFFF0
3FFFFFFFF0
3FFFFFFFF0
1FFFFFFFF0
0FFFFFFFF0
07FFFF7FF0
03FFFC7FF8
00FFF03FF8
000F800000
ENDCHAR
STARTCHAR 00E1
ENCODING 225
SWIDTH 527 0
DWIDTH 41 0
BBX 37 59 2 -1
BITMAP
000007FF80
00000FFE00
00001FFC00
00001FFC00
00003FF800
00007FF000
00007FE000
0000FFC000
0001FF8000
0001FF0000
0003FE0000
0000000000
0000000000
0000000000
0000000000
0000000000
0001FE0000
001FFFE000
007FFFF800
01FFFFFC00
03FFFFFF00
07FFFFFF80
0FFFFFFF80
1FFFFFFFC0
3FFF07FFC0
3FFC01FFE0
3FF801FFE0
3FF800FFE0
7FF000FFE0
000000FFE0
000000FFE0
000000FFE0
000000FFE0
0007FFFFE0
007FFFFFE0
01FFFFFFE0
07FFFFFFE0
0FFFFFFFE0
1FFFFFFFE0
3FFF80FFE0
3FFC00FFE0
7FF800FFE0
7FF000FFE0
7FF000FFE0
7FF000FFE0
7FE000FFE0
FFF000FFE0
7FF000FFE0
7FF001FFE0
7FF807FFE0
7FFF3FFFF0
3FFFFFFFF0
3FFFFFFFF0
1FFFFFFFF0
0FFFFFFFF0
07FFFF7FF0
03FFFC7FF8
00FFF03FF8
000F800000
ENDCHAR
STARTCHAR 00E2
ENCODING 226
SWIDTH 527 0
DWIDTH 41 0
BBX 37 59 2 -1
BITMAP
0001FE0000
0003FF0000
0007FF8000
000FFFC000
003FFFE000
007FFFF000
00FF8FFC00
01FF07FE00
03FE01FF00
07FC00FF80
0FF8007FC0
0000000000
0000000000
0000000000
0000000000
0000000000
0001FE0000
001FFFE000
007FFFF800
01FFFFFC00
03FFFFFF00
07FFFFFF80
0FFFFFFF80
1FFFFFFFC0
3FFF07FFC0
3FFC01FFE0
3FF801FFE0
3FF800FFE0
7FF000FFE0
000000FFE0
000000FFE0
000000FFE0
000000FFE0
0007FFFFE0
007FFFFFE0
01FFFFFFE0
07FFFFFFE0
0FFFFFFFE0
1FFFFFFFE0
3FFF80FFE0
3FFC00FFE0
7FF800FFE0
7FF000FFE0
7FF000FFE0
7FF000FFE0
7FE000FFE0
FFF000FFE0
7FF000FFE0
7FF001FFE0
7FF807FFE0
7FFF3FFFF0
3FFFFFFFF0
3FFFFFFFF0
1FFFFFFFF0
0FFFFFFFF0
07FFFF7FF0
03FFFC7FF8
00FFF03FF8
000F800000
ENDCHAR
STARTCHAR 00E3
ENCODING 227
SWIDTH 527 0
DWIDTH 41 0
BBX 37 59 2 -1
BITMAP
001E001F80
007FC01F80
00FFF03F80
01FFFEFF80
03FFFFFF00
03FFFFFF00
07FFFFFE00
07F07FFE00
07E01FFC00
07E007F000
00E0000000
0000000000
0000000000
0000000000
0000000000
0000000000
0001FE0000
001FFFE000
007FFFF800
01FFFFFC00
03FFFFFF00
07FFFFFF80
0FFFFFFF80
1FFFFFFFC0
3FFF07FFC0
3FFC01FFE0
3FF801FFE0
3FF800FFE0
7FF000FFE0
000000FFE0
000000FFE0
000000FFE0
000000FFE0
0007FFFFE0
007FFFFFE0
01FFFFFFE0
07FFFFFFE0
0FFFFFFFE0
1FFFFFFFE0
3FFF80FFE0
3FFC00FFE0
7FF800FFE0
7FF000FFE0
7FF000FFE0
7FF000FFE0
7FE000FFE0
FFF000FFE0
7FF000FFE0
7FF001FFE0
7FF807FFE0
7FFF3FFFF0
3FFFFFFFF0
3FFFFFFFF0
1FFFFFFFF0
0FFFFFFFF0
07FFFF7FF0
03FFFC7FF8
00FFF03FF8
000F800000
ENDCHAR
STARTCHAR 00E4
ENCODING 228
SWIDTH 527 0
DWIDTH 41 0
BBX 37 58 2 -1
BITMAP
0060001800
03F8007F00
07FC00FF80
07FC01FF80
0FFE01FF80
0FFE01FF80
07FE01FF80
07FC00FF80
03F8007F00
00F0003C00
0000000000
0000000000
0000000000
0000000000
0000000000
0001FE0000
001FFFE000
007FFFF800
01FFFFFC00
03FFFFFF00
07FFFFFF80
0FFFFFFF80
1FFFFFFFC0
3FFF07FFC0
3FFC01FFE0
3FF801FFE0
3FF800FFE0
7FF000FFE0
000000FFE0
000000FFE0
000000FFE0
000000FFE0
0007FFFFE0
007FFFFFE0
01FFFFFFE0
07FFFFFFE0
0FFFFFFFE0
1FFFFFFFE0
3FFF80FFE0
3FFC00FFE0
7FF800FFE0
7FF000FFE0
7FF000FFE0
7FF000FFE0
7FE000FFE0
FFF000FFE0
7FF000FFE0
7FF001FFE0
7FF807FFE0
7FFF3FFFF0
3FFFFFFFF0
3FFFFFFFF0
1FFFFFFFF0
0FFFFFFFF0
07FFFF7FF0
03FFFC7FF8
00FFF03FF8
000F800000
ENDCHAR
STARTCHAR 00E5
ENCODING 229
SWIDTH 527 0
DWIDTH 41 0
BBX 37 63 2 -1
BITMAP
0000780000
0003FF0000
0007FF8000
000FFFC000
001F87C000
001F03E000
001E01E000
001E01E000
001E01E000
001E01E000
001F03E000
001F87E000
000FFFC000
0007FF8000
0003FF0000
0000780000
0000000000
0000000000
0000000000
0000000000
0001FE0000
001FFFE000
007FFFF800
01FFFFFC00
03FFFFFF00
07FFFFFF80
0FFFFFFF80
1FFFFFFFC0
3FFF07FFC0
3FFC01FFE0
3FF801FFE0
3FF800FFE0
7FF000FFE0
000000FFE0
000000FFE0
000000FFE0
000000FFE0
0007FFFFE0
007FFFFFE0
01FFFFFFE0
07FFFFFFE0
0FFFFFFFE0
1FFFFFFFE0
3FFF80FFE0
3FFC00FFE0
7FF800FFE0
7FF000FFE0
7FF000FFE0
7FF000FFE0
7FE000FFE0
FFF000FFE0
7FF000FFE0
7FF001FFE0
7FF807FFE0
7FFF3FFFF0
3FFFFFFFF0
3FFFFFFFF0
1FFFFFFFF0
0FFFFFFFF0
07FFFF7FF0
03FFFC7FF8
00FFF03FF8
000F800000
ENDCHAR
STARTCHAR 00E6
ENCODING 230
SWIDTH 835 0
DWIDTH 65 0
BBX 61 43 3 -1
BITMAP
0003FE0001FF0000
003FFFE00FFFE000
00FFFFF83FFFF800
03FFFFFCFFFFFC00
07FFFFFFFFFFFF00
0FFFFFFFFFFFFF00
1FFFFFFFFFFFFF80
3FFFFFFFFFFFFFC0
3FFFFFFFFFFFFFC0
7FFE03FFFF01FFE0
7FF801FFFC00FFE0
7FF000FFFC007FF0
7FF000FFF8007FF0
007000FFF0003FF0
0000007FF0003FF0
0000007FF0003FF8
0000007FF0003FF8
0001FFFFE0003FF8
007FFFFFFFFFFFF8
03FFFFFFFFFFFFF8
07FFFFFFFFFFFFF8
1FFFFFFFFFFFFFF8
3FFFFFFFFFFFFFF8
7FFFFFFFFFFFFFF8
7FFF007FFFFFFFF8
FFF8007FE0000000
FFF0007FF0000000
FFE0007FF0000000
FFE0007FF0000000
FFE0007FF8000000
FFC0007FF8000000
FFE0007FFC000080
FFE000FFFE000380
FFF003FFFF801FC0
FFFC0FFFFFFFFFC0
7FFFFFFFFFFFFFC0
7FFFFFFFFFFFFFE0
3FFFFFFBFFFFFFE0
1FFFFFF1FFFFFFE0
0FFFFFE0FFFFFF80
07FFFF803FFFFF00
01FFFE000FFFF800
000FE000007F8000
ENDCHAR
STARTCHAR 00E7
ENCODING 231
SWIDTH 514 0
DWIDTH 40 0
BBX 36 60 2 -18
BITMAP
0001FE0000
000FFFE000
003FFFF800
00FFFFFE00
01FFFFFF00
03FFFFFF80
07FFFFFFC0
0FFFFFFFC0
0FFFFFFFE0
1FFF01FFE0
1FFC00FFF0
3FF8007FF0
3FF8007FF0
7FF0003FF0
7FF0003FF0
7FF0003FF0
7FF0000000
7FF0000000
7FF0000000
7FE0000000
FFE0000000
FFE0000000
FFE0000000
7FE0000000
7FF0000000
7FF0000000
7FF0000000
7FF0000000
7FF0003FF0
7FF0003FF0
3FF8003FF0
3FF8007FF0
1FFC00FFF0
1FFF01FFE0
0FFFFFFFE0
0FFFFFFFC0
07FFFFFF80
03FFFFFF80
01FFFFFF00
00FFFFFC00
003FFFF800
000FFFE000
0001FE0000
0001FE0000
0001FF0000
0003FFC000
0003FFE000
0000FFF000
00001FF000
00001FF800
00001FF800
00001FF800
00003FF000
0001FFF000
0001FFF000
0001FFE000
0001FFC000
0001FF8000
0001FE0000
0001800000
ENDCHAR
STARTCHAR 00E8
ENCODING 232
SWIDTH 540 0
DWIDTH 42 0
BBX 37 59 3 -1
BITMAP
0FFF000000
07FF800000
03FF800000
01FFC00000
00FFE00000
007FE00000
003FF00000
001FF80000
000FF80000
000FFC0000
0007FE0000
0000000000
0000000000
0000000000
0000000000
0000000000
0001FE0000
001FFFC000
007FFFF800
00FFFFFC00
03FFFFFE00
07FFFFFF00
0FFFFFFF80
0FFFFFFFC0
1FFFFFFFC0
3FFE01FFE0
3FFC00FFE0
7FF8007FF0
7FF8007FF0
7FF0003FF0
FFF0003FF0
FFE0003FF8
FFE0003FF8
FFE0003FF8
FFFFFFFFF8
FFFFFFFFF8
FFFFFFFFF8
FFFFFFFFF8
FFFFFFFFF8
FFFFFFFFF8
FFFFFFFFF8
FFE0000000
FFE0000000
FFE0000000
FFF0000000
7FF0000000
7FF8000300
7FFC000780
3FFE001FC0
3FFF807FC0
1FFFFFFFE0
0FFFFFFFF0
07FFFFFFE0
03FFFFFFC0
01FFFFFF80
00FFFFFF00
003FFFFC00
000FFFF000
00007F0000
ENDCHAR
STARTCHAR 00E9
ENCODING 233
SWIDTH 540 0
DWIDTH 42 0
BBX 37 59 3 -1
BITMAP
00001FFE00
00001FFC00
00003FF800
00007FF000
00007FE000
0000FFE000
0000FFC000
0001FF8000
0003FF0000
0003FE0000
0007FC0000
0000000000
0000000000
0000000000
0000000000
0000000000
0001FE0000
001FFFC000
007FFFF800
00FFFFFC00
03FFFFFE00
07FFFFFF00
0FFFFFFF80
0FFFFFFFC0
1FFFFFFFC0
3FFE01FFE0
3FFC00FFE0
7FF8007FF0
7FF8007FF0
7FF0003FF0
FFF0003FF0
FFE0003FF8
FFE0003FF8
FFE0003FF8
FFFFFFFFF8
FFFFFFFFF8
FFFFFFFFF8
FFFFFFFFF8
FFFFFFFFF8
FFFFFFFFF8
FFFFFFFFF8
FFE0000000
FFE0000000
FFE0000000
FFF0000000
7FF0000000
7FF8000300
7FFC000780
3FFE001FC0
3FFF807FC0
1FFFFFFFE0
0FFFFFFFF0
07FFFFFFE0
03FFFFFFC0
01FFFFFF80
00FFFFFF00
003FFFFC00
000FFFF000
00007F0000
ENDCHAR
STARTCHAR 00EA
ENCODING 234
SWIDTH 540 0
DWIDTH 42 0
BBX 37 59 3 -1
BITMAP
0003FC0000
000FFE0000
001FFF0000
003FFF8000
007FFFC000
00FFBFE000
01FF1FF000
03FE0FF800
07FC07FE00
0FF803FF00
1FF001FF00
0000000000
0000000000
0000000000
0000000000
0000000000
0001FE0000
001FFFC000
007FFFF800
00FFFFFC00
03FFFFFE00
07FFFFFF00
0FFFFFFF80
0FFFFFFFC0
1FFFFFFFC0
3FFE01FFE0
3FFC00FFE0
7FF8007FF0
7FF8007FF0
7FF0003FF0
FFF0003FF0
FFE0003FF8
FFE0003FF8
FFE0003FF8
FFFFFFFFF8
FFFFFFFFF8
FFFFFFFFF8
FFFFFFFFF8
FFFFFFFFF8
FFFFFFFFF8
FFFFFFFFF8
FFE0000000
FFE0000000
FFE0000000
FFF0000000
7FF0000000
7FF8000300
7FFC000780
3FFE001FC0
3FFF807FC0
1FFFFFFFE0
0FFFFFFFF0
07FFFFFFE0
03FFFFFFC0
01FFFFFF80
00FFFFFF00
003FFFFC00
000FFFF000
00007F0000
ENDCHAR
STARTCHAR 00EB
ENCODING 235
SWIDTH 540 0
DWIDTH 42 0
BBX 37 58 3 -1
BITMAP
01C0003000
07F001FC00
0FF803FE00
1FF803FF00
1FF803FF00
1FFC03FF00
1FF803FF00
0FF803FE00
07F001FE00
01C0007800
0000000000
0000000000
0000000000
0000000000
0000000000
0001FE0000
001FFFC000
007FFFF800
00FFFFFC00
03FFFFFE00
07FFFFFF00
0FFFFFFF80
0FFFFFFFC0
1FFFFFFFC0
3FFE01FFE0
3FFC00FFE0
7FF8007FF0
7FF8007FF0
7FF0003FF0
FFF0003FF0
FFE0003FF8
FFE0003FF8
FFE0003FF8
FFFFFFFFF8
FFFFFFFFF8
FFFFFFFFF8
FFFFFFFFF8
FFFFFFFFF8
FFFFFFFFF8
FFFFFFFFF8
FFE0000000
FFE0000000
FFE0000000
FFF0000000
7FF0000000
7FF8000300
7FFC000780
3FFE001FC0
3FFF807FC0
1FFFFFFFE0
0FFFFFFFF0
07FFFFFFE0
03FFFFFFC0
01FFFFFF80
00FFFFFF00
003FFFFC00
000FFFF000
00007F0000
ENDCHAR
STARTCHAR 00EC
ENCODING 236
SWIDTH 270 0
DWIDTH 21 0
BBX 19 58 -3 0
BITMAP
FFF000
7FF000
3FF800
1FFC00
1FFC00
0FFE00
07FF00
03FF00
01FF80
00FF80
007FC0
003FE0
000000
000000
000000
000000
000000
00FFE0
00FFE0
00FFE0
00FFE0
00FFE0
00FFE0
00FFE0
00FFE0
00FFE0
00FFE0
00FFE0
00FFE0
00FFE0
00FFE0
00FFE0
00FFE0
00FFE0
00FFE0
00FFE0
00FFE0
00FFE0
00FFE0
00FFE0
00FFE0
00FFE0
00FFE0
00FFE0
00FFE0
00FFE0
00FFE0
00FFE0
00FFE0
00FFE0
00FFE0
00FFE0
00FFE0
00FFE0
00FFE0
00FFE0
00FFE0
00FFE0
ENDCHAR
STARTCHAR 00ED
ENCODING 237
SWIDTH 270 0
DWIDTH 21 0
BBX 20 58 5 0
BITMAP
00FFF0
01FFE0
03FFC0
03FF80
07FF00
0FFE00
0FFC00
1FF800
1FF000
3FE000
7FE000
7FC000
000000
000000
000000
000000
000000
FFE000
FFE000
FFE000
FFE000
FFE000
FFE000
FFE000
FFE000
FFE000
FFE000
FFE000
FFE000
FFE000
FFE000
FFE000
FFE000
FFE000
FFE000
FFE000
FFE000
FFE000
FFE000
FFE000
FFE000
FFE000
FFE000
FFE000
FFE000
FFE000
FFE000
FFE000
FFE000
FFE000
FFE000
FFE000
FFE000
FFE000
FFE000
FFE000
FFE000
FFE000
ENDCHAR
STARTCHAR 00EE
ENCODING 238
SWIDTH 270 0
DWIDTH 21 0
BBX 29 58 -4 0
BITMAP
001FC000
003FE000
007FF000
00FFF800
01FFFC00
03FFFF00
07FDFF80
0FF87FC0
3FF03FE0
7FE01FF0
FFC00FF8
00000000
00000000
00000000
00000000
00000000
00000000
007FF000
007FF000
007FF000
007FF000
007FF000
007FF000
007FF000
007FF000
007FF000
007FF000
007FF000
007FF000
007FF000
007FF000
007FF000
007FF000
007FF000
007FF000
007FF000
007FF000
007FF000
007FF000
007FF000
007FF000
007FF000
007FF000
007FF000
007FF000
007FF000
007FF000
007FF000
007FF000
007FF000
007FF000
007FF000
007FF000
007FF000
007FF000
007FF000
007FF000
007FF000
ENDCHAR
STARTCHAR 00EF
ENCODING 239
SWIDTH 270 0
DWIDTH 21 0
BBX 29 56 -4 0
BITMAP
1F0007C0
7F800FF0
7FC01FF8
FFC01FF8
FFC01FF8
FFC01FF8
FFC01FF8
7F800FF0
3F0007E0
00000000
00000000
00000000
00000000
00000000
00000000
007FF000
007FF000
007FF000
007FF000
007FF000
007FF000
007FF000
007FF000
007FF000
007FF000
007FF000
007FF000
007FF000
007FF000
007FF000
007FF000
007FF000
007FF000
007FF000
007FF000
007FF000
007FF000
007FF000
007FF000
007FF000
007FF000
007FF000
007FF000
007FF000
007FF000
007FF000
007FF000
007FF000
007FF000
007FF000
007FF000
007FF000
007FF000
007FF000
007FF000
007FF000
ENDCHAR
STARTCHAR 00F0
ENCODING 240
SWIDTH 565 0
DWIDTH 44 0
BBX 39 61 3 -1
BITMAP
0070000000
007E000000
00FFC00000
00FFF00300
00FFFC0780
01FFFE1FC0
01FFFFBFC0
03FFFFFFC0
01FFFFFF00
003FFFFE00
000FFFF800
0003FFFC00
0000FFFE00
0001FFFF00
0007FFFF80
000FFFFF80
003FF7FFC0
001FC3FFE0
000F01FFE0
000E01FFF0
000000FFF0
0000007FF8
0000007FF8
0001E03FF8
003FFF3FFC
00FFFFFFFC
01FFFFFFFC
03FFFFFFFC
07FFFFFFFC
0FFFFFFFFE
1FFFFFFFFE
1FFFC3FFFE
3FFE007FFE
3FFC001FFE
7FF8000FFE
7FF8000FFE
7FF0000FFE
7FF0000FFE
FFF0000FFE
FFE0000FFE
FFE0000FFE
FFE0000FFE
FFE0000FFE
FFE0000FFE
FFE0001FFC
FFF0001FFC
7FF0001FFC
7FF0003FFC
7FF8003FF8
3FFC007FF8
3FFE00FFF0
1FFF01FFF0
1FFFFFFFE0
0FFFFFFFC0
07FFFFFF80
03FFFFFF00
01FFFFFE00
00FFFFFC00
003FFFF000
000FFFC000
0000FC0000
ENDCHAR
STARTCHAR 00F1
ENCODING 241
SWIDTH 552 0
DWIDTH 43 0
BBX 36 58 4 0
BITMAP
003C003F00
00FF803F00
01FFE07F00
03FFFDFF00
07FFFFFE00
07FFFFFE00
0FFFFFFC00
0FE0FFFC00
0FC03FF800
0FC00FE000
01C0000000
0000000000
0000000000
0000000000
0000000000
0000000000
00001FC000
FFC0FFF800
FFC3FFFE00
FFC7FFFF00
FFEFFFFF80
FFFFFFFF80
FFFFFFFFC0
FFFFFFFFC0
FFFFFFFFE0
FFFC03FFE0
FFF801FFE0
FFF000FFE0
FFE000FFE0
FFE000FFE0
FFE000FFF0
FFE0007FF0
FFE0007FF0
FFE0007FF0
FFE0007FF0
FFE0007FF0
FFE0007FF0
FFE0007FF0
FFE0007FF0
FFE0007FF0
FFE0007FF0
FFE0007FF0
FFE0007FF0
FFE0007FF0
FFE0007FF0
FFE0007FF0
FFE0007FF0
FFE0007FF0
FFE0007FF0
FFE0007FF0
FFE0007FF0
FFE0007FF0
FFE0007FF0
FFE0007FF0
FFE0007FF0
FFE0007FF0
FFE0007FF0
FFE0007FF0
ENDCHAR
STARTCHAR 00F2
ENCODING 242
SWIDTH 552 0
DWIDTH 43 0
BBX 39 59 2 -1
BITMAP
03FFC00000
00FFE00000
00FFF00000
007FF00000
003FF80000
001FFC0000
000FFC0000
0007FE0000
0003FE0000
0001FF0000
0000FF8000
0000000000
0000000000
0000000000
0000000000
0000000000
0000FF0000
000FFFF000
003FFFFC00
00FFFFFE00
01FFFFFF80
03FFFFFFC0
07FFFFFFE0
0FFFFFFFE0
0FFFFFFFF0
1FFF01FFF8
1FFE007FF8
3FFC003FFC
3FF8001FFC
3FF8001FFC
7FF0001FFE
7FF0000FFE
7FF0000FFE
7FF0000FFE
7FF0000FFE
7FE0000FFE
FFE0000FFE
FFE0000FFE
FFE0000FFE
7FE0000FFE
7FF0000FFE
7FF0000FFE
7FF0000FFE
7FF0000FFE
7FF0001FFE
3FF8001FFC
3FF8001FFC
3FFC003FFC
1FFE007FF8
1FFF01FFF8
0FFFFFFFF0
07FFFFFFE0
07FFFFFFE0
03FFFFFFC0
01FFFFFF80
007FFFFE00
003FFFFC00
000FFFF000
00007E0000
ENDCHAR
STARTCHAR 00F3
ENCODING 243
SWIDTH 552 0
DWIDTH 43 0
BBX 39 59 2 -1
BITMAP
000003FFC0
000007FF00
00000FFE00
00000FFE00
00001FFC00
00003FF800
00003FF000
00007FE000
0000FFC000
0000FF8000
0001FF0000
0000000000
0000000000
0000000000
0000000000
0000000000
0000FF0000
000FFFF000
003FFFFC00
00FFFFFE00
01FFFFFF80
03FFFFFFC0
07FFFFFFE0
0FFFFFFFE0
0FFFFFFFF0
1FFF01FFF8
1FFE007FF8
3FFC003FFC
3FF8001FFC
3FF8001FFC
7FF0001FFE
7FF0000FFE
7FF0000FFE
7FF0000FFE
7FF0000FFE
7FE0000FFE
FFE0000FFE
FFE0000FFE
FFE0000FFE
7FE0000FFE
7FF0000FFE
7FF0000FFE
7FF0000FFE
7FF0000FFE
7FF0001FFE
3FF8001FFC
3FF8001FFC
3FFC003FFC
1FFE007FF8
1FFF01FFF8
0FFFFFFFF0
07FFFFFFE0
07FFFFFFE0
03FFFFFFC0
01FFFFFF80
007FFFFE00
003FFFFC00
000FFFF000
00007E0000
ENDCHAR
STARTCHAR 00F4
ENCODING 244
SWIDTH 552 0
DWIDTH 43 0
BBX 39 59 2 -1
BITMAP
0000FF0000
0001FF8000
0003FFC000
0007FFE000
001FFFF000
003FEFF800
007FC7FC00
00FF83FF00
01FF01FF80
03FE007FC0
07FC003FE0
0000000000
0000000000
0000000000
0000000000
0000000000
0000FF0000
000FFFF000
003FFFFC00
00FFFFFE00
01FFFFFF80
03FFFFFFC0
07FFFFFFE0
0FFFFFFFE0
0FFFFFFFF0
1FFF01FFF8
1FFE007FF8
3FFC003FFC
3FF8001FFC
3FF8001FFC
7FF0001FFE
7FF0000FFE
7FF0000FFE
7FF0000FFE
7FF0000FFE
7FE0000FFE
FFE0000FFE
FFE0000FFE
FFE0000FFE
7FE0000FFE
7FF0000FFE
7FF0000FFE
7FF0000FFE
7FF0000FFE
7FF0001FFE
3FF8001FFC
3FF8001FFC
3FFC003FFC
1FFE007FF8
1FFF01FFF8
0FFFFFFFF0
07FFFFFFE0
07FFFFFFE0
03FFFFFFC0
01FFFFFF80
007FFFFE00
003FFFFC00
000FFFF000
00007E0000
ENDCHAR
STARTCHAR 00F5
ENCODING 245
SWIDTH 552 0
DWIDTH 43 0
BBX 39 59 2 -1
BITMAP
000F000FC0
003FE00FC0
007FF81FC0
00FFFF7FC0
01FFFFFF80
01FFFFFF80
03FFFFFF00
03F83FFF00
03F00FFE00
03F003F800
0070000000
0000000000
0000000000
0000000000
0000000000
0000000000
0000FF0000
000FFFF000
003FFFFC00
00FFFFFE00
01FFFFFF80
03FFFFFFC0
07FFFFFFE0
0FFFFFFFE0
0FFFFFFFF0
1FFF01FFF8
1FFE007FF8
3FFC003FFC
3FF8001FFC
3FF8001FFC
7FF0001FFE
7FF0000FFE
7FF0000FFE
7FF0000FFE
7FF0000FFE
7FE0000FFE
FFE0000FFE
FFE0000FFE
FFE0000FFE
7FE0000FFE
7FF0000FFE
7FF0000FFE
7FF0000FFE
7FF0000FFE
7FF0001FFE
3FF8001FFC
3FF8001FFC
3FFC003FFC
1FFE007FF8
1FFF01FFF8
0FFFFFFFF0
07FFFFFFE0
07FFFFFFE0
03FFFFFFC0
01FFFFFF80
007FFFFE00
003FFFFC00
000FFFF000
00007E0000
ENDCHAR
STARTCHAR 00F6
ENCODING 246
SWIDTH 552 0
DWIDTH 43 0
BBX 39 58 2 -1
BITMAP
0030000C00
01FC003F80
03FE007FC0
03FE00FFC0
07FF00FFC0
07FF00FFC0
07FF00FFC0
03FE007FC0
01FC007F80
0070001E00
0000000000
0000000000
0000000000
0000000000
0000000000
0000FF0000
000FFFF000
003FFFFC00
00FFFFFE00
01FFFFFF80
03FFFFFFC0
07FFFFFFE0
0FFFFFFFE0
0FFFFFFFF0
1FFF01FFF8
1FFE007FF8
3FFC003FFC
3FF8001FFC
3FF8001FFC
7FF0001FFE
7FF0000FFE
7FF0000FFE
7FF0000FFE
7FF0000FFE
7FE0000FFE
FFE0000FFE
FFE0000FFE
FFE0000FFE
7FE0000FFE
7FF0000FFE
7FF0000FFE
7FF0000FFE
7FF0000FFE
7FF0001FFE
3FF8001FFC
3FF8001FFC
3FFC003FFC
1FFE007FF8
1FFF01FFF8
0FFFFFFFF0
07FFFFFFE0
07FFFFFFE0
03FFFFFFC0
01FFFFFF80
007FFFFE00
003FFFFC00
000FFFF000
00007E0000
ENDCHAR
STARTCHAR 00F7
ENCODING 247
SWIDTH 565 0
DWIDTH 44 0
BBX 40 42 2 5
BITMAP
00007E0000
0000FF0000
0001FF8000
0003FFC000
0003FFC000
0003FFC000
0003FFC000
0003FFC000
0001FF8000
0001FF8000
00007E0000
0000000000
0000000000
0000000000
0000000000
0000000000
0000000000
FFFFFFFFFF
FFFFFFFFFF
FFFFFFFFFF
FFFFFFFFFF
FFFFFFFFFF
FFFFFFFFFF
FFFFFFFFFF
FFFFFFFFFF
0000000000
0000000000
0000000000
0000000000
0000000000
0000000000
00007E0000
0001FF8000
0001FF8000
0003FFC000
0003FFC000
0003FFC000
0003FFC000
0003FFC000
0001FF8000
0000FF0000
00007E0000
ENDCHAR
STARTCHAR 00F8
ENCODING 248
SWIDTH 552 0
DWIDTH 43 0
BBX 39 51 2 -5
BITMAP
00000007E0
00000007E0
0000000FC0
0000000FC0
0000FF1F80
000FFFFF80
003FFFFF00
00FFFFFF00
01FFFFFF80
03FFFFFFC0
07FFFFFFE0
0FFFFFFFE0
0FFFFFFFF0
1FFF01FFF8
1FFE03FFF8
3FFC03FFFC
3FF807FFFC
3FF807FFFC
7FF007FFFE
7FF00FCFFE
7FF00FCFFE
7FF01F8FFE
7FF01F8FFE
7FE03F0FFE
FFE03F0FFE
FFE07E0FFE
FFE07E0FFE
7FE0FC0FFE
7FF0FC0FFE
7FF1F80FFE
7FF1F80FFE
7FF3F00FFE
7FF3F01FFE
3FFFE01FFC
3FFFE01FFC
3FFFC03FFC
1FFFC07FF8
1FFF81FFF8
0FFFFFFFF0
07FFFFFFE0
07FFFFFFE0
03FFFFFFC0
01FFFFFF80
00FFFFFE00
00FFFFFC00
01FFFFF000
01F87E0000
03F0000000
03F0000000
07E0000000
07E0000000
ENDCHAR
STARTCHAR 00F9
ENCODING 249
SWIDTH 552 0
DWIDTH 43 0
BBX 36 59 4 -1
BITMAP
0FFF000000
07FF800000
03FF800000
01FFC00000
00FFE00000
007FE00000
003FF00000
001FF80000
000FF80000
0007FC0000
0007FE0000
0000000000
0000000000
0000000000
0000000000
0000000000
0000000000
FFE0007FF0
FFE0007FF0
FFE0007FF0
FFE0007FF0
FFE0007FF0
FFE0007FF0
FFE0007FF0
FFE0007FF0
FFE0007FF0
FFE0007FF0
FFE0007FF0
FFE0007FF0
FFE0007FF0
FFE0007FF0
FFE0007FF0
FFE0007FF0
FFE0007FF0
FFE0007FF0
FFE0007FF0
FFE0007FF0
FFE0007FF0
FFE0007FF0
FFE0007FF0
FFE0007FF0
FFE0007FF0
FFE0007FF0
FFE0007FF0
FFE0007FF0
FFE0007FF0
FFE000FFF0
FFF000FFF0
FFF001FFF0
7FFC07FFF0
7FFFFFFFF0
7FFFFFFFF0
3FFFFFFFF0
3FFFFFFFF0
1FFFFF7FF0
0FFFFE7FF0
07FFFC7FF0
01FFF07FF0
003F000000
ENDCHAR
STARTCHAR 00FA
ENCODING 250
SWIDTH 552 0
DWIDTH 43 0
BBX 36 59 4 -1
BITMAP
00001FFE00
00001FFC00
00003FF800
00003FF000
00007FF000
0000FFE000
0000FFC000
0001FF8000
0003FF0000
0003FE0000
0007FC0000
0000000000
0000000000
0000000000
0000000000
0000000000
0000000000
FFE0007FF0
FFE0007FF0
FFE0007FF0
FFE0007FF0
FFE0007FF0
FFE0007FF0
FFE0007FF0
FFE0007FF0
FFE0007FF0
FFE0007FF0
FFE0007FF0
FFE0007FF0
FFE0007FF0
FFE0007FF0
FFE0007FF0
FFE0007FF0
FFE0007FF0
FFE0007FF0
FFE0007FF0
FFE0007FF0
FFE0007FF0
FFE0007FF0
FFE0007FF0
FFE0007FF0
FFE0007FF0
FFE0007FF0
FFE0007FF0
FFE0007FF0
FFE0007FF0
FFE000FFF0
FFF000FFF0
FFF001FFF0
7FFC07FFF0
7FFFFFFFF0
7FFFFFFFF0
3FFFFFFFF0
3FFFFFFFF0
1FFFFF7FF0
0FFFFE7FF0
07FFFC7FF0
01FFF07FF0
003F000000
ENDCHAR
STARTCHAR 00FB
ENCODING 251
SWIDTH 552 0
DWIDTH 43 0
BBX 36 59 4 -1
BITMAP
0003FC0000
0007FE0000
000FFF0000
003FFF8000
007FFFC000
00FFBFE000
01FF1FF000
03FE0FF800
07FC07FE00
0FF803FF00
1FF000FF00
0000000000
0000000000
0000000000
0000000000
0000000000
0000000000
FFE0007FF0
FFE0007FF0
FFE0007FF0
FFE0007FF0
FFE0007FF0
FFE0007FF0
FFE0007FF0
FFE0007FF0
FFE0007FF0
FFE0007FF0
FFE0007FF0
FFE0007FF0
FFE0007FF0
FFE0007FF0
FFE0007FF0
FFE0007FF0
FFE0007FF0
FFE0007FF0
FFE0007FF0
FFE0007FF0
FFE0007FF0
FFE0007FF0
FFE0007FF0
FFE0007FF0
FFE0007FF0
FFE0007FF0
FFE0007FF0
FFE0007FF0
FFE0007FF0
FFE000FFF0
FFF000FFF0
FFF001FFF0
7FFC07FFF0
7FFFFFFFF0
7FFFFFFFF0
3FFFFFFFF0
3FFFFFFFF0
1FFFFF7FF0
0FFFFE7FF0
07FFFC7FF0
01FFF07FF0
003F000000
ENDCHAR
STARTCHAR 00FC
ENCODING 252
SWIDTH 552 0
DWIDTH 43 0
BBX 36 58 4 -1
BITMAP
0180003000
07F000FE00
0FF801FE00
1FF803FF00
1FFC03FF00
1FFC03FF00
1FF803FF00
0FF801FF00
07F001FE00
03C0007800
0000000000
0000000000
0000000000
0000000000
0000000000
0000000000
FFE0007FF0
FFE0007FF0
FFE0007FF0
FFE0007FF0
FFE0007FF0
FFE0007FF0
FFE0007FF0
FFE0007FF0
FFE0007FF0
FFE0007FF0
FFE0007FF0
FFE0007FF0
FFE0007FF0
FFE0007FF0
FFE0007FF0
FFE0007FF0
FFE0007FF0
FFE0007FF0
FFE0007FF0
FFE0007FF0
FFE0007FF0
FFE0007FF0
FFE0007FF0
FFE0007FF0
FFE0007FF0
FFE0007FF0
FFE0007FF0
FFE0007FF0
FFE0007FF0
FFE000FFF0
FFF000FFF0
FFF001FFF0
7FFC07FFF0
7FFFFFFFF0
7FFFFFFFF0
3FFFFFFFF0
3FFFFFFFF0
1FFFFF7FF0
0FFFFE7FF0
07FFFC7FF0
01FFF07FF0
003F000000
ENDCHAR
STARTCHAR 00FD
ENCODING 253
SWIDTH 501 0
DWIDTH 39 0
BBX 39 75 0 -17
BITMAP
000007FF80
000007FF00
00000FFE00
00000FFE00
00001FFC00
00003FF800
00003FF000
00007FE000
0000FFC000
0000FF8000
0001FF0000
0000000000
0000000000
0000000000
0000000000
0000000000
0000000000
FFF0001FFE
7FF0001FFE
7FF8001FFC
7FF8003FFC
3FF8003FF8
3FFC003FF8
3FFC007FF8
1FFC007FF0
1FFC007FF0
0FFE00FFF0
0FFE00FFE0
0FFE00FFE0
07FF00FFE0
07FF01FFC0
07FF01FFC0
03FF81FFC0
03FF83FF80
03FF83FF80
01FF83FF80
01FFC7FF00
01FFC7FF00
00FFC7FF00
00FFE7FE00
00FFEFFE00
007FEFFE00
007FFFFC00
007FFFFC00
003FFFF800
003FFFF800
001FFFF800
001FFFF000
001FFFF000
000FFFF000
000FFFE000
000FFFE000
0007FFE000
0007FFC000
0007FFC000
0003FFC000
0003FF8000
0003FF8000
0003FF8000
0003FF0000
0003FF0000
0007FF0000
0007FE0000
000FFE0000
001FFC0000
007FFC0000
07FFFC0000
07FFF80000
07FFF80000
07FFF00000
07FFE00000
07FFC00000
07FF800000
07FE000000
00E0000000
ENDCHAR
STARTCHAR 00FE
ENCODING 254
SWIDTH 565 0
DWIDTH 44 0
BBX 37 74 4 -16
BITMAP
FFE0000000
FFE0000000
FFE0000000
FFE0000000
FFE0000000
FFE0000000
FFE0000000
FFE0000000
FFE0000000
FFE0000000
FFE0000000
FFE0000000
FFE0000000
FFE0000000
FFE0000000
FFE0000000
FFE03F8000
FFE1FFF000
FFE7FFFC00
FFEFFFFE00
FFFFFFFF00
FFFFFFFF80
FFFFFFFFC0
FFFFFFFFC0
FFFFFFFFE0
FFFE03FFE0
FFF801FFF0
FFF000FFF0
FFE0007FF0
FFE0007FF0
FFE0007FF8
FFE0003FF8
FFE0003FF8
FFE0003FF8
FFE0003FF8
FFE0003FF8
FFE0003FF8
FFE0003FF8
FFE0003FF8
FFE0003FF8
FFE0003FF8
FFE0003FF8
FFE0003FF8
FFE0003FF8
FFE0007FF8
FFE0007FF0
FFE0007FF0
FFF000FFF0
FFF801FFE0
FFFE03FFE0
FFFFFFFFE0
FFFFFFFFC0
FFFFFFFF80
FFFFFFFF80
FFFFFFFF00
FFEFFFFE00
FFE3FFF800
FFE1FFF000
FFE01F0000
FFE0000000
FFE0000000
FFE0000000
FFE0000000
FFE0000000
FFE0000000
FFE0000000
FFE0000000
FFE0000000
FFE0000000
FFE0000000
FFE0000000
FFE0000000
FFE0000000
FFE0000000
ENDCHAR
STARTCHAR 00FF
ENCODING 255
SWIDTH 501 0
DWIDTH 39 0
BBX 39 74 0 -17
BITMAP
0060000C00
01FC003F80
03FE007FC0
03FE00FFC0
07FF00FFC0
07FF00FFC0
07FE00FFC0
03FE007FC0
01FC007F80
00F0001E00
0000000000
0000000000
0000000000
0000000000
0000000000
0000000000
FFF0001FFE
7FF0001FFE
7FF8001FFC
7FF8003FFC
3FF8003FF8
3FFC003FF8
3FFC007FF8
1FFC007FF0
1FFC007FF0
0FFE00FFF0
0FFE00FFE0
0FFE00FFE0
07FF00FFE0
07FF01FFC0
07FF01FFC0
03FF81FFC0
03FF83FF80
03FF83FF80
01FF83FF80
01FFC7FF00
01FFC7FF00
00FFC7FF00
00FFE7FE00
00FFEFFE00
007FEFFE00
007FFFFC00
007FFFFC00
003FFFF800
003FFFF800
001FFFF800
001FFFF000
001FFFF000
000FFFF000
000FFFE000
000FFFE000
0007FFE000
0007FFC000
0007FFC000
0003FFC000
0003FF8000
0003FF8000
0003FF8000
0003FF0000
0003FF0000
0007FF0000
0007FE0000
000FFE0000
001FFC0000
007FFC0000
07FFFC0000
07FFF80000
07FFF80000
07FFF00000
07FFE00000
07FFC00000
07FF800000
07FE000000
00E0000000
ENDCHAR
STARTCHAR 0100
ENCODING 256
SWIDTH 668 0
DWIDTH 52 0
BBX 52 67 0 0
BITMAP
0007FFFFFE0000
0007FFFFFE0000
0007FFFFFE0000
0007FFFFFE0000
0007FFFFFE0000
0007FFFFFE0000
00000000000000
00000000000000
00000000000000
00000000000000
00000000000000
00000000000000
000007FF000000
00000FFF000000
00000FFF000000
00001FFF800000
00001FFF800000
00001FFFC00000
00003FFFC00000
00003FFFC00000
00003FFFE00000
00007FFFE00000
00007FFFE00000
0000FFFFF00000
0000FFFFF00000
0000FFFFF80000
0001FFDFF80000
0001FF9FF80000
0001FF9FFC0000
0003FF8FFC0000
0003FF0FFC0000
0007FF0FFE0000
0007FF07FE0000
0007FE07FF0000
000FFE07FF0000
000FFE03FF0000
000FFC03FF8000
001FFC03FF8000
001FFC01FF8000
003FF801FFC000
003FF801FFC000
003FF800FFE000
007FF000FFE000
007FF000FFE000
007FF0007FF000
00FFE0007FF000
00FFFFFFFFF000
01FFFFFFFFF800
01FFFFFFFFF800
01FFFFFFFFFC00
03FFFFFFFFFC00
03FFFFFFFFFC00
03FFFFFFFFFE00
07FFFFFFFFFE00
07FFFFFFFFFE00
07FF00000FFF00
0FFF00000FFF00
0FFF000007FF80
1FFE000007FF80
1FFE000007FF80
1FFE000003FFC0
3FFC000003FFC0
3FFC000003FFC0
3FFC000001FFE0
7FF8000001FFE0
7FF8000001FFF0
FFF8000000FFF0
ENDCHAR
STARTCHAR 0101
ENCODING 257
SWIDTH 527 0
DWIDTH 41 0
BBX 37 56 2 -1
BITMAP
03FFFFFF00
03FFFFFF00
03FFFFFF00
03FFFFFF00
03FFFFFF00
03FFFFFF00
0000000000
0000000000
0000000000
0000000000
0000000000
0000000000
0000000000
0001FE0000
001FFFE000
007FFFF800
01FFFFFC00
03FFFFFF00
07FFFFFF80
0FFFFFFF80
1FFFFFFFC0
3FFF07FFC0
3FFC01FFE0
3FF801FFE0
3FF800FFE0
7FF000FFE0
000000FFE0
000000FFE0
000000FFE0
000000FFE0
0007FFFFE0
007FFFFFE0
01FFFFFFE0
07FFFFFFE0
0FFFFFFFE0
1FFFFFFFE0
3FFF80FFE0
3FFC00FFE0
7FF800FFE0
7FF000FFE0
7FF000FFE0
7FF000FFE0
7FE000FFE0
FFF000FFE0
7FF000FFE0
7FF001FFE0
7FF807FFE0
7FFF3FFFF0
3FFFFFFFF0
3FFFFFFFF0
1FFFFFFFF0
0FFFFFFFF0
07FFFF7FF0
03FFFC7FF8
00FFF03FF8
000F800000
ENDCHAR
STARTCHAR 0102
ENCODING 258
SWIDTH 668 0
DWIDTH 52 0
BBX 52 70 0 0
BITMAP
0007F800FE0000
0007F800FE0000
0007F801FE0000
0007FC01FE0000
0003FE03FE0000
0003FFFFFC0000
0001FFFFFC0000
0000FFFFF80000
00007FFFF00000
00003FFFC00000
00000FFF000000
00000060000000
00000000000000
00000000000000
00000000000000
000007FF000000
00000FFF000000
00000FFF000000
00001FFF800000
00001FFF800000
00001FFFC00000
00003FFFC00000
00003FFFC00000
00003FFFE00000
00007FFFE00000
00007FFFE00000
0000FFFFF00000
0000FFFFF00000
0000FFFFF80000
0001FFDFF80000
0001FF9FF80000
0001FF9FFC0000
0003FF8FFC0000
0003FF0FFC0000
0007FF0FFE0000
0007FF07FE0000
0007FE07FF0000
000FFE07FF0000
000FFE03FF0000
000FFC03FF8000
001FFC03FF8000
001FFC01FF8000
003FF801FFC000
003FF801FFC000
003FF800FFE000
007FF000FFE000
007FF000FFE000
007FF0007FF000
00FFE0007FF000
00FFFFFFFFF000
01FFFFFFFFF800
01FFFFFFFFF800
01FFFFFFFFFC00
03FFFFFFFFFC00
03FFFFFFFFFC00
03FFFFFFFFFE00
07FFFFFFFFFE00
07FFFFFFFFFE00
07FF00000FFF00
0FFF00000FFF00
0FFF000007FF80
1FFE000007FF80
1FFE000007FF80
1FFE000003FFC0
3FFC000003FFC0
3FFC000003FFC0
3FFC000001FFE0
7FF8000001FFE0
7FF8000001FFF0
FFF8000000FFF0
ENDCHAR
STARTCHAR 0103
ENCODING 259
SWIDTH 527 0
DWIDTH 41 0
BBX 37 59 2 -1
BITMAP
03F800FF00
03FC00FF00
03FC00FF00
03FE01FF00
01FF03FE00
01FFFFFE00
00FFFFFC00
007FFFF800
003FFFF000
001FFFE000
0007FF0000
0000000000
0000000000
0000000000
0000000000
0000000000
0001FE0000
001FFFE000
007FFFF800
01FFFFFC00
03FFFFFF00
07FFFFFF80
0FFFFFFF80
1FFFFFFFC0
3FFF07FFC0
3FFC01FFE0
3FF801FFE0
3FF800FFE0
7FF000FFE0
000000FFE0
000000FFE0
000000FFE0
000000FFE0
0007FFFFE0
007FFFFFE0
01FFFFFFE0
07FFFFFFE0
0FFFFFFFE0
1FFFFFFFE0
3FFF80FFE0
3FFC00FFE0
7FF800FFE0
7FF000FFE0
7FF000FFE0
7FF000FFE0
7FE000FFE0
FFF000FFE0
7FF000FFE0
7FF001FFE0
7FF807FFE0
7FFF3FFFF0
3FFFFFFFF0
3FFFFFFFF0
1FFFFFFFF0
0FFFFFFFF0
07FFFF7FF0
03FFFC7FF8
00FFF03FF8
000F800000
ENDCHAR
STARTCHAR 0104
ENCODING 260
SWIDTH 668 0
DWIDTH 52 0
BBX 52 71 0 -16
BITMAP
000007FF000000
00000FFF000000
00000FFF000000
00001FFF800000
00001FFF800000
00001FFFC00000
00003FFFC00000
00003FFFC00000
00003FFFE00000
00007FFFE00000
00007FFFE00000
0000FFFFF00000
0000FFFFF00000
0000FFFFF80000
0001FFDFF80000
0001FF9FF80000
0001FF9FFC0000
0003FF8FFC0000
0003FF0FFC0000
0007FF0FFE0000
0007FF07FE0000
0007FE07FF0000
000FFE07FF0000
000FFE03FF0000
000FFC03FF8000
001FFC03FF8000
001FFC01FF8000
003FF801FFC000
003FF801FFC000
003FF800FFE000
007FF000FFE000
007FF000FFE000
007FF0007FF000
00FFE0007FF000
00FFFFFFFFF000
01FFFFFFFFF800
01FFFFFFFFF800
01FFFFFFFFFC00
03FFFFFFFFFC00
03FFFFFFFFFC00
03FFFFFFFFFE00
07FFFFFFFFFE00
07FFFFFFFFFE00
07FF00000FFF00
0FFF00000FFF00
0FFF000007FF80
1FFE000007FF80
1FFE000007FF80
1FFE000003FFC0
3FFC000003FFC0
3FFC000003FFC0
3FFC000001FFE0
7FF8000001FFE0
7FF8000001FFF0
FFF8000000FFF0
0000000001FF00
0000000003FC00
0000000007F800
000000000FF000
000000000FF000
000000001FE000
000000001FE000
000000001FE000
000000001FE000
000000001FFF80
000000001FFF80
000000001FFF80
000000000FFF80
0000000007FF80
0000000003FF80
0000000000FE00
ENDCHAR
STARTCHAR 0105
ENCODING 261
SWIDTH 527 0
DWIDTH 41 0
BBX 37 58 2 -16
BITMAP
0001FE0000
001FFFE000
007FFFF800
01FFFFFC00
03FFFFFF00
07FFFFFF80
0FFFFFFF80
1FFFFFFFC0
3FFF07FFC0
3FFC01FFE0
3FF801FFE0
3FF800FFE0
7FF000FFE0
000000FFE0
000000FFE0
000000FFE0
000000FFE0
0007FFFFE0
007FFFFFE0
01FFFFFFE0
07FFFFFFE0
0FFFFFFFE0
1FFFFFFFE0
3FFF80FFE0
3FFC00FFE0
7FF800FFE0
7FF000FFE0
7FF000FFE0
7FF000FFE0
7FE000FFE0
FFF000FFE0
7FF000FFE0
7FF001FFE0
7FF807FFE0
7FFF3FFFF0
3FFFFFFFF0
3FFFFFFFF0
1FFFFFFFF0
0FFFFFFFF0
07FFFF7FF0
03FFFC7FF8
00FFF03FF8
000F807FC0
000000FF80
000001FF00
000003FE00
000003FC00
000003FC00
000007F800
000007F800
000007FC00
000007FFE0
000003FFE0
000003FFF0
000003FFF0
000001FFF0
000000FFF0
0000003FC0
ENDCHAR
STARTCHAR 0106
ENCODING 262
SWIDTH 642 0
DWIDTH 50 0
BBX 45 72 3 -1
BITMAP
0000007FF800
0000007FF000
000000FFE000
000001FFE000
000001FFC000
000003FF8000
000003FF0000
000007FE0000
00000FFC0000
00000FF80000
00001FF00000
00003FE00000
000000000000
000000000000
000000000000
00003FF80000
0003FFFF8000
000FFFFFE000
001FFFFFF800
007FFFFFFC00
00FFFFFFFE00
01FFFFFFFF00
03FFFFFFFF80
07FFFFFFFFC0
07FFE00FFFC0
0FFF8003FFE0
0FFF0001FFE0
1FFE0000FFF0
1FFC00007FF0
3FFC00007FF0
3FF800007FF8
3FF800003FF8
7FF800003FF8
7FF800003FF8
7FF000000000
7FF000000000
7FF000000000
FFF000000000
FFF000000000
FFF000000000
FFF000000000
FFF000000000
FFF000000000
FFF000000000
FFF000000000
FFF000000000
FFF000000000
FFF000000000
FFF000000000
FFF000000000
7FF000000000
7FF000000000
7FF000000000
7FF800003FF8
7FF800003FF8
3FF800003FF8
3FF800007FF8
3FFC00007FF8
1FFE0000FFF0
1FFE0000FFF0
0FFF0001FFE0
0FFFC007FFE0
07FFF03FFFC0
07FFFFFFFFC0
03FFFFFFFF80
01FFFFFFFF00
00FFFFFFFE00
007FFFFFFC00
001FFFFFF000
0007FFFFC000
0001FFFF0000
00000FF00000
ENDCHAR
STARTCHAR 0107
ENCODING 263
SWIDTH 514 0
DWIDTH 40 0
BBX 36 59 2 -1
BITMAP
00000FFF00
00001FFE00
00001FFC00
00003FF800
00007FF000
00007FE000
0000FFC000
0000FF8000
0001FF8000
0003FF0000
0003FE0000
0000000000
0000000000
0000000000
0000000000
0000000000
0001FE0000
000FFFE000
003FFFF800
00FFFFFE00
01FFFFFF00
03FFFFFF80
07FFFFFFC0
0FFFFFFFC0
0FFFFFFFE0
1FFF01FFE0
1FFC00FFF0
3FF8007FF0
3FF8007FF0
7FF0003FF0
7FF0003FF0
7FF0003FF0
7FF0000000
7FF0000000
7FF0000000
7FE0000000
FFE0000000
FFE0000000
FFE0000000
7FE0000000
7FF0000000
7FF0000000
7FF0000000
7FF0000000
7FF0003FF0
7FF0003FF0
3FF8003FF0
3FF8007FF0
1FFC00FFF0
1FFF01FFE0
0FFFFFFFE0
0FFFFFFFC0
07FFFFFF80
03FFFFFF80
01FFFFFF00
00FFFFFC00
003FFFF800
000FFFE000
0000FC0000
ENDCHAR
STARTCHAR 0108
ENCODING 264
SWIDTH 642 0
DWIDTH 50 0
BBX 45 72 3 -1
BITMAP
00000FC00000
00001FE00000
00003FF80000
00007FFC0000
0000FFFE0000
0001FFFF0000
0007FEFF8000
000FFC7FC000
001FF03FE000
003FE01FF000
007FC00FF800
000000000000
000000000000
000000000000
000000000000
00003FF80000
0003FFFF8000
000FFFFFE000
001FFFFFF800
007FFFFFFC00
00FFFFFFFE00
01FFFFFFFF00
03FFFFFFFF80
07FFFFFFFFC0
07FFE00FFFC0
0FFF8003FFE0
0FFF0001FFE0
1FFE0000FFF0
1FFC00007FF0
3FFC00007FF0
3FF800007FF8
3FF800003FF8
7FF800003FF8
7FF800003FF8
7FF000000000
7FF000000000
7FF000000000
FFF000000000
FFF000000000
FFF000000000
FFF000000000
FFF000000000
FFF000000000
FFF000000000
FFF000000000
FFF000000000
FFF000000000
FFF000000000
FFF000000000
FFF000000000
7FF000000000
7FF000000000
7FF000000000
7FF800003FF8
7FF800003FF8
3FF800003FF8
3FF800007FF8
3FFC00007FF8
1FFE0000FFF0
1FFE0000FFF0
0FFF0001FFE0
0FFFC007FFE0
07FFF03FFFC0
07FFFFFFFFC0
03FFFFFFFF80
01FFFFFFFF00
00FFFFFFFE00
007FFFFFFC00
001FFFFFF000
0007FFFFC000
0001FFFF0000
00000FF00000
ENDCHAR
STARTCHAR 0109
ENCODING 265
SWIDTH 514 0
DWIDTH 40 0
BBX 36 59 2 -1
BITMAP
0003FC0000
0007FF0000
000FFF8000
001FFFC000
003FFFE000
007FDFF000
00FF8FF800
01FF07FC00
03FE03FE00
07FC01FF00
0FF800FF80
0000000000
0000000000
0000000000
0000000000
0000000000
0001FE0000
000FFFE000
003FFFF800
00FFFFFE00
01FFFFFF00
03FFFFFF80
07FFFFFFC0
0FFFFFFFC0
0FFFFFFFE0
1FFF01FFE0
1FFC00FFF0
3FF8007FF0
3FF8007FF0
7FF0003FF0
7FF0003FF0
7FF0003FF0
7FF0000000
7FF0000000
7FF0000000
7FE0000000
FFE0000000
FFE0000000
FFE0000000
7FE0000000
7FF0000000
7FF0000000
7FF0000000
7FF0000000
7FF0003FF0
7FF0003FF0
3FF8003FF0
3FF8007FF0
1FFC00FFF0
1FFF01FFE0
0FFFFFFFE0
0FFFFFFFC0
07FFFFFF80
03FFFFFF80
01FFFFFF00
00FFFFFC00
003FFFF800
000FFFE000
0000FC0000
ENDCHAR
STARTCHAR 010A
ENCODING 266
SWIDTH 642 0
DWIDTH 50 0
BBX 45 71 3 -1
BITMAP
00000FC00000
00001FE00000
00003FF00000
00003FF80000
00003FF80000
00003FF80000
00003FF80000
00003FF00000
00001FE00000
00000FC00000
000000000000
000000000000
000000000000
000000000000
00003FF80000
0003FFFF8000
000FFFFFE000
001FFFFFF800
007FFFFFFC00
00FFFFFFFE00
01FFFFFFFF00
03FFFFFFFF80
07FFFFFFFFC0
07FFE00FFFC0
0FFF8003FFE0
0FFF0001FFE0
1FFE0000FFF0
1FFC00007FF0
3FFC00007FF0
3FF800007FF8
3FF800003FF8
7FF800003FF8
7FF800003FF8
7FF000000000
7FF000000000
7FF000000000
FFF000000000
FFF000000000
FFF000000000
FFF000000000
FFF000000000
FFF000000000
FFF000000000
FFF000000000
FFF000000000
FFF000000000
FFF000000000
FFF000000000
FFF000000000
7FF000000000
7FF000000000
7FF000000000
7FF800003FF8
7FF800003FF8
3FF800003FF8
3FF800007FF8
3FFC00007FF8
1FFE0000FFF0
1FFE0000FFF0
0FFF0001FFE0
0FFFC007FFE0
07FFF03FFFC0
07FFFFFFFFC0
03FFFFFFFF80
01FFFFFFFF00
00FFFFFFFE00
007FFFFFFC00
001FFFFFF000
0007FFFFC000
0001FFFF0000
00000FF00000
ENDCHAR
STARTCHAR 010B
ENCODING 267
SWIDTH 514 0
DWIDTH 40 0
BBX 36 59 2 -1
BITMAP
0000F80000
0003FC0000
0007FE0000
0007FF0000
0007FF0000
0007FF0000
0007FF0000
0007FE0000
0003FE0000
0001F80000
0000000000
0000000000
0000000000
0000000000
0000000000
0000000000
0001FE0000
000FFFE000
003FFFF800
00FFFFFE00
01FFFFFF00
03FFFFFF80
07FFFFFFC0
0FFFFFFFC0
0FFFFFFFE0
1FFF01FFE0
1FFC00FFF0
3FF8007FF0
3FF8007FF0
7FF0003FF0
7FF0003FF0
7FF0003FF0
7FF0000000
7FF0000000
7FF0000000
7FE0000000
FFE0000000
FFE0000000
FFE0000000
7FE0000000
7FF0000000
7FF0000000
7FF0000000
7FF0000000
7FF0003FF0
7FF0003FF0
3FF8003FF0
3FF8007FF0
1FFC00FFF0
1FFF01FFE0
0FFFFFFFE0
0FFFFFFFC0
07FFFFFF80
03FFFFFF80
01FFFFFF00
00FFFFFC00
003FFFF800
000FFFE000
0000FC0000
ENDCHAR
STARTCHAR 010C
ENCODING 268
SWIDTH 642 0
DWIDTH 50 0
BBX 45 72 3 -1
BITMAP
00FFC007FC00
007FE00FF800
003FF01FF000
001FF83FE000
000FFC7FC000
0007FEFF8000
0003FFFF0000
0001FFFE0000
0000FFFC0000
00003FF80000
00001FF00000
000000000000
000000000000
000000000000
000000000000
00003FF80000
0003FFFF8000
000FFFFFE000
001FFFFFF800
007FFFFFFC00
00FFFFFFFE00
01FFFFFFFF00
03FFFFFFFF80
07FFFFFFFFC0
07FFE00FFFC0
0FFF8003FFE0
0FFF0001FFE0
1FFE0000FFF0
1FFC00007FF0
3FFC00007FF0
3FF800007FF8
3FF800003FF8
7FF800003FF8
7FF800003FF8
7FF000000000
7FF000000000
7FF000000000
FFF000000000
FFF000000000
FFF000000000
FFF000000000
FFF000000000
FFF000000000
FFF000000000
FFF000000000
FFF000000000
FFF000000000
FFF000000000
FFF000000000
FFF000000000
7FF000000000
7FF000000000
7FF000000000
7FF800003FF8
7FF800003FF8
3FF800003FF8
3FF800007FF8
3FFC00007FF8
1FFE0000FFF0
1FFE0000FFF0
0FFF0001FFE0
0FFFC007FFE0
07FFF03FFFC0
07FFFFFFFFC0
03FFFFFFFF80
01FFFFFFFF00
00FFFFFFFE00
007FFFFFFC00
001FFFFFF000
0007FFFFC000
0001FFFF0000
00000FF00000
ENDCHAR
STARTCHAR 010D
ENCODING 269
SWIDTH 514 0
DWIDTH 40 0
BBX 36 59 2 -1
BITMAP
0FFC01FF80
07FE03FF00
03FF07FE00
01FF8FFC00
00FFDFF800
007FFFE000
003FFFC000
001FFF8000
0007FF0000
0003FE0000
0001FC0000
0000000000
0000000000
0000000000
0000000000
0000000000
0001FE0000
000FFFE000
003FFFF800
00FFFFFE00
01FFFFFF00
03FFFFFF80
07FFFFFFC0
0FFFFFFFC0
0FFFFFFFE0
1FFF01FFE0
1FFC00FFF0
3FF8007FF0
3FF8007FF0
7FF0003FF0
7FF0003FF0
7FF0003FF0
7FF0000000
7FF0000000
7FF0000000
7FE0000000
FFE0000000
FFE0000000
FFE0000000
7FE0000000
7FF0000000
7FF0000000
7FF0000000
7FF0000000
7FF0003FF0
7FF0003FF0
3FF8003FF0
3FF8007FF0
1FFC00FFF0
1FFF01FFE0
0FFFFFFFE0
0FFFFFFFC0
07FFFFFF80
03FFFFFF80
01FFFFFF00
00FFFFFC00
003FFFF800
000FFFE000
0000FC0000
ENDCHAR
STARTCHAR 010E
ENCODING 270
SWIDTH 642 0
DWIDTH 50 0
BBX 42 70 5 0
BITMAP
FFC00FF80000
7FE01FF00000
3FF03FE00000
0FF87FC00000
07FCFF800000
03FFFF000000
01FFFE000000
00FFFC000000
007FF8000000
003FF0000000
001FE0000000
000000000000
000000000000
000000000000
000000000000
FFFFFF000000
FFFFFFE00000
FFFFFFF80000
FFFFFFFE0000
FFFFFFFF0000
FFFFFFFFC000
FFFFFFFFE000
FFFFFFFFF000
FFFFFFFFF800
FFE003FFF800
FFE000FFFC00
FFE0003FFE00
FFE0001FFE00
FFE0001FFF00
FFE0000FFF00
FFE00007FF00
FFE00007FF80
FFE00007FF80
FFE00003FF80
FFE00003FFC0
FFE00003FFC0
FFE00003FFC0
FFE00001FFC0
FFE00001FFC0
FFE00001FFC0
FFE00001FFC0
FFE00001FFC0
FFE00001FFC0
FFE00001FFC0
FFE00001FFC0
FFE00001FFC0
FFE00001FFC0
FFE00003FFC0
FFE00003FFC0
FFE00003FFC0
FFE00003FFC0
FFE00003FF80
FFE00007FF80
FFE00007FF80
FFE0000FFF00
FFE0000FFF00
FFE0001FFF00
FFE0003FFE00
FFE0007FFC00
FFE000FFFC00
FFE007FFF800
FFFFFFFFF000
FFFFFFFFE000
FFFFFFFFC000
FFFFFFFF8000
FFFFFFFF0000
FFFFFFFE0000
FFFFFFF80000
FFFFFFC00000
FFFFFE000000
ENDCHAR
STARTCHAR 010F
ENCODING 271
SWIDTH 630 0
DWIDTH 49 0
BBX 50 59 3 -1
BITMAP
0000003FF83FC0
0000003FF83FC0
0000003FF83FC0
0000003FF83FC0
0000003FF83FC0
0000003FF83FC0
0000003FF83FC0
0000003FF83FC0
0000003FF83F80
0000003FF87F80
0000003FF87F00
0000003FF8FF00
0000003FF8FE00
0000003FF87E00
0000003FF81C00
0000003FF80000
000FE03FF80000
007FFC3FF80000
01FFFE3FF80000
03FFFF3FF80000
07FFFFBFF80000
0FFFFFFFF80000
1FFFFFFFF80000
1FFFFFFFF80000
3FFFFFFFF80000
3FFE03FFF80000
7FFC00FFF80000
7FF800FFF80000
7FF0007FF80000
FFF0003FF80000
FFE0003FF80000
FFE0003FF80000
FFE0003FF80000
FFE0003FF80000
FFE0003FF80000
FFE0003FF80000
FFC0003FF80000
FFC0003FF80000
FFC0003FF80000
FFE0003FF80000
FFE0003FF80000
FFE0003FF80000
FFE0003FF80000
FFE0003FF80000
FFE0003FF80000
FFF0003FF80000
7FF0007FF80000
7FF800FFF80000
7FFC01FFF80000
3FFE03FFF80000
3FFFFFFFF80000
1FFFFFFFF80000
1FFFFFFFF80000
0FFFFFFFF80000
07FFFFBFF80000
03FFFF3FF80000
01FFFE3FF80000
007FF81FF80000
0007C000000000
ENDCHAR
STARTCHAR 0110
ENCODING 272
SWIDTH 655 0
DWIDTH 51 0
BBX 48 55 0 0
BITMAP
03FFFFFC0000
03FFFFFF8000
03FFFFFFE000
03FFFFFFF800
03FFFFFFFE00
03FFFFFFFF00
03FFFFFFFF80
03FFFFFFFFC0
03FFFFFFFFE0
03FF800FFFE0
03FF8003FFF0
03FF8000FFF8
03FF80007FF8
03FF80003FFC
03FF80003FFC
03FF80001FFE
03FF80001FFE
03FF80000FFE
03FF80000FFF
03FF80000FFF
03FF80000FFF
03FF800007FF
03FF800007FF
03FF800007FF
FFFFFFE007FF
FFFFFFE007FF
FFFFFFE007FF
FFFFFFE007FF
FFFFFFE007FF
FFFFFFE007FF
FFFFFFE007FF
03FF800007FF
03FF800007FF
03FF80000FFF
03FF80000FFF
03FF80000FFF
03FF80000FFE
03FF80001FFE
03FF80001FFE
03FF80001FFE
03FF80003FFC
03FF80007FFC
03FF8000FFF8
03FF8001FFF8
03FF8003FFF0
03FF800FFFE0
03FFFFFFFFE0
03FFFFFFFFC0
03FFFFFFFF80
03FFFFFFFE00
03FFFFFFFC00
03FFFFFFF800
03FFFFFFE000
03FFFFFF0000
03FFFFF80000
ENDCHAR
STARTCHAR 0111
ENCODING 273
SWIDTH 630 0
DWIDTH 49 0
BBX 42 59 3 -1
BITMAP
0000003FF800
0000003FF800
0000003FF800
0000003FF800
0000003FF800
0000FFFFFFC0
0000FFFFFFC0
0000FFFFFFC0
0000FFFFFFC0
0000FFFFFFC0
0000FFFFFFC0
0000FFFFFFC0
0000003FF800
0000003FF800
0000003FF800
0000003FF800
000FE03FF800
007FFC3FF800
01FFFE3FF800
03FFFF3FF800
07FFFFBFF800
0FFFFFFFF800
1FFFFFFFF800
1FFFFFFFF800
3FFFFFFFF800
3FFE03FFF800
7FFC00FFF800
7FF800FFF800
7FF0007FF800
FFF0003FF800
FFE0003FF800
FFE0003FF800
FFE0003FF800
FFE0003FF800
FFE0003FF800
FFE0003FF800
FFC0003FF800
FFC0003FF800
FFC0003FF800
FFE0003FF800
FFE0003FF800
FFE0003FF800
FFE0003FF800
FFE0003FF800
FFE0003FF800
FFF0003FF800
7FF0007FF800
7FF800FFF800
7FFC01FFF800
3FFE03FFF800
3FFFFFFFF800
1FFFFFFFF800
1FFFFFFFF800
0FFFFFFFF800
07FFFFBFF800
03FFFF3FF800
01FFFE3FF800
007FF81FF800
0007C0000000
ENDCHAR
STARTCHAR 0112
ENCODING 274
SWIDTH 552 0
DWIDTH 43 0
BBX 37 67 5 0
BITMAP
03FFFFFF00
03FFFFFF00
03FFFFFF00
03FFFFFF00
03FFFFFF00
03FFFFFF00
0000000000
0000000000
0000000000
0000000000
0000000000
0000000000
FFFFFFFFF8
FFFFFFFFF8
FFFFFFFFF8
FFFFFFFFF8
FFFFFFFFF8
FFFFFFFFF8
FFFFFFFFF8
FFFFFFFFF8
FFFFFFFFF8
FFE0000000
FFE0000000
FFE0000000
FFE0000000
FFE0000000
FFE0000000
FFE0000000
FFE0000000
FFE0000000
FFE0000000
FFE0000000
FFE0000000
FFE0000000
FFFFFFFF80
FFFFFFFF80
FFFFFFFF80
FFFFFFFF80
FFFFFFFF80
FFFFFFFF80
FFFFFFFF80
FFFFFFFF80
FFFFFFFF80
FFE0000000
FFE0000000
FFE0000000
FFE0000000
FFE0000000
FFE0000000
FFE0000000
FFE0000000
FFE0000000
FFE0000000
FFE0000000
FFE0000000
FFE0000000
FFE0000000
FFE0000000
FFFFFFFFF8
FFFFFFFFF8
FFFFFFFFF8
FFFFFFFFF8
FFFFFFFFF8
FFFFFFFFF8
FFFFFFFFF8
FFFFFFFFF8
FFFFFFFFF8
ENDCHAR
STARTCHAR 0113
ENCODING 275
SWIDTH 540 0
DWIDTH 42 0
BBX 37 56 3 -1
BITMAP
07FFFFFE00
07FFFFFE00
07FFFFFE00
07FFFFFE00
07FFFFFE00
07FFFFFE00
0000000000
0000000000
0000000000
0000000000
0000000000
0000000000
0000000000
0001FE0000
001FFFC000
007FFFF800
00FFFFFC00
03FFFFFE00
07FFFFFF00
0FFFFFFF80
0FFFFFFFC0
1FFFFFFFC0
3FFE01FFE0
3FFC00FFE0
7FF8007FF0
7FF8007FF0
7FF0003FF0
FFF0003FF0
FFE0003FF8
FFE0003FF8
FFE0003FF8
FFFFFFFFF8
FFFFFFFFF8
FFFFFFFFF8
FFFFFFFFF8
FFFFFFFFF8
FFFFFFFFF8
FFFFFFFFF8
FFE0000000
FFE0000000
FFE0000000
FFF0000000
7FF0000000
7FF8000300
7FFC000780
3FFE001FC0
3FFF807FC0
1FFFFFFFE0
0FFFFFFFF0
07FFFFFFE0
03FFFFFFC0
01FFFFFF80
00FFFFFF00
003FFFFC00
000FFFF000
00007F0000
ENDCHAR
STARTCHAR 0114
ENCODING 276
SWIDTH 552 0
DWIDTH 43 0
BBX 37 70 5 0
BITMAP
03FC007F00
03FC00FF00
03FC00FF00
03FE00FF00
01FF03FF00
01FFFFFE00
00FFFFFC00
007FFFFC00
003FFFF800
001FFFE000
0007FF8000
0000000000
0000000000
0000000000
0000000000
FFFFFFFFF8
FFFFFFFFF8
FFFFFFFFF8
FFFFFFFFF8
FFFFFFFFF8
FFFFFFFFF8
FFFFFFFFF8
FFFFFFFFF8
FFFFFFFFF8
FFE0000000
FFE0000000
FFE0000000
FFE0000000
FFE0000000
FFE0000000
FFE0000000
FFE0000000
FFE0000000
FFE0000000
FFE0000000
FFE0000000
FFE0000000
FFFFFFFF80
FFFFFFFF80
FFFFFFFF80
FFFFFFFF80
FFFFFFFF80
FFFFFFFF80
FFFFFFFF80
FFFFFFFF80
FFFFFFFF80
FFE0000000
FFE0000000
FFE0000000
FFE0000000
FFE0000000
FFE0000000
FFE0000000
FFE0000000
FFE0000000
FFE0000000
FFE0000000
FFE0000000
FFE0000000
FFE0000000
FFE0000000
FFFFFFFFF8
FFFFFFFFF8
FFFFFFFFF8
FFFFFFFFF8
FFFFFFFFF8
FFFFFFFFF8
FFFFFFFFF8
FFFFFFFFF8
FFFFFFFFF8
ENDCHAR
STARTCHAR 0115
ENCODING 277
SWIDTH 540 0
DWIDTH 42 0
BBX 37 59 3 -1
BITMAP
0FF001FE00
07F001FE00
07F801FE00
07F803FC00
07FE07FC00
03FFFFF800
03FFFFF800
01FFFFF000
00FFFFE000
003FFF8000
000FFE0000
0000000000
0000000000
0000000000
0000000000
0000000000
0001FE0000
001FFFC000
007FFFF800
00FFFFFC00
03FFFFFE00
07FFFFFF00
0FFFFFFF80
0FFFFFFFC0
1FFFFFFFC0
3FFE01FFE0
3FFC00FFE0
7FF8007FF0
7FF8007FF0
7FF0003FF0
FFF0003FF0
FFE0003FF8
FFE0003FF8
FFE0003FF8
FFFFFFFFF8
FFFFFFFFF8
FFFFFFFFF8
FFFFFFFFF8
FFFFFFFFF8
FFFFFFFFF8
FFFFFFFFF8
FFE0000000
FFE0000000
FFE0000000
FFF0000000
7FF0000000
7FF8000300
7FFC000780
3FFE001FC0
3FFF807FC0
1FFFFFFFE0
0FFFFFFFF0
07FFFFFFE0
03FFFFFFC0
01FFFFFF80
00FFFFFF00
003FFFFC00
000FFFF000
00007F0000
ENDCHAR
STARTCHAR 0116
ENCODING 278
SWIDTH 552 0
DWIDTH 43 0
BBX 37 70 5 0
BITMAP
0000780000
0001FE0000
0003FF0000
0003FF0000
0003FF8000
0007FF8000
0003FF8000
0003FF0000
0001FF0000
0000FC0000
0000000000
0000000000
0000000000
0000000000
0000000000
FFFFFFFFF8
FFFFFFFFF8
FFFFFFFFF8
FFFFFFFFF8
FFFFFFFFF8
FFFFFFFFF8
FFFFFFFFF8
FFFFFFFFF8
FFFFFFFFF8
FFE0000000
FFE0000000
FFE0000000
FFE0000000
FFE0000000
FFE0000000
FFE0000000
FFE0000000
FFE0000000
FFE0000000
FFE0000000
FFE0000000
FFE0000000
FFFFFFFF80
FFFFFFFF80
FFFFFFFF80
FFFFFFFF80
FFFFFFFF80
FFFFFFFF80
FFFFFFFF80
FFFFFFFF80
FFFFFFFF80
FFE0000000
FFE0000000
FFE0000000
FFE0000000
FFE0000000
FFE0000000
FFE0000000
FFE0000000
FFE0000000
FFE0000000
FFE0000000
FFE0000000
FFE0000000
FFE0000000
FFE0000000
FFFFFFFFF8
FFFFFFFFF8
FFFFFFFFF8
FFFFFFFFF8
FFFFFFFFF8
FFFFFFFFF8
FFFFFFFFF8
FFFFFFFFF8
FFFFFFFFF8
ENDCHAR
STARTCHAR 0117
ENCODING 279
SWIDTH 540 0
DWIDTH 42 0
BBX 37 59 3 -1
BITMAP
0001F00000
0003FC0000
0007FC0000
000FFE0000
000FFE0000
000FFE0000
000FFE0000
0007FE0000
0007FC0000
0003F80000
0000000000
0000000000
0000000000
0000000000
0000000000
0000000000
0001FE0000
001FFFC000
007FFFF800
00FFFFFC00
03FFFFFE00
07FFFFFF00
0FFFFFFF80
0FFFFFFFC0
1FFFFFFFC0
3FFE01FFE0
3FFC00FFE0
7FF8007FF0
7FF8007FF0
7FF0003FF0
FFF0003FF0
FFE0003FF8
FFE0003FF8
FFE0003FF8
FFFFFFFFF8
FFFFFFFFF8
FFFFFFFFF8
FFFFFFFFF8
FFFFFFFFF8
FFFFFFFFF8
FFFFFFFFF8
FFE0000000
FFE0000000
FFE0000000
FFF0000000
7FF0000000
7FF8000300
7FFC000780
3FFE001FC0
3FFF807FC0
1FFFFFFFE0
0FFFFFFFF0
07FFFFFFE0
03FFFFFFC0
01FFFFFF80
00FFFFFF00
003FFFFC00
000FFFF000
00007F0000
ENDCHAR
STARTCHAR 0118
ENCODING 280
SWIDTH 552 0
DWIDTH 43 0
BBX 37 71 5 -16
BITMAP
FFFFFFFFF8
FFFFFFFFF8
FFFFFFFFF8
FFFFFFFFF8
FFFFFFFFF8
FFFFFFFFF8
FFFFFFFFF8
FFFFFFFFF8
FFFFFFFFF8
FFE0000000
FFE0000000
FFE0000000
FFE0000000
FFE0000000
FFE0000000
FFE0000000
FFE0000000
FFE0000000
FFE0000000
FFE0000000
FFE0000000
FFE0000000
FFFFFFFF80
FFFFFFFF80
FFFFFFFF80
FFFFFFFF80
FFFFFFFF80
FFFFFFFF80
FFFFFFFF80
FFFFFFFF80
FFFFFFFF80
FFE0000000
FFE0000000
FFE0000000
FFE0000000
FFE0000000
FFE0000000
FFE0000000
FFE0000000
FFE0000000
FFE0000000
FFE0000000
FFE0000000
FFE0000000
FFE0000000
FFE0000000
FFFFFFFFF8
FFFFFFFFF8
FFFFFFFFF8
FFFFFFFFF8
FFFFFFFFF8
FFFFFFFFF8
FFFFFFFFF8
FFFFFFFFF8
FFFFFFFFF8
000007FC00
00000FF800
00001FE000
00003FE000
00003FC000
00003F8000
00007F8000
00007F8000
00007FC000
00007FFE00
00007FFE00
00003FFE00
00003FFF00
00001FFF00
00000FFF00
000003FC00
ENDCHAR
STARTCHAR 0119
ENCODING 281
SWIDTH 540 0
DWIDTH 42 0
BBX 37 57 3 -15
BITMAP
0001FE0000
001FFFC000
007FFFF800
00FFFFFC00
03FFFFFE00
07FFFFFF00
0FFFFFFF80
0FFFFFFFC0
1FFFFFFFC0
3FFE01FFE0
3FFC00FFE0
7FF8007FF0
7FF8007FF0
7FF0003FF0
FFF0003FF0
FFE0003FF8
FFE0003FF8
FFE0003FF8
FFFFFFFFF8
FFFFFFFFF8
FFFFFFFFF8
FFFFFFFFF8
FFFFFFFFF8
FFFFFFFFF8
FFFFFFFFF8
FFE0000000
FFE0000000
FFE0000000
FFF0000000
7FF0000000
7FF8000300
7FFC000780
3FFE001FC0
3FFF807FC0
1FFFFFFFE0
0FFFFFFFF0
07FFFFFFE0
03FFFFFFC0
01FFFFFF80
00FFFFFF00
003FFFFC00
000FFFF000
00007FE000
00007FC000
00007F8000
0000FF0000
0000FF0000
0000FF0000
0000FF0000
0000FF0000
0000FFF800
0000FFFC00
0000FFFC00
00007FFC00
00003FFC00
00001FFC00
000003E000
ENDCHAR
STARTCHAR 011A
ENCODING 282
SWIDTH 552 0
DWIDTH 43 0
BBX 37 70 5 0
BITMAP
07FC00FFC0
03FE01FF80
01FF03FF00
00FF87FC00
007FCFF800
003FFFF000
001FFFE000
000FFFC000
0007FF8000
0003FF0000
0001FE0000
0000000000
0000000000
0000000000
0000000000
FFFFFFFFF8
FFFFFFFFF8
FFFFFFFFF8
FFFFFFFFF8
FFFFFFFFF8
FFFFFFFFF8
FFFFFFFFF8
FFFFFFFFF8
FFFFFFFFF8
FFE0000000
FFE0000000
FFE0000000
FFE0000000
FFE0000000
FFE0000000
FFE0000000
FFE0000000
FFE0000000
FFE0000000
FFE0000000
FFE0000000
FFE0000000
FFFFFFFF80
FFFFFFFF80
FFFFFFFF80
FFFFFFFF80
FFFFFFFF80
FFFFFFFF80
FFFFFFFF80
FFFFFFFF80
FFFFFFFF80
FFE0000000
FFE0000000
FFE0000000
FFE0000000
FFE0000000
FFE0000000
FFE0000000
FFE0000000
FFE0000000
FFE0000000
FFE0000000
FFE0000000
FFE0000000
FFE0000000
FFE0000000
FFFFFFFFF8
FFFFFFFFF8
FFFFFFFFF8
FFFFFFFFF8
FFFFFFFFF8
FFFFFFFFF8
FFFFFFFFF8
FFFFFFFFF8
FFFFFFFFF8
ENDCHAR
STARTCHAR 011B
ENCODING 283
SWIDTH 540 0
DWIDTH 42 0
BBX 37 59 3 -1
BITMAP
1FF803FF00
0FFC07FE00
07FE0FFC00
03FF1FF800
00FFBFF000
007FFFE000
003FFFC000
001FFF8000
000FFE0000
0007FC0000
0003F80000
0000000000
0000000000
0000000000
0000000000
0000000000
0001FE0000
001FFFC000
007FFFF800
00FFFFFC00
03FFFFFE00
07FFFFFF00
0FFFFFFF80
0FFFFFFFC0
1FFFFFFFC0
3FFE01FFE0
3FFC00FFE0
7FF8007FF0
7FF8007FF0
7FF0003FF0
FFF0003FF0
FFE0003FF8
FFE0003FF8
FFE0003FF8
FFFFFFFFF8
FFFFFFFFF8
FFFFFFFFF8
FFFFFFFFF8
FFFFFFFFF8
FFFFFFFFF8
FFFFFFFFF8
FFE0000000
FFE0000000
FFE0000000
FFF0000000
7FF0000000
7FF8000300
7FFC000780
3FFE001FC0
3FFF807FC0
1FFFFFFFE0
0FFFFFFFF0
07FFFFFFE0
03FFFFFFC0
01FFFFFF80
00FFFFFF00
003FFFFC00
000FFFF000
00007F0000
ENDCHAR
STARTCHAR 011C
ENCODING 284
SWIDTH 681 0
DWIDTH 53 0
BBX 45 72 4 -1
BITMAP
00001FC00000
00003FE00000
00007FF00000
0000FFF80000
0001FFFC0000
0003FFFE0000
0007FDFF0000
000FF8FF8000
001FF07FC000
003FE03FE000
00FFC01FF800
000000000000
000000000000
000000000000
000000000000
00007FF80000
0003FFFF8000
000FFFFFE000
003FFFFFF800
007FFFFFFC00
01FFFFFFFE00
03FFFFFFFF00
07FFFFFFFF80
07FFFFFFFFC0
0FFFE00FFFC0
1FFF8003FFE0
1FFF0001FFE0
3FFE0000FFE0
3FFC0000FFF0
3FFC00007FF0
7FF800007FF0
7FF800007FF0
7FF000003FF8
FFF000000000
FFF000000000
FFF000000000
FFE000000000
FFE000000000
FFE000000000
FFE000000000
FFE000000000
FFE000000000
FFE001FFFFF8
FFE001FFFFF8
FFE001FFFFF8
FFE001FFFFF8
FFE001FFFFF8
FFE001FFFFF8
FFE001FFFFF8
FFE001FFFFF8
FFF000007FF8
FFF000007FF8
FFF000007FF8
FFF000007FF8
7FF800007FF8
7FF800007FF8
7FF800007FF8
3FFC00007FF8
3FFE00007FF8
1FFE00007FF8
1FFF80007FF8
0FFFC001FFF8
0FFFF80FFFF8
07FFFFFFFFF8
03FFFFFFFFF0
01FFFFFFFFE0
00FFFFFFFFC0
007FFFFFFF80
001FFFFFFE00
0007FFFFF800
0001FFFFC000
00000FF00000
ENDCHAR
STARTCHAR 011D
ENCODING 285
SWIDTH 565 0
DWIDTH 44 0
BBX 37 74 3 -16
BITMAP
0003FC0000
0007FE0000
000FFF0000
001FFF8000
003FFFE000
007FFFF000
01FF9FF800
03FF07FC00
07FC03FE00
0FF801FF00
0FF000FF80
0000000000
0000000000
0000000000
0000000000
0000000000
0007F00000
003FFE1FF8
00FFFF1FF8
03FFFFDFF8
07FFFFFFF8
0FFFFFFFF8
0FFFFFFFF8
1FFFFFFFF8
3FFFFFFFF8
3FFF01FFF8
7FFC00FFF8
7FF8007FF8
7FF8003FF8
7FF0003FF8
FFF0003FF8
FFE0003FF8
FFE0003FF8
FFE0003FF8
FFE0003FF8
FFE0003FF8
FFE0003FF8
FFE0003FF8
FFE0003FF8
FFE0003FF8
FFE0003FF8
FFE0003FF8
FFE0003FF8
FFE0003FF8
FFF0003FF8
7FF0003FF8
7FF8003FF8
7FF8007FF8
3FFC00FFF8
3FFF01FFF8
1FFFFFFFF8
1FFFFFFFF8
0FFFFFFFF8
07FFFFFFF8
03FFFFFFF8
01FFFFBFF8
00FFFF3FF8
003FFC3FF8
0003E03FF8
0000003FF8
0000003FF8
0000007FF8
0300007FF0
078000FFF0
07E001FFF0
0FFC0FFFE0
1FFFFFFFE0
3FFFFFFFC0
1FFFFFFF80
0FFFFFFF00
07FFFFFE00
01FFFFF800
007FFFE000
000FFF0000
ENDCHAR
STARTCHAR 011E
ENCODING 286
SWIDTH 681 0
DWIDTH 53 0
BBX 45 71 4 -1
BITMAP
007F800FF000
007F800FF000
003FC01FE000
003FC01FE000
003FF07FE000
001FFFFFC000
001FFFFFC000
000FFFFF8000
0007FFFE0000
0001FFFC0000
00003FE00000
000000000000
000000000000
000000000000
00007FF80000
0003FFFF8000
000FFFFFE000
003FFFFFF800
007FFFFFFC00
01FFFFFFFE00
03FFFFFFFF00
07FFFFFFFF80
07FFFFFFFFC0
0FFFE00FFFC0
1FFF8003FFE0
1FFF0001FFE0
3FFE0000FFE0
3FFC0000FFF0
3FFC00007FF0
7FF800007FF0
7FF800007FF0
7FF000003FF8
FFF000000000
FFF000000000
FFF000000000
FFE000000000
FFE000000000
FFE000000000
FFE000000000
FFE000000000
FFE000000000
FFE001FFFFF8
FFE001FFFFF8
FFE001FFFFF8
FFE001FFFFF8
FFE001FFFFF8
FFE001FFFFF8
FFE001FFFFF8
FFE001FFFFF8
FFF000007FF8
FFF000007FF8
FFF000007FF8
FFF000007FF8
7FF800007FF8
7FF800007FF8
7FF800007FF8
3FFC00007FF8
3FFE00007FF8
1FFE00007FF8
1FFF80007FF8
0FFFC001FFF8
0FFFF80FFFF8
07FFFFFFFFF8
03FFFFFFFFF0
01FFFFFFFFE0
00FFFFFFFFC0
007FFFFFFF80
001FFFFFFE00
0007FFFFF800
0001FFFFC000
00000FF00000
ENDCHAR
STARTCHAR 011F
ENCODING 287
SWIDTH 565 0
DWIDTH 44 0
BBX 37 74 3 -16
BITMAP
07F801FE00
07F801FE00
07F801FE00
07FC03FE00
03FE07FC00
03FFFFFC00
01FFFFF800
00FFFFF000
007FFFE000
003FFFC000
0007FE0000
0000000000
0000000000
0000000000
0000000000
0000000000
0007F00000
003FFE1FF8
00FFFF1FF8
03FFFFDFF8
07FFFFFFF8
0FFFFFFFF8
0FFFFFFFF8
1FFFFFFFF8
3FFFFFFFF8
3FFF01FFF8
7FFC00FFF8
7FF8007FF8
7FF8003FF8
7FF0003FF8
FFF0003FF8
FFE0003FF8
FFE0003FF8
FFE0003FF8
FFE0003FF8
FFE0003FF8
FFE0003FF8
FFE0003FF8
FFE0003FF8
FFE0003FF8
FFE0003FF8
FFE0003FF8
FFE0003FF8
FFE0003FF8
FFF0003FF8
7FF0003FF8
7FF8003FF8
7FF8007FF8
3FFC00FFF8
3FFF01FFF8
1FFFFFFFF8
1FFFFFFFF8
0FFFFFFFF8
07FFFFFFF8
03FFFFFFF8
01FFFFBFF8
00FFFF3FF8
003FFC3FF8
0003E03FF8
0000003FF8
0000003FF8
0000007FF8
0300007FF0
078000FFF0
07E001FFF0
0FFC0FFFE0
1FFFFFFFE0
3FFFFFFFC0
1FFFFFFF80
0FFFFFFF00
07FFFFFE00
01FFFFF800
007FFFE000
000FFF0000
ENDCHAR
STARTCHAR 0120
ENCODING 288
SWIDTH 681 0
DWIDTH 53 0
BBX 45 71 4 -1
BITMAP
00000F800000
00003FE00000
00007FE00000
00007FF00000
00007FF00000
00007FF00000
00007FF00000
00007FE00000
00003FE00000
00000F800000
000000000000
000000000000
000000000000
000000000000
00007FF80000
0003FFFF8000
000FFFFFE000
003FFFFFF800
007FFFFFFC00
01FFFFFFFE00
03FFFFFFFF00
07FFFFFFFF80
07FFFFFFFFC0
0FFFE00FFFC0
1FFF8003FFE0
1FFF0001FFE0
3FFE0000FFE0
3FFC0000FFF0
3FFC00007FF0
7FF800007FF0
7FF800007FF0
7FF000003FF8
FFF000000000
FFF000000000
FFF000000000
FFE000000000
FFE000000000
FFE000000000
FFE000000000
FFE000000000
FFE000000000
FFE001FFFFF8
FFE001FFFFF8
FFE001FFFFF8
FFE001FFFFF8
FFE001FFFFF8
FFE001FFFFF8
FFE001FFFFF8
FFE001FFFFF8
FFF000007FF8
FFF000007FF8
FFF000007FF8
FFF000007FF8
7FF800007FF8
7FF800007FF8
7FF800007FF8
3FFC00007FF8
3FFE00007FF8
1FFE00007FF8
1FFF80007FF8
0FFFC001FFF8
0FFFF80FFFF8
07FFFFFFFFF8
03FFFFFFFFF0
01FFFFFFFFE0
00FFFFFFFFC0
007FFFFFFF80
001FFFFFFE00
0007FFFFF800
0001FFFFC000
00000FF00000
ENDCHAR
STARTCHAR 0121
ENCODING 289
SWIDTH 565 0
DWIDTH 44 0
BBX 37 74 3 -16
BITMAP
0000F00000
0003FC0000
0007FE0000
0007FE0000
000FFF0000
000FFF0000
0007FE0000
0007FE0000
0003FC0000
0001F80000
0000000000
0000000000
0000000000
0000000000
0000000000
0000000000
0007F00000
003FFE1FF8
00FFFF1FF8
03FFFFDFF8
07FFFFFFF8
0FFFFFFFF8
0FFFFFFFF8
1FFFFFFFF8
3FFFFFFFF8
3FFF01FFF8
7FFC00FFF8
7FF8007FF8
7FF8003FF8
7FF0003FF8
FFF0003FF8
FFE0003FF8
FFE0003FF8
FFE0003FF8
FFE0003FF8
FFE0003FF8
FFE0003FF8
FFE0003FF8
FFE0003FF8
FFE0003FF8
FFE0003FF8
FFE0003FF8
FFE0003FF8
FFE0003FF8
FFF0003FF8
7FF0003FF8
7FF8003FF8
7FF8007FF8
3FFC00FFF8
3FFF01FFF8
1FFFFFFFF8
1FFFFFFFF8
0FFFFFFFF8
07FFFFFFF8
03FFFFFFF8
01FFFFBFF8
00FFFF3FF8
003FFC3FF8
0003E03FF8
0000003FF8
0000003FF8
0000007FF8
0300007FF0
078000FFF0
07E001FFF0
0FFC0FFFE0
1FFFFFFFE0
3FFFFFFFC0
1FFFFFFF80
0FFFFFFF00
07FFFFFE00
01FFFFF800
007FFFE000
000FFF0000
ENDCHAR
STARTCHAR 0122
ENCODING 290
SWIDTH 681 0
DWIDTH 53 0
BBX 45 75 4 -20
BITMAP
00007FF80000
0003FFFF8000
000FFFFFE000
003FFFFFF800
007FFFFFFC00
01FFFFFFFE00
03FFFFFFFF00
07FFFFFFFF80
07FFFFFFFFC0
0FFFE00FFFC0
1FFF8003FFE0
1FFF0001FFE0
3FFE0000FFE0
3FFC0000FFF0
3FFC00007FF0
7FF800007FF0
7FF800007FF0
7FF000003FF8
FFF000000000
FFF000000000
FFF000000000
FFE000000000
FFE000000000
FFE000000000
FFE000000000
FFE000000000
FFE000000000
FFE001FFFFF8
FFE001FFFFF8
FFE001FFFFF8
FFE001FFFFF8
FFE001FFFFF8
FFE001FFFFF8
FFE001FFFFF8
FFE001FFFFF8
FFF000007FF8
FFF000007FF8
FFF000007FF8
FFF000007FF8
7FF800007FF8
7FF800007FF8
7FF800007FF8
3FFC00007FF8
3FFE00007FF8
1FFE00007FF8
1FFF80007FF8
0FFFC001FFF8
0FFFF80FFFF8
07FFFFFFFFF8
03FFFFFFFFF0
01FFFFFFFFE0
00FFFFFFFFC0
007FFFFFFF80
001FFFFFFE00
0007FFFFF800
0001FFFFC000
00000FF00000
000000000000
000000000000
000000000000
00000FF00000
00000FF00000
00000FF00000
00000FF00000
00000FF00000
00000FE00000
00001FE00000
00001FE00000
00001FE00000
00001FC00000
00003FC00000
00003F800000
00007F800000
00003F000000
00000E000000
ENDCHAR
STARTCHAR 0123
ENCODING 291
SWIDTH 565 0
DWIDTH 44 0
BBX 37 81 3 -16
BITMAP
0000300000
00007C0000
0000FF0000
0000FF0000
0001FF0000
0001FE0000
0001FE0000
0003FE0000
0003FE0000
0003FC0000
0003FC0000
0003FC0000
0003FC0000
0003FC0000
0003FC0000
0003FC0000
0003FC0000
0000000000
0000000000
0000000000
0000000000
0000000000
0000000000
0007F00000
003FFE1FF8
00FFFF1FF8
03FFFFDFF8
07FFFFFFF8
0FFFFFFFF8
0FFFFFFFF8
1FFFFFFFF8
3FFFFFFFF8
3FFF01FFF8
7FFC00FFF8
7FF8007FF8
7FF8003FF8
7FF0003FF8
FFF0003FF8
FFE0003FF8
FFE0003FF8
FFE0003FF8
FFE0003FF8
FFE0003FF8
FFE0003FF8
FFE0003FF8
FFE0003FF8
FFE0003FF8
FFE0003FF8
FFE0003FF8
FFE0003FF8
FFE0003FF8
FFF0003FF8
7FF0003FF8
7FF8003FF8
7FF8007FF8
3FFC00FFF8
3FFF01FFF8
1FFFFFFFF8
1FFFFFFFF8
0FFFFFFFF8
07FFFFFFF8
03FFFFFFF8
01FFFFBFF8
00FFFF3FF8
003FFC3FF8
0003E03FF8
0000003FF8
0000003FF8
0000007FF8
0300007FF0
078000FFF0
07E001FFF0
0FFC0FFFE0
1FFFFFFFE0
3FFFFFFFC0
1FFFFFFF80
0FFFFFFF00
07FFFFFE00
01FFFFF800
007FFFE000
000FFF0000
ENDCHAR
STARTCHAR 0124
ENCODING 292
SWIDTH 694 0
DWIDTH 54 0
BBX 45 70 5 0
BITMAP
00003FC00000
00007FF00000
0000FFF80000
0001FFFC0000
0003FFFE0000
0007FDFF0000
000FF8FF8000
001FF07FC000
003FE03FE000
007FC01FF000
00FF800FF800
000000000000
000000000000
000000000000
000000000000
FFE000003FF8
FFE000003FF8
FFE000003FF8
FFE000003FF8
FFE000003FF8
FFE000003FF8
FFE000003FF8
FFE000003FF8
FFE000003FF8
FFE000003FF8
FFE000003FF8
FFE000003FF8
FFE000003FF8
FFE000003FF8
FFE000003FF8
FFE000003FF8
FFE000003FF8
FFE000003FF8
FFE000003FF8
FFE000003FF8
FFE000003FF8
FFE000003FF8
FFFFFFFFFFF8
FFFFFFFFFFF8
FFFFFFFFFFF8
FFFFFFFFFFF8
FFFFFFFFFFF8
FFFFFFFFFFF8
FFFFFFFFFFF8
FFFFFFFFFFF8
FFFFFFFFFFF8
FFE000003FF8
FFE000003FF8
FFE000003FF8
FFE000003FF8
FFE000003FF8
FFE000003FF8
FFE000003FF8
FFE000003FF8
FFE000003FF8
FFE000003FF8
FFE000003FF8
FFE000003FF8
FFE000003FF8
FFE000003FF8
FFE000003FF8
FFE000003FF8
FFE000003FF8
FFE000003FF8
FFE000003FF8
FFE000003FF8
FFE000003FF8
FFE000003FF8
FFE000003FF8
FFE000003FF8
ENDCHAR
STARTCHAR 0125
ENCODING 293
SWIDTH 552 0
DWIDTH 43 0
BBX 36 73 4 0
BITMAP
0007E00000
001FF00000
003FF80000
007FFE0000
00FFFF0000
01FFFF8000
03FE7FC000
07FC3FE000
0FF81FF000
1FF00FF800
3FE007FC00
0000000000
0000000000
0000000000
0000000000
FFE0000000
FFE0000000
FFE0000000
FFE0000000
FFE0000000
FFE0000000
FFE0000000
FFE0000000
FFE0000000
FFE0000000
FFE0000000
FFE0000000
FFE0000000
FFE0000000
FFE0000000
FFE0000000
FFE01FC000
FFE0FFF800
FFE3FFFC00
FFE7FFFF00
FFEFFFFF00
FFFFFFFF80
FFFFFFFFC0
FFFFFFFFC0
FFFFFFFFC0
FFFC03FFE0
FFF801FFE0
FFF000FFE0
FFE000FFE0
FFE000FFE0
FFE000FFE0
FFE000FFF0
FFE0007FF0
FFE0007FF0
FFE0007FF0
FFE0007FF0
FFE0007FF0
FFE0007FF0
FFE0007FF0
FFE0007FF0
FFE0007FF0
FFE0007FF0
FFE0007FF0
FFE0007FF0
FFE0007FF0
FFE0007FF0
FFE0007FF0
FFE0007FF0
FFE0007FF0
FFE0007FF0
FFE0007FF0
FFE0007FF0
FFE0007FF0
FFE0007FF0
FFE0007FF0
FFE0007FF0
FFE0007FF0
FFE0007FF0
ENDCHAR
STARTCHAR 0126
ENCODING 294
SWIDTH 707 0
DWIDTH 55 0
BBX 54 55 1 0
BITMAP
0FFF000003FFC0
0FFF000003FFC0
0FFF000003FFC0
0FFF000003FFC0
0FFF000003FFC0
0FFF000003FFC0
0FFF000003FFC0
0FFF000003FFC0
0FFF000003FFC0
FFFFFFFFFFFFFC
FFFFFFFFFFFFFC
FFFFFFFFFFFFFC
FFFFFFFFFFFFFC
FFFFFFFFFFFFFC
FFFFFFFFFFFFFC
0FFF000003FFC0
0FFF000003FFC0
0FFF000003FFC0
0FFF000003FFC0
0FFF000003FFC0
0FFF000003FFC0
0FFF000003FFC0
0FFFFFFFFFFFC0
0FFFFFFFFFFFC0
0FFFFFFFFFFFC0
0FFFFFFFFFFFC0
0FFFFFFFFFFFC0
0FFFFFFFFFFFC0
0FFFFFFFFFFFC0
0FFFFFFFFFFFC0
0FFFFFFFFFFFC0
0FFF000003FFC0
0FFF000003FFC0
0FFF000003FFC0
0FFF000003FFC0
0FFF000003FFC0
0FFF000003FFC0
0FFF000003FFC0
0FFF000003FFC0
0FFF000003FFC0
0FFF000003FFC0
0FFF000003FFC0
0FFF000003FFC0
0FFF000003FFC0
0FFF000003FFC0
0FFF000003FFC0
0FFF000003FFC0
0FFF000003FFC0
0FFF000003FFC0
0FFF000003FFC0
0FFF000003FFC0
0FFF000003FFC0
0FFF000003FFC0
0FFF000003FFC0
0FFF000003FFC0
ENDCHAR
STARTCHAR 0127
ENCODING 295
SWIDTH 565 0
DWIDTH 44 0
BBX 42 58 -1 0
BITMAP
03FF80000000
03FF80000000
03FF80000000
03FF80000000
03FF80000000
FFFFFFE00000
FFFFFFE00000
FFFFFFE00000
FFFFFFE00000
FFFFFFE00000
FFFFFFE00000
FFFFFFE00000
03FF80000000
03FF80000000
03FF80000000
03FF80000000
03FF807F0000
03FF83FFE000
03FF8FFFF000
03FF9FFFFC00
03FFBFFFFE00
03FFFFFFFE00
03FFFFFFFF00
03FFFFFFFF00
03FFFFFFFF80
03FFF00FFF80
03FFE007FF80
03FFC003FF80
03FF8003FF80
03FF8003FFC0
03FF8001FFC0
03FF8001FFC0
03FF8001FFC0
03FF8001FFC0
03FF8001FFC0
03FF8001FFC0
03FF8001FFC0
03FF8001FFC0
03FF8001FFC0
03FF8001FFC0
03FF8001FFC0
03FF8001FFC0
03FF8001FFC0
03FF8001FFC0
03FF8001FFC0
03FF8001FFC0
03FF8001FFC0
03FF8001FFC0
03FF8001FFC0
03FF8001FFC0
03FF8001FFC0
03FF8001FFC0
03FF8001FFC0
03FF8001FFC0
03FF8001FFC0
03FF8001FFC0
03FF8001FFC0
03FF8001FFC0
ENDCHAR
STARTCHAR 0128
ENCODING 296
SWIDTH 282 0
DWIDTH 22 0
BBX 29 70 -3 0
BITMAP
01C003F8
0FF803F8
1FFE07F0
3FFFCFF0
3FFFFFF0
7FFFFFE0
7FFFFFE0
FF0FFFC0
FE03FF80
FC00FF00
3C000000
00000000
00000000
00000000
00000000
007FF000
007FF000
007FF000
007FF000
007FF000
007FF000
007FF000
007FF000
007FF000
007FF000
007FF000
007FF000
007FF000
007FF000
007FF000
007FF000
007FF000
007FF000
007FF000
007FF000
007FF000
007FF000
007FF000
007FF000
007FF000
007FF000
007FF000
007FF000
007FF000
007FF000
007FF000
007FF000
007FF000
007FF000
007FF000
007FF000
007FF000
007FF000
007FF000
007FF000
007FF000
007FF000
007FF000
007FF000
007FF000
007FF000
007FF000
007FF000
007FF000
007FF000
007FF000
007FF000
007FF000
007FF000
007FF000
ENDCHAR
STARTCHAR 0129
ENCODING 297
SWIDTH 270 0
DWIDTH 21 0
BBX 29 58 -4 0
BITMAP
00000100
03F003F8
0FFC03F8
1FFF07F8
3FFFFFF0
3FFFFFF0
7FFFFFE0
7FFFFFE0
7F03FFC0
FE01FF80
FE003E00
00000000
00000000
00000000
00000000
00000000
00000000
007FF000
007FF000
007FF000
007FF000
007FF000
007FF000
007FF000
007FF000
007FF000
007FF000
007FF000
007FF000
007FF000
007FF000
007FF000
007FF000
007FF000
007FF000
007FF000
007FF000
007FF000
007FF000
007FF000
007FF000
007FF000
007FF000
007FF000
007FF000
007FF000
007FF000
007FF000
007FF000
007FF000
007FF000
007FF000
007FF000
007FF000
007FF000
007FF000
007FF000
007FF000
ENDCHAR
STARTCHAR 012A
ENCODING 298
SWIDTH 282 0
DWIDTH 22 0
BBX 26 67 -2 0
BITMAP
FFFFFFC0
FFFFFFC0
FFFFFFC0
FFFFFFC0
FFFFFFC0
FFFFFFC0
00000000
00000000
00000000
00000000
00000000
00000000
00FFE000
00FFE000
00FFE000
00FFE000
00FFE000
00FFE000
00FFE000
00FFE000
00FFE000
00FFE000
00FFE000
00FFE000
00FFE000
00FFE000
00FFE000
00FFE000
00FFE000
00FFE000
00FFE000
00FFE000
00FFE000
00FFE000
00FFE000
00FFE000
00FFE000
00FFE000
00FFE000
00FFE000
00FFE000
00FFE000
00FFE000
00FFE000
00FFE000
00FFE000
00FFE000
00FFE000
00FFE000
00FFE000
00FFE000
00FFE000
00FFE000
00FFE000
00FFE000
00FFE000
00FFE000
00FFE000
00FFE000
00FFE000
00FFE000
00FFE000
00FFE000
00FFE000
00FFE000
00FFE000
00FFE000
ENDCHAR
STARTCHAR 012B
ENCODING 299
SWIDTH 270 0
DWIDTH 21 0
BBX 26 55 -2 0
BITMAP
FFFFFFC0
FFFFFFC0
FFFFFFC0
FFFFFFC0
FFFFFFC0
FFFFFFC0
FFFFFFC0
00000000
00000000
00000000
00000000
00000000
00000000
00000000
01FFC000
01FFC000
01FFC000
01FFC000
01FFC000
01FFC000
01FFC000
01FFC000
01FFC000
01FFC000
01FFC000
01FFC000
01FFC000
01FFC000
01FFC000
01FFC000
01FFC000
01FFC000
01FFC000
01FFC000
01FFC000
01FFC000
01FFC000
01FFC000
01FFC000
01FFC000
01FFC000
01FFC000
01FFC000
01FFC000
01FFC000
01FFC000
01FFC000
01FFC000
01FFC000
01FFC000
01FFC000
01FFC000
01FFC000
01FFC000
01FFC000
ENDCHAR
STARTCHAR 012C
ENCODING 300
SWIDTH 282 0
DWIDTH 22 0
BBX 27 70 -2 0
BITMAP
FF001FE0
FF001FC0
FF003FC0
7F803FC0
7FC07FC0
7FFFFF80
3FFFFF80
1FFFFF00
0FFFFE00
07FFF800
00FFE000
00000000
00000000
00000000
00000000
00FFE000
00FFE000
00FFE000
00FFE000
00FFE000
00FFE000
00FFE000
00FFE000
00FFE000
00FFE000
00FFE000
00FFE000
00FFE000
00FFE000
00FFE000
00FFE000
00FFE000
00FFE000
00FFE000
00FFE000
00FFE000
00FFE000
00FFE000
00FFE000
00FFE000
00FFE000
00FFE000
00FFE000
00FFE000
00FFE000
00FFE000
00FFE000
00FFE000
00FFE000
00FFE000
00FFE000
00FFE000
00FFE000
00FFE000
00FFE000
00FFE000
00FFE000
00FFE000
00FFE000
00FFE000
00FFE000
00FFE000
00FFE000
00FFE000
00FFE000
00FFE000
00FFE000
00FFE000
00FFE000
00FFE000
ENDCHAR
STARTCHAR 012D
ENCODING 301
SWIDTH 270 0
DWIDTH 21 0
BBX 27 57 -3 0
BITMAP
FF001FE0
7F001FE0
7F803FC0
7FC03FC0
7FF1FFC0
3FFFFF80
1FFFFF00
0FFFFE00
07FFFC00
01FFF000
003F8000
00000000
00000000
00000000
00000000
00000000
00FFE000
00FFE000
00FFE000
00FFE000
00FFE000
00FFE000
00FFE000
00FFE000
00FFE000
00FFE000
00FFE000
00FFE000
00FFE000
00FFE000
00FFE000
00FFE000
00FFE000
00FFE000
00FFE000
00FFE000
00FFE000
00FFE000
00FFE000
00FFE000
00FFE000
00FFE000
00FFE000
00FFE000
00FFE000
00FFE000
00FFE000
00FFE000
00FFE000
00FFE000
00FFE000
00FFE000
00FFE000
00FFE000
00FFE000
00FFE000
00FFE000
ENDCHAR
STARTCHAR 012E
ENCODING 302
SWIDTH 282 0
DWIDTH 22 0
BBX 16 71 1 -16
BITMAP
07FF
07FF
07FF
07FF
07FF
07FF
07FF
07FF
07FF
07FF
07FF
07FF
07FF
07FF
07FF
07FF
07FF
07FF
07FF
07FF
07FF
07FF
07FF
07FF
07FF
07FF
07FF
07FF
07FF
07FF
07FF
07FF
07FF
07FF
07FF
07FF
07FF
07FF
07FF
07FF
07FF
07FF
07FF
07FF
07FF
07FF
07FF
07FF
07FF
07FF
07FF
07FF
07FF
07FF
07FF
0FF8
1FE0
3FC0
7F80
7F80
FF00
FF00
FF00
FF84
FFFC
FFFC
7FFC
7FFC
3FFE
1FFC
03F0
ENDCHAR
STARTCHAR 012F
ENCODING 303
SWIDTH 257 0
DWIDTH 20 0
BBX 16 73 0 -16
BITMAP
01FC
03FE
07FF
0FFF
0FFF
0FFF
0FFF
07FF
07FE
03FC
0070
0000
0000
0000
0000
0000
07FF
07FF
07FF
07FF
07FF
07FF
07FF
07FF
07FF
07FF
07FF
07FF
07FF
07FF
07FF
07FF
07FF
07FF
07FF
07FF
07FF
07FF
07FF
07FF
07FF
07FF
07FF
07FF
07FF
07FF
07FF
07FF
07FF
07FF
07FF
07FF
07FF
07FF
07FF
07FF
07FF
0FF8
1FF0
3FE0
7FC0
7F80
7F00
FF00
FF00
FF80
FFFC
FFFC
7FFC
7FFE
3FFE
1FFE
07F8
ENDCHAR
STARTCHAR 0130
ENCODING 304
SWIDTH 282 0
DWIDTH 22 0
BBX 11 70 6 0
BITMAP
1E00
7F80
FFC0
FFE0
FFE0
FFE0
FFE0
FFC0
7FC0
3F80
0000
0000
0000
0000
0000
FFE0
FFE0
FFE0
FFE0
FFE0
FFE0
FFE0
FFE0
FFE0
FFE0
FFE0
FFE0
FFE0
FFE0
FFE0
FFE0
FFE0
FFE0
FFE0
FFE0
FFE0
FFE0
FFE0
FFE0
FFE0
FFE0
FFE0
FFE0
FFE0
FFE0
FFE0
FFE0
FFE0
FFE0
FFE0
FFE0
FFE0
FFE0
FFE0
FFE0
FFE0
FFE0
FFE0
FFE0
FFE0
FFE0
FFE0
FFE0
FFE0
FFE0
FFE0
FFE0
FFE0
FFE0
FFE0
ENDCHAR
STARTCHAR 0131
ENCODING 305
SWIDTH 270 0
DWIDTH 21 0
BBX 11 41 5 0
BITMAP
FFE0
FFE0
FFE0
FFE0
FFE0
FFE0
FFE0
FFE0
FFE0
FFE0
FFE0
FFE0
FFE0
FFE0
FFE0
FFE0
FFE0
FFE0
FFE0
FFE0
FFE0
FFE0
FFE0
FFE0
FFE0
FFE0
FFE0
FFE0
FFE0
FFE0
FFE0
FFE0
FFE0
FFE0
FFE0
FFE0
FFE0
FFE0
FFE0
FFE0
FFE0
ENDCHAR
STARTCHAR 0132
ENCODING 306
SWIDTH 848 0
DWIDTH 66 0
BBX 55 56 6 -1
BITMAP
FFE00000000FFE
FFE00000000FFE
FFE00000000FFE
FFE00000000FFE
FFE00000000FFE
FFE00000000FFE
FFE00000000FFE
FFE00000000FFE
FFE00000000FFE
FFE00000000FFE
FFE00000000FFE
FFE00000000FFE
FFE00000000FFE
FFE00000000FFE
FFE00000000FFE
FFE00000000FFE
FFE00000000FFE
FFE00000000FFE
FFE00000000FFE
FFE00000000FFE
FFE00000000FFE
FFE00000000FFE
FFE00000000FFE
FFE00000000FFE
FFE00000000FFE
FFE00000000FFE
FFE00000000FFE
FFE00000000FFE
FFE00000000FFE
FFE00000000FFE
FFE00000000FFE
FFE00000000FFE
FFE00000000FFE
FFE00000000FFE
FFE00000000FFE
FFE00000000FFE
FFE00000000FFE
FFE00000000FFE
FFE00000000FFE
FFE03FFC000FFE
FFE03FFC000FFE
FFE03FFC000FFE
FFE01FFC001FFE
FFE01FFE001FFE
FFE01FFE003FFC
FFE01FFF007FFC
FFE00FFFC1FFFC
FFE00FFFFFFFF8
FFE007FFFFFFF0
FFE003FFFFFFF0
FFE003FFFFFFE0
FFE001FFFFFFC0
FFE0007FFFFF00
FFE0003FFFFE00
FFE00007FFF000
000000003F8000
ENDCHAR
STARTCHAR 0133
ENCODING 307
SWIDTH 514 0
DWIDTH 40 0
BBX 33 74 4 -17
BITMAP
1FC001FC00
3FE003FE00
7FF007FF00
FFF007FF80
FFF007FF80
FFF007FF80
FFF007FF80
7FF007FF00
7FE003FF00
3FC001FE00
0700007000
0000000000
0000000000
0000000000
0000000000
0000000000
7FF007FF00
7FF007FF00
7FF007FF00
7FF007FF00
7FF007FF00
7FF007FF00
7FF007FF00
7FF007FF00
7FF007FF00
7FF007FF00
7FF007FF00
7FF007FF00
7FF007FF00
7FF007FF00
7FF007FF00
7FF007FF00
7FF007FF00
7FF007FF00
7FF007FF00
7FF007FF00
7FF007FF00
7FF007FF00
7FF007FF00
7FF007FF00
7FF007FF00
7FF007FF00
7FF007FF00
7FF007FF00
7FF007FF00
7FF007FF00
7FF007FF00
7FF007FF00
7FF007FF00
7FF007FF00
7FF007FF00
7FF007FF00
7FF007FF00
7FF007FF00
7FF007FF00
7FF007FF00
7FF007FF00
000007FF00
000007FF00
000007FF00
000007FF00
000007FF00
000007FF00
00000FFF00
00001FFF00
0007FFFE00
0007FFFE00
0007FFFE00
0007FFFC00
0007FFF800
0007FFF000
0007FFE000
0007FF8000
0000E00000
ENDCHAR
STARTCHAR 0134
ENCODING 308
SWIDTH 552 0
DWIDTH 43 0
BBX 45 71 2 -1
BITMAP
0000001FC000
0000003FE000
0000007FF800
000001FFFC00
000003FFFE00
000007FDFF00
00000FF8FF80
00001FF07FC0
00003FE03FE0
00007FC01FF0
0000FF800FF8
000000000000
000000000000
000000000000
000000000000
0000007FF800
0000007FF800
0000007FF800
0000007FF800
0000007FF800
0000007FF800
0000007FF800
0000007FF800
0000007FF800
0000007FF800
0000007FF800
0000007FF800
0000007FF800
0000007FF800
0000007FF800
0000007FF800
0000007FF800
0000007FF800
0000007FF800
0000007FF800
0000007FF800
0000007FF800
0000007FF800
0000007FF800
0000007FF800
0000007FF800
0000007FF800
0000007FF800
0000007FF800
0000007FF800
0000007FF800
0000007FF800
0000007FF800
0000007FF800
0000007FF800
0000007FF800
0000007FF800
0000007FF800
0000007FF800
FFE0007FF800
FFE0007FF800
FFE0007FF000
FFE0007FF000
FFF000FFF000
FFF001FFF000
7FF803FFE000
7FFE07FFE000
7FFFFFFFC000
3FFFFFFFC000
1FFFFFFF8000
0FFFFFFF0000
07FFFFFE0000
03FFFFF80000
00FFFFF00000
003FFFC00000
0001FC000000
ENDCHAR
STARTCHAR 0135
ENCODING 309
SWIDTH 270 0
DWIDTH 21 0
BBX 29 74 -4 -17
BITMAP
003FC000
007FF000
00FFF800
01FFFC00
03FFFE00
07FDFF00
0FF8FF80
1FF07FC0
3FE03FE0
7FC01FF0
FF800FF8
00000000
00000000
00000000
00000000
00000000
003FF800
003FF800
003FF800
003FF800
003FF800
003FF800
003FF800
003FF800
003FF800
003FF800
003FF800
003FF800
003FF800
003FF800
003FF800
003FF800
003FF800
003FF800
003FF800
003FF800
003FF800
003FF800
003FF800
003FF800
003FF800
003FF800
003FF800
003FF800
003FF800
003FF800
003FF800
003FF800
003FF800
003FF800
003FF800
003FF800
003FF800
003FF800
003FF800
003FF800
003FF800
003FF800
003FF800
003FF800
003FF800
007FF000
007FF000
00FFF000
01FFF000
7FFFE000
7FFFE000
7FFFE000
7FFFC000
7FFF8000
7FFF0000
7FFE0000
7FF00000
0E000000
ENDCHAR
STARTCHAR 0136
ENCODING 310
SWIDTH 630 0
DWIDTH 49 0
BBX 45 72 5 -17
BITMAP
FFE00003FFF0
FFE00007FFE0
FFE0000FFFC0
FFE0000FFF80
FFE0001FFF80
FFE0003FFF00
FFE0007FFE00
FFE000FFFC00
FFE000FFF800
FFE001FFF800
FFE003FFF000
FFE007FFE000
FFE007FFC000
FFE00FFF8000
FFE01FFF8000
FFE03FFF0000
FFE03FFE0000
FFE07FFC0000
FFE0FFF80000
FFE1FFF80000
FFE1FFF00000
FFE3FFE00000
FFE7FFC00000
FFEFFF800000
FFEFFF800000
FFFFFFC00000
FFFFFFC00000
FFFFFFE00000
FFFFFFF00000
FFFFFFF00000
FFFFFFF80000
FFFFFFFC0000
FFFFFFFC0000
FFFFBFFE0000
FFFF3FFF0000
FFFE1FFF0000
FFFC0FFF8000
FFF80FFFC000
FFF007FFC000
FFE003FFE000
FFE003FFF000
FFE001FFF000
FFE000FFF800
FFE000FFF800
FFE0007FFC00
FFE0007FFE00
FFE0003FFE00
FFE0001FFF00
FFE0001FFF80
FFE0000FFF80
FFE00007FFC0
FFE00007FFE0
FFE00003FFE0
FFE00001FFF0
FFE00001FFF8
000000000000
0000FF000000
0000FF000000
0000FF000000
0000FF000000
0000FF000000
0000FF000000
0000FE000000
0001FE000000
0001FE000000
0001FC000000
0003FC000000
0003FC000000
0007F8000000
0003F0000000
0001F0000000
000060000000
ENDCHAR
STARTCHAR 0137
ENCODING 311
SWIDTH 527 0
DWIDTH 41 0
BBX 38 76 4 -18
BITMAP
FFE0000000
FFE0000000
FFE0000000
FFE0000000
FFE0000000
FFE0000000
FFE0000000
FFE0000000
FFE0000000
FFE0000000
FFE0000000
FFE0000000
FFE0000000
FFE0000000
FFE0000000
FFE0000000
FFE0000000
FFE001FFF8
FFE001FFF0
FFE003FFE0
FFE007FFC0
FFE00FFF80
FFE01FFF00
FFE03FFE00
FFE07FFC00
FFE07FFC00
FFE0FFF800
FFE1FFF000
FFE3FFE000
FFE7FFC000
FFEFFF8000
FFEFFF0000
FFFFFE0000
FFFFFE0000
FFFFFE0000
FFFFFE0000
FFFFFF0000
FFFFFF8000
FFFFFF8000
FFFFFFC000
FFFFFFE000
FFFFFFE000
FFFCFFF000
FFF8FFF800
FFF07FF800
FFE03FFC00
FFE03FFE00
FFE01FFE00
FFE00FFF00
FFE00FFF80
FFE007FF80
FFE003FFC0
FFE003FFE0
FFE001FFE0
FFE000FFF0
FFE000FFF8
FFE0007FF8
FFE0007FFC
0000000000
0000000000
0007F80000
0007F80000
0007F80000
0007F80000
0007F80000
0007F80000
0007F80000
0007F80000
0007F00000
000FF00000
000FF00000
001FE00000
001FE00000
000FC00000
0007800000
0001000000
ENDCHAR
STARTCHAR 0138
ENCODING 312
SWIDTH 578 0
DWIDTH 45 0
BBX 39 41 5 0
BITMAP
FFE0007FFC
FFE000FFFC
FFE001FFF8
FFE001FFF0
FFE003FFE0
FFE007FFE0
FFE00FFFC0
FFE00FFF80
FFE01FFF80
FFE03FFF00
FFE03FFE00
FFE07FFC00
FFE0FFFC00
FFE0FFF800
FFE1FFF000
FFE3FFE000
FFFFFFE000
FFFFFFC000
FFFFFF8000
FFFFFF8000
FFFFFF8000
FFFFFFC000
FFFFFFE000
FFFFFFE000
FFFFFFF000
FFFFFFF800
FFE0FFF800
FFE07FFC00
FFE07FFE00
FFE03FFE00
FFE01FFF00
FFE01FFF80
FFE00FFFC0
FFE007FFC0
FFE007FFE0
FFE003FFF0
FFE001FFF0
FFE001FFF8
FFE000FFFC
FFE000FFFC
FFE0007FFE
ENDCHAR
STARTCHAR 0139
ENCODING 313
SWIDTH 540 0
DWIDTH 42 0
BBX 35 70 5 0
BITMAP
00FFF00000
01FFE00000
03FFC00000
03FF800000
07FF000000
07FE000000
0FFC000000
1FF8000000
1FF0000000
3FE0000000
7FE0000000
7FC0000000
0000000000
0000000000
0000000000
FFE0000000
FFE0000000
FFE0000000
FFE0000000
FFE0000000
FFE0000000
FFE0000000
FFE0000000
FFE0000000
FFE0000000
FFE0000000
FFE0000000
FFE0000000
FFE0000000
FFE0000000
FFE0000000
FFE0000000
FFE0000000
FFE0000000
FFE0000000
FFE0000000
FFE0000000
FFE0000000
FFE0000000
FFE0000000
FFE0000000
FFE0000000
FFE0000000
FFE0000000
FFE0000000
FFE0000000
FFE0000000
FFE0000000
FFE0000000
FFE0000000
FFE0000000
FFE0000000
FFE0000000
FFE0000000
FFE0000000
FFE0000000
FFE0000000
FFE0000000
FFE0000000
FFE0000000
FFE0000000
FFFFFFFFE0
FFFFFFFFE0
FFFFFFFFE0
FFFFFFFFE0
FFFFFFFFE0
FFFFFFFFE0
FFFFFFFFE0
FFFFFFFFE0
FFFFFFFFE0
ENDCHAR
STARTCHAR 013A
ENCODING 314
SWIDTH 257 0
DWIDTH 20 0
BBX 19 73 5 0
BITMAP
01FFE0
03FFC0
03FF80
07FF00
0FFE00
0FFC00
1FF800
1FF000
3FF000
7FE000
7FC000
000000
000000
000000
000000
FFE000
FFE000
FFE000
FFE000
FFE000
FFE000
FFE000
FFE000
FFE000
FFE000
FFE000
FFE000
FFE000
FFE000
FFE000
FFE000
FFE000
FFE000
FFE000
FFE000
FFE000
FFE000
FFE000
FFE000
FFE000
FFE000
FFE000
FFE000
FFE000
FFE000
FFE000
FFE000
FFE000
FFE000
FFE000
FFE000
FFE000
FFE000
FFE000
FFE000
FFE000
FFE000
FFE000
FFE000
FFE000
FFE000
FFE000
FFE000
FFE000
FFE000
FFE000
FFE000
FFE000
FFE000
FFE000
FFE000
FFE000
FFE000
ENDCHAR
STARTCHAR 013B
ENCODING 315
SWIDTH 540 0
DWIDTH 42 0
BBX 35 74 5 -19
BITMAP
FFE0000000
FFE0000000
FFE0000000
FFE0000000
FFE0000000
FFE0000000
FFE0000000
FFE0000000
FFE0000000
FFE0000000
FFE0000000
FFE0000000
FFE0000000
FFE0000000
FFE0000000
FFE0000000
FFE0000000
FFE0000000
FFE0000000
FFE0000000
FFE0000000
FFE0000000
FFE0000000
FFE0000000
FFE0000000
FFE0000000
FFE0000000
FFE0000000
FFE0000000
FFE0000000
FFE0000000
FFE0000000
FFE0000000
FFE0000000
FFE0000000
FFE0000000
FFE0000000
FFE0000000
FFE0000000
FFE0000000
FFE0000000
FFE0000000
FFE0000000
FFE0000000
FFE0000000
FFE0000000
FFFFFFFFE0
FFFFFFFFE0
FFFFFFFFE0
FFFFFFFFE0
FFFFFFFFE0
FFFFFFFFE0
FFFFFFFFE0
FFFFFFFFE0
FFFFFFFFE0
0000000000
0000000000
0000000000
0003FC0000
0003FC0000
0003FC0000
0003FC0000
0003FC0000
0003FC0000
0003F80000
0007F80000
0007F80000
0007F80000
000FF00000
000FF00000
001FE00000
001FE00000
0007C00000
0001800000
ENDCHAR
STARTCHAR 013C
ENCODING 316
SWIDTH 257 0
DWIDTH 20 0
BBX 12 77 4 -19
BITMAP
7FF0
7FF0
7FF0
7FF0
7FF0
7FF0
7FF0
7FF0
7FF0
7FF0
7FF0
7FF0
7FF0
7FF0
7FF0
7FF0
7FF0
7FF0
7FF0
7FF0
7FF0
7FF0
7FF0
7FF0
7FF0
7FF0
7FF0
7FF0
7FF0
7FF0
7FF0
7FF0
7FF0
7FF0
7FF0
7FF0
7FF0
7FF0
7FF0
7FF0
7FF0
7FF0
7FF0
7FF0
7FF0
7FF0
7FF0
7FF0
7FF0
7FF0
7FF0
7FF0
7FF0
7FF0
7FF0
7FF0
7FF0
7FF0
0000
0000
0000
3FC0
3FC0
3FC0
3FC0
3FC0
3FC0
3FC0
3FC0
3F80
7F80
7F80
FF00
FF00
FE00
3C00
0C00
ENDCHAR
STARTCHAR 013D
ENCODING 317
SWIDTH 540 0
DWIDTH 42 0
BBX 35 55 5 0
BITMAP
FFE007F800
FFE007F800
FFE007F800
FFE007F800
FFE007F800
FFE007F800
FFE007F800
FFE007F800
FFE007F000
FFE00FF000
FFE00FE000
FFE01FE000
FFE01FC000
FFE00FC000
FFE0038000
FFE0000000
FFE0000000
FFE0000000
FFE0000000
FFE0000000
FFE0000000
FFE0000000
FFE0000000
FFE0000000
FFE0000000
FFE0000000
FFE0000000
FFE0000000
FFE0000000
FFE0000000
FFE0000000
FFE0000000
FFE0000000
FFE0000000
FFE0000000
FFE0000000
FFE0000000
FFE0000000
FFE0000000
FFE0000000
FFE0000000
FFE0000000
FFE0000000
FFE0000000
FFE0000000
FFE0000000
FFFFFFFFE0
FFFFFFFFE0
FFFFFFFFE0
FFFFFFFFE0
FFFFFFFFE0
FFFFFFFFE0
FFFFFFFFE0
FFFFFFFFE0
FFFFFFFFE0
ENDCHAR
STARTCHAR 013E
ENCODING 318
SWIDTH 334 0
DWIDTH 26 0
BBX 25 58 5 0
BITMAP
FFE07F80
FFE07F80
FFE07F80
FFE07F80
FFE07F00
FFE0FF00
FFE0FF00
FFE0FF00
FFE0FE00
FFE1FE00
FFE1FE00
FFE3FC00
FFE3FC00
FFE1F800
FFE07000
FFE00000
FFE00000
FFE00000
FFE00000
FFE00000
FFE00000
FFE00000
FFE00000
FFE00000
FFE00000
FFE00000
FFE00000
FFE00000
FFE00000
FFE00000
FFE00000
FFE00000
FFE00000
FFE00000
FFE00000
FFE00000
FFE00000
FFE00000
FFE00000
FFE00000
FFE00000
FFE00000
FFE00000
FFE00000
FFE00000
FFE00000
FFE00000
FFE00000
FFE00000
FFE00000
FFE00000
FFE00000
FFE00000
FFE00000
FFE00000
FFE00000
FFE00000
FFE00000
ENDCHAR
STARTCHAR 013F
ENCODING 319
SWIDTH 540 0
DWIDTH 42 0
BBX 35 55 5 0
BITMAP
FFE0000000
FFE0000000
FFE0000000
FFE0000000
FFE0000000
FFE0000000
FFE0000000
FFE0000000
FFE0000000
FFE0000000
FFE0000000
FFE0000000
FFE0000000
FFE0000000
FFE0000000
FFE0000000
FFE0000000
FFE0000000
FFE0000000
FFE00FE000
FFE01FF000
FFE03FF000
FFE03FF800
FFE03FF800
FFE03FF800
FFE03FF000
FFE03FF000
FFE01FE000
FFE0038000
FFE0000000
FFE0000000
FFE0000000
FFE0000000
FFE0000000
FFE0000000
FFE0000000
FFE0000000
FFE0000000
FFE0000000
FFE0000000
FFE0000000
FFE0000000
FFE0000000
FFE0000000
FFE0000000
FFE0000000
FFFFFFFFE0
FFFFFFFFE0
FFFFFFFFE0
FFFFFFFFE0
FFFFFFFFE0
FFFFFFFFE0
FFFFFFFFE0
FFFFFFFFE0
FFFFFFFFE0
ENDCHAR
STARTCHAR 0140
ENCODING 320
SWIDTH 360 0
DWIDTH 28 0
BBX 26 58 5 0
BITMAP
FFE00000
FFE00000
FFE00000
FFE00000
FFE00000
FFE00000
FFE00000
FFE00000
FFE00000
FFE00000
FFE00000
FFE00000
FFE00000
FFE00000
FFE00000
FFE00000
FFE00000
FFE00000
FFE00000
FFE00000
FFE00000
FFE00000
FFE00000
FFE00000
FFE07F00
FFE0FF80
FFE1FF80
FFE1FFC0
FFE3FFC0
FFE1FFC0
FFE1FF80
FFE1FF80
FFE0FF00
FFE01800
FFE00000
FFE00000
FFE00000
FFE00000
FFE00000
FFE00000
FFE00000
FFE00000
FFE00000
FFE00000
FFE00000
FFE00000
FFE00000
FFE00000
FFE00000
FFE00000
FFE00000
FFE00000
FFE00000
FFE00000
FFE00000
FFE00000
FFE00000
FFE00000
ENDCHAR
STARTCHAR 0141
ENCODING 321
SWIDTH 552 0
DWIDTH 43 0
BBX 41 55 1 0
BITMAP
07FF80000000
07FF80000000
07FF80000000
07FF80000000
07FF80000000
07FF80000000
07FF80000000
07FF80000000
07FF80000000
07FF80000000
07FF80000000
07FF80000000
07FF80000000
07FF80000000
07FF80000000
07FF80000000
07FF80000000
07FF80000000
07FF80000000
07FF83800000
07FF9F800000
07FFFF800000
07FFFF800000
07FFFF800000
07FFFF800000
7FFFFE000000
FFFFE0000000
FFFF80000000
FFFF80000000
FFFF80000000
FFFF80000000
C7FF80000000
07FF80000000
07FF80000000
07FF80000000
07FF80000000
07FF80000000
07FF80000000
07FF80000000
07FF80000000
07FF80000000
07FF80000000
07FF80000000
07FF80000000
07FF80000000
07FF80000000
07FFFFFFFF80
07FFFFFFFF80
07FFFFFFFF80
07FFFFFFFF80
07FFFFFFFF80
07FFFFFFFF80
07FFFFFFFF80
07FFFFFFFF80
07FFFFFFFF80
ENDCHAR
STARTCHAR 0142
ENCODING 322
SWIDTH 295 0
DWIDTH 23 0
BBX 22 58 1 0
BITMAP
07FF00
07FF00
07FF00
07FF00
07FF00
07FF00
07FF00
07FF00
07FF00
07FF00
07FF00
07FF00
07FF00
07FF00
07FF00
07FF00
07FF00
07FF00
07FF00
07FF00
07FF00
07FF00
07FF1C
07FFFC
07FFFC
07FFFC
07FFFC
0FFFFC
7FFFF0
FFFF80
FFFF00
FFFF00
FFFF00
FFFF00
C7FF00
07FF00
07FF00
07FF00
07FF00
07FF00
07FF00
07FF00
07FF00
07FF00
07FF00
07FF00
07FF00
07FF00
07FF00
07FF00
07FF00
07FF00
07FF00
07FF00
07FF00
07FF00
07FF00
07FF00
ENDCHAR
STARTCHAR 0143
ENCODING 323
SWIDTH 694 0
DWIDTH 54 0
BBX 45 70 5 0
BITMAP
000000FFF000
000000FFE000
000001FFC000
000003FF8000
000003FF8000
000007FF0000
000007FE0000
00000FFC0000
00001FF80000
00001FF00000
00003FE00000
00007FC00000
000000000000
000000000000
000000000000
FFF000003FF8
FFF000003FF8
FFF800003FF8
FFFC00003FF8
FFFC00003FF8
FFFE00003FF8
FFFE00003FF8
FFFF00003FF8
FFFF80003FF8
FFFF80003FF8
FFFFC0003FF8
FFFFC0003FF8
FFFFE0003FF8
FFFFF0003FF8
FFFFF0003FF8
FFFFF8003FF8
FFFFF8003FF8
FFFFFC003FF8
FFEFFE003FF8
FFEFFE003FF8
FFE7FF003FF8
FFE7FF003FF8
FFE3FF803FF8
FFE1FFC03FF8
FFE1FFC03FF8
FFE0FFE03FF8
FFE0FFE03FF8
FFE07FF03FF8
FFE03FF83FF8
FFE03FF83FF8
FFE01FFC3FF8
FFE01FFC3FF8
FFE00FFE3FF8
FFE007FF3FF8
FFE007FF3FF8
FFE003FFBFF8
FFE003FFBFF8
FFE001FFFFF8
FFE000FFFFF8
FFE000FFFFF8
FFE0007FFFF8
FFE0007FFFF8
FFE0003FFFF8
FFE0001FFFF8
FFE0001FFFF8
FFE0000FFFF8
FFE0000FFFF8
FFE00007FFF8
FFE00003FFF8
FFE00003FFF8
FFE00001FFF8
FFE00001FFF8
FFE00000FFF8
FFE000007FF8
FFE000007FF8
ENDCHAR
STARTCHAR 0144
ENCODING 324
SWIDTH 552 0
DWIDTH 43 0
BBX 36 58 4 0
BITMAP
00000FFF00
00001FFC00
00003FFC00
00003FF800
00007FF000
0000FFE000
0000FFC000
0001FF8000
0001FF0000
0003FE0000
0007FC0000
0000000000
0000000000
0000000000
0000000000
0000000000
00001FC000
FFC0FFF800
FFC3FFFE00
FFC7FFFF00
FFEFFFFF80
FFFFFFFF80
FFFFFFFFC0
FFFFFFFFC0
FFFFFFFFE0
FFFC03FFE0
FFF801FFE0
FFF000FFE0
FFE000FFE0
FFE000FFE0
FFE000FFF0
FFE0007FF0
FFE0007FF0
FFE0007FF0
FFE0007FF0
FFE0007FF0
FFE0007FF0
FFE0007FF0
FFE0007FF0
FFE0007FF0
FFE0007FF0
FFE0007FF0
FFE0007FF0
FFE0007FF0
FFE0007FF0
FFE0007FF0
FFE0007FF0
FFE0007FF0
FFE0007FF0
FFE0007FF0
FFE0007FF0
FFE0007FF0
FFE0007FF0
FFE0007FF0
FFE0007FF0
FFE0007FF0
FFE0007FF0
FFE0007FF0
ENDCHAR
STARTCHAR 0145
ENCODING 325
SWIDTH 694 0
DWIDTH 54 0
BBX 45 74 5 -19
BITMAP
FFF000003FF8
FFF000003FF8
FFF800003FF8
FFFC00003FF8
FFFC00003FF8
FFFE00003FF8
FFFE00003FF8
FFFF00003FF8
FFFF80003FF8
FFFF80003FF8
FFFFC0003FF8
FFFFC0003FF8
FFFFE0003FF8
FFFFF0003FF8
FFFFF0003FF8
FFFFF8003FF8
FFFFF8003FF8
FFFFFC003FF8
FFEFFE003FF8
FFEFFE003FF8
FFE7FF003FF8
FFE7FF003FF8
FFE3FF803FF8
FFE1FFC03FF8
FFE1FFC03FF8
FFE0FFE03FF8
FFE0FFE03FF8
FFE07FF03FF8
FFE03FF83FF8
FFE03FF83FF8
FFE01FFC3FF8
FFE01FFC3FF8
FFE00FFE3FF8
FFE007FF3FF8
FFE007FF3FF8
FFE003FFBFF8
FFE003FFBFF8
FFE001FFFFF8
FFE000FFFFF8
FFE000FFFFF8
FFE0007FFFF8
FFE0007FFFF8
FFE0003FFFF8
FFE0001FFFF8
FFE0001FFFF8
FFE0000FFFF8
FFE0000FFFF8
FFE00007FFF8
FFE00003FFF8
FFE00003FFF8
FFE00001FFF8
FFE00001FFF8
FFE00000FFF8
FFE000007FF8
FFE000007FF8
000000000000
000000000000
000000000000
00001FE00000
00001FE00000
00001FE00000
00001FE00000
00001FE00000
00003FC00000
00003FC00000
00003FC00000
00003FC00000
00003F800000
00007F800000
00007F800000
0000FF000000
0000FE000000
00007E000000
00001C000000
ENDCHAR
STARTCHAR 0146
ENCODING 326
SWIDTH 552 0
DWIDTH 43 0
BBX 36 61 4 -19
BITMAP
00001FC000
FFC0FFF800
FFC3FFFE00
FFC7FFFF00
FFEFFFFF80
FFFFFFFF80
FFFFFFFFC0
FFFFFFFFC0
FFFFFFFFE0
FFFC03FFE0
FFF801FFE0
FFF000FFE0
FFE000FFE0
FFE000FFE0
FFE000FFF0
FFE0007FF0
FFE0007FF0
FFE0007FF0
FFE0007FF0
FFE0007FF0
FFE0007FF0
FFE0007FF0
FFE0007FF0
FFE0007FF0
FFE0007FF0
FFE0007FF0
FFE0007FF0
FFE0007FF0
FFE0007FF0
FFE0007FF0
FFE0007FF0
FFE0007FF0
FFE0007FF0
FFE0007FF0
FFE0007FF0
FFE0007FF0
FFE0007FF0
FFE0007FF0
FFE0007FF0
FFE0007FF0
FFE0007FF0
FFE0007FF0
0000000000
0000000000
0000000000
0003FC0000
0003FC0000
0003FC0000
0003FC0000
0003FC0000
0003FC0000
0003F80000
0007F80000
0007F80000
0007F80000
000FF00000
000FF00000
001FE00000
001FE00000
0007C00000
0001800000
ENDCHAR
STARTCHAR 0147
ENCODING 327
SWIDTH 694 0
DWIDTH 54 0
BBX 45 70 5 0
BITMAP
00FFC00FF800
007FE01FF000
003FF03FE000
001FF8FFC000
000FFDFF8000
0007FFFF0000
0003FFFE0000
0001FFFC0000
00007FF80000
00003FF00000
00001FE00000
000000000000
000000000000
000000000000
000000000000
FFF000003FF8
FFF000003FF8
FFF800003FF8
FFFC00003FF8
FFFC00003FF8
FFFE00003FF8
FFFE00003FF8
FFFF00003FF8
FFFF80003FF8
FFFF80003FF8
FFFFC0003FF8
FFFFC0003FF8
FFFFE0003FF8
FFFFF0003FF8
FFFFF0003FF8
FFFFF8003FF8
FFFFF8003FF8
FFFFFC003FF8
FFEFFE003FF8
FFEFFE003FF8
FFE7FF003FF8
FFE7FF003FF8
FFE3FF803FF8
FFE1FFC03FF8
FFE1FFC03FF8
FFE0FFE03FF8
FFE0FFE03FF8
FFE07FF03FF8
FFE03FF83FF8
FFE03FF83FF8
FFE01FFC3FF8
FFE01FFC3FF8
FFE00FFE3FF8
FFE007FF3FF8
FFE007FF3FF8
FFE003FFBFF8
FFE003FFBFF8
FFE001FFFFF8
FFE000FFFFF8
FFE000FFFFF8
FFE0007FFFF8
FFE0007FFFF8
FFE0003FFFF8
FFE0001FFFF8
FFE0001FFFF8
FFE0000FFFF8
FFE0000FFFF8
FFE00007FFF8
FFE00003FFF8
FFE00003FFF8
FFE00001FFF8
FFE00001FFF8
FFE00000FFF8
FFE000007FF8
FFE000007FF8
ENDCHAR
STARTCHAR 0148
ENCODING 328
SWIDTH 552 0
DWIDTH 43 0
BBX 36 58 4 0
BITMAP
1FF801FF00
07FC03FE00
03FE07FC00
01FF0FF800
00FF9FF000
007FFFE000
003FFFC000
001FFF8000
000FFF0000
0007FE0000
0003FC0000
0000000000
0000000000
0000000000
0000000000
0000000000
00001FC000
FFC0FFF800
FFC3FFFE00
FFC7FFFF00
FFEFFFFF80
FFFFFFFF80
FFFFFFFFC0
FFFFFFFFC0
FFFFFFFFE0
FFFC03FFE0
FFF801FFE0
FFF000FFE0
FFE000FFE0
FFE000FFE0
FFE000FFF0
FFE0007FF0
FFE0007FF0
FFE0007FF0
FFE0007FF0
FFE0007FF0
FFE0007FF0
FFE0007FF0
FFE0007FF0
FFE0007FF0
FFE0007FF0
FFE0007FF0
FFE0007FF0
FFE0007FF0
FFE0007FF0
FFE0007FF0
FFE0007FF0
FFE0007FF0
FFE0007FF0
FFE0007FF0
FFE0007FF0
FFE0007FF0
FFE0007FF0
FFE0007FF0
FFE0007FF0
FFE0007FF0
FFE0007FF0
FFE0007FF0
ENDCHAR
STARTCHAR 0149
ENCODING 329
SWIDTH 552 0
DWIDTH 43 0
BBX 44 58 -4 0
BITMAP
1FE000000000
1FE000000000
1FE000000000
1FE000000000
1FC000000000
3FC000000000
3FC000000000
3FC000000000
3F8000000000
7F8000000000
7F8000000000
FF0000000000
FF0000000000
7E0000000000
1C0000000000
000000000000
0000001FC000
00FFC0FFF800
00FFC3FFFE00
00FFC7FFFF00
00FFEFFFFF80
00FFFFFFFF80
00FFFFFFFFC0
00FFFFFFFFC0
00FFFFFFFFE0
00FFFC03FFE0
00FFF801FFE0
00FFF000FFE0
00FFE000FFE0
00FFE000FFE0
00FFE000FFF0
00FFE0007FF0
00FFE0007FF0
00FFE0007FF0
00FFE0007FF0
00FFE0007FF0
00FFE0007FF0
00FFE0007FF0
00FFE0007FF0
00FFE0007FF0
00FFE0007FF0
00FFE0007FF0
00FFE0007FF0
00FFE0007FF0
00FFE0007FF0
00FFE0007FF0
00FFE0007FF0
00FFE0007FF0
00FFE0007FF0
00FFE0007FF0
00FFE0007FF0
00FFE0007FF0
00FFE0007FF0
00FFE0007FF0
00FFE0007FF0
00FFE0007FF0
00FFE0007FF0
00FFE0007FF0
ENDCHAR
STARTCHAR 014A
ENCODING 330
SWIDTH 694 0
DWIDTH 54 0
BBX 45 72 5 -17
BITMAP
FFF000003FF8
FFF000003FF8
FFF800003FF8
FFFC00003FF8
FFFC00003FF8
FFFE00003FF8
FFFE00003FF8
FFFF00003FF8
FFFF80003FF8
FFFF80003FF8
FFFFC0003FF8
FFFFC0003FF8
FFFFE0003FF8
FFFFF0003FF8
FFFFF0003FF8
FFFFF8003FF8
FFFFF8003FF8
FFFFFC003FF8
FFEFFE003FF8
FFEFFE003FF8
FFE7FF003FF8
FFE3FF003FF8
FFE3FF803FF8
FFE1FFC03FF8
FFE1FFC03FF8
FFE0FFE03FF8
FFE07FE03FF8
FFE07FF03FF8
FFE03FF03FF8
FFE03FF83FF8
FFE01FFC3FF8
FFE00FFC3FF8
FFE00FFE3FF8
FFE007FE3FF8
FFE007FF3FF8
FFE003FFBFF8
FFE003FFBFF8
FFE001FFFFF8
FFE000FFFFF8
FFE000FFFFF8
FFE0007FFFF8
FFE0007FFFF8
FFE0003FFFF8
FFE0001FFFF8
FFE0001FFFF8
FFE0000FFFF8
FFE0000FFFF8
FFE00007FFF8
FFE00003FFF8
FFE00003FFF8
FFE00001FFF8
FFE00001FFF8
FFE00000FFF8
FFE000007FF8
FFE000007FF8
000000003FF8
000000007FF8
000000007FF8
000000007FF8
000000007FF8
000000007FF8
00000000FFF0
00000043FFF0
0000007FFFF0
0000007FFFE0
0000007FFFE0
0000007FFFC0
0000007FFF80
0000007FFF00
0000007FFE00
0000007FF800
0000000E0000
ENDCHAR
STARTCHAR 014B
ENCODING 331
SWIDTH 552 0
DWIDTH 43 0
BBX 36 59 4 -17
BITMAP
00001FC000
FFC07FF800
FFC1FFFE00
FFE3FFFF00
FFE7FFFF80
FFEFFFFF80
FFFFFFFFC0
FFFFFFFFC0
FFFFFFFFE0
FFFE03FFE0
FFF801FFE0
FFF000FFE0
FFE000FFE0
FFE000FFF0
FFE0007FF0
FFE0007FF0
FFE0007FF0
FFE0007FF0
FFE0007FF0
FFE0007FF0
FFE0007FF0
FFE0007FF0
FFE0007FF0
FFE0007FF0
FFE0007FF0
FFE0007FF0
FFE0007FF0
FFE0007FF0
FFE0007FF0
FFE0007FF0
FFE0007FF0
FFE0007FF0
FFE0007FF0
FFE0007FF0
FFE0007FF0
FFE0007FF0
FFE0007FF0
FFE0007FF0
FFE0007FF0
FFE0007FF0
FFE0007FF0
FFE0007FF0
0000007FF0
0000007FF0
0000007FF0
0000007FF0
000000FFF0
000000FFE0
000001FFE0
000003FFE0
0000FFFFE0
0000FFFFC0
0000FFFFC0
0000FFFF80
0000FFFF00
0000FFFE00
0000FFFC00
0000FFF000
00001C0000
ENDCHAR
STARTCHAR 014C
ENCODING 332
SWIDTH 681 0
DWIDTH 53 0
BBX 47 68 3 -1
BITMAP
001FFFFFF800
001FFFFFF800
001FFFFFF800
001FFFFFF800
001FFFFFF800
001FFFFFF800
000000000000
000000000000
000000000000
000000000000
000000000000
00003FF80000
0001FFFF8000
0007FFFFE000
001FFFFFF800
003FFFFFFC00
00FFFFFFFE00
01FFFFFFFF00
01FFFFFFFF80
03FFFFFFFFC0
07FFF01FFFE0
0FFFC007FFE0
0FFF8001FFF0
1FFF0000FFF0
1FFE00007FF8
3FFC00007FF8
3FFC00003FFC
3FF800003FFC
7FF800001FFC
7FF800001FFC
7FF800001FFE
7FF000001FFE
7FF000001FFE
FFF000000FFE
FFF000000FFE
FFF000000FFE
FFF000000FFE
FFF000000FFE
FFF000000FFE
FFF000000FFE
FFF000000FFE
FFF000000FFE
FFF000000FFE
FFF000000FFE
FFF000000FFE
7FF000000FFE
7FF000001FFE
7FF000001FFE
7FF800001FFE
7FF800001FFC
7FF800003FFC
3FFC00003FFC
3FFC00003FF8
1FFE00007FF8
1FFE0000FFF8
1FFF0000FFF0
0FFF8001FFF0
07FFE007FFE0
07FFFC3FFFC0
03FFFFFFFFC0
01FFFFFFFF80
00FFFFFFFF00
007FFFFFFE00
003FFFFFFC00
000FFFFFF000
0007FFFFC000
0000FFFF0000
000007E00000
ENDCHAR
STARTCHAR 014D
ENCODING 333
SWIDTH 552 0
DWIDTH 43 0
BBX 39 56 2 -1
BITMAP
01FFFFFF80
01FFFFFF80
01FFFFFF80
01FFFFFF80
01FFFFFF80
01FFFFFF80
0000000000
0000000000
0000000000
0000000000
0000000000
0000000000
0000000000
0000FF0000
000FFFF000
003FFFFC00
00FFFFFE00
01FFFFFF80
03FFFFFFC0
07FFFFFFE0
0FFFFFFFE0
0FFFFFFFF0
1FFF01FFF8
1FFE007FF8
3FFC003FFC
3FF8001FFC
3FF8001FFC
7FF0001FFE
7FF0000FFE
7FF0000FFE
7FF0000FFE
7FF0000FFE
7FE0000FFE
FFE0000FFE
FFE0000FFE
FFE0000FFE
7FE0000FFE
7FF0000FFE
7FF0000FFE
7FF0000FFE
7FF0000FFE
7FF0001FFE
3FF8001FFC
3FF8001FFC
3FFC003FFC
1FFE007FF8
1FFF01FFF8
0FFFFFFFF0
07FFFFFFE0
07FFFFFFE0
03FFFFFFC0
01FFFFFF80
007FFFFE00
003FFFFC00
000FFFF000
00007E0000
ENDCHAR
STARTCHAR 014E
ENCODING 334
SWIDTH 681 0
DWIDTH 53 0
BBX 47 71 3 -1
BITMAP
001FC007F800
001FC007F800
001FE007F800
001FE00FF800
001FF01FF000
000FFFFFF000
000FFFFFE000
0007FFFFC000
0003FFFF8000
0000FFFF0000
00003FFC0000
000000000000
000000000000
000000000000
00003FF80000
0001FFFF8000
0007FFFFE000
001FFFFFF800
003FFFFFFC00
00FFFFFFFE00
01FFFFFFFF00
01FFFFFFFF80
03FFFFFFFFC0
07FFF01FFFE0
0FFFC007FFE0
0FFF8001FFF0
1FFF0000FFF0
1FFE00007FF8
3FFC00007FF8
3FFC00003FFC
3FF800003FFC
7FF800001FFC
7FF800001FFC
7FF800001FFE
7FF000001FFE
7FF000001FFE
FFF000000FFE
FFF000000FFE
FFF000000FFE
FFF000000FFE
FFF000000FFE
FFF000000FFE
FFF000000FFE
FFF000000FFE
FFF000000FFE
FFF000000FFE
FFF000000FFE
FFF000000FFE
7FF000000FFE
7FF000001FFE
7FF000001FFE
7FF800001FFE
7FF800001FFC
7FF800003FFC
3FFC00003FFC
3FFC00003FF8
1FFE00007FF8
1FFE0000FFF8
1FFF0000FFF0
0FFF8001FFF0
07FFE007FFE0
07FFFC3FFFC0
03FFFFFFFFC0
01FFFFFFFF80
00FFFFFFFF00
007FFFFFFE00
003FFFFFFC00
000FFFFFF000
0007FFFFC000
0000FFFF0000
000007E00000
ENDCHAR
STARTCHAR 014F
ENCODING 335
SWIDTH 552 0
DWIDTH 43 0
BBX 39 59 2 -1
BITMAP
01FC007F80
01FE007F80
01FE007F80
01FF00FF80
00FF81FF00
00FFFFFF00
007FFFFE00
003FFFFC00
001FFFF800
000FFFF000
0003FF8000
0000000000
0000000000
0000000000
0000000000
0000000000
0000FF0000
000FFFF000
003FFFFC00
00FFFFFE00
01FFFFFF80
03FFFFFFC0
07FFFFFFE0
0FFFFFFFE0
0FFFFFFFF0
1FFF01FFF8
1FFE007FF8
3FFC003FFC
3FF8001FFC
3FF8001FFC
7FF0001FFE
7FF0000FFE
7FF0000FFE
7FF0000FFE
7FF0000FFE
7FE0000FFE
FFE0000FFE
FFE0000FFE
FFE0000FFE
7FE0000FFE
7FF0000FFE
7FF0000FFE
7FF0000FFE
7FF0000FFE
7FF0001FFE
3FF8001FFC
3FF8001FFC
3FFC003FFC
1FFE007FF8
1FFF01FFF8
0FFFFFFFF0
07FFFFFFE0
07FFFFFFE0
03FFFFFFC0
01FFFFFF80
007FFFFE00
003FFFFC00
000FFFF000
00007E0000
ENDCHAR
STARTCHAR 0150
ENCODING 336
SWIDTH 681 0
DWIDTH 53 0
BBX 47 71 3 -1
BITMAP
00001FF83FE0
00003FF07FE0
00003FE0FFC0
00007FC1FF80
0000FF81FF00
0000FF83FE00
0001FF07FC00
0001FE0FF800
0003FC0FF000
0007FC1FE000
0007F83FE000
000000000000
000000000000
000000000000
00003FF80000
0001FFFF8000
0007FFFFE000
001FFFFFF800
003FFFFFFC00
00FFFFFFFE00
01FFFFFFFF00
01FFFFFFFF80
03FFFFFFFFC0
07FFF01FFFE0
0FFFC007FFE0
0FFF8001FFF0
1FFF0000FFF0
1FFE00007FF8
3FFC00007FF8
3FFC00003FFC
3FF800003FFC
7FF800001FFC
7FF800001FFC
7FF800001FFE
7FF000001FFE
7FF000001FFE
FFF000000FFE
FFF000000FFE
FFF000000FFE
FFF000000FFE
FFF000000FFE
FFF000000FFE
FFF000000FFE
FFF000000FFE
FFF000000FFE
FFF000000FFE
FFF000000FFE
FFF000000FFE
7FF000000FFE
7FF000001FFE
7FF000001FFE
7FF800001FFE
7FF800001FFC
7FF800003FFC
3FFC00003FFC
3FFC00003FF8
1FFE00007FF8
1FFE0000FFF8
1FFF0000FFF0
0FFF8001FFF0
07FFE007FFE0
07FFFC3FFFC0
03FFFFFFFFC0
01FFFFFFFF80
00FFFFFFFF00
007FFFFFFE00
003FFFFFFC00
000FFFFFF000
0007FFFFC000
0000FFFF0000
000007E00000
ENDCHAR
STARTCHAR 0151
ENCODING 337
SWIDTH 552 0
DWIDTH 43 0
BBX 40 59 2 -1
BITMAP
0001FF83FF
0003FF07FC
0003FE0FFC
0007FC1FF8
000FF81FF0
000FF83FE0
001FF07FC0
001FE0FF80
003FC0FF00
007FC1FE00
007F83FC00
0000000000
0000000000
0000000000
0000000000
0000000000
0000FF0000
000FFFF000
003FFFFC00
00FFFFFE00
01FFFFFF80
03FFFFFFC0
07FFFFFFE0
0FFFFFFFE0
0FFFFFFFF0
1FFF01FFF8
1FFE007FF8
3FFC003FFC
3FF8001FFC
3FF8001FFC
7FF0001FFE
7FF0000FFE
7FF0000FFE
7FF0000FFE
7FF0000FFE
7FE0000FFE
FFE0000FFE
FFE0000FFE
FFE0000FFE
7FE0000FFE
7FF0000FFE
7FF0000FFE
7FF0000FFE
7FF0000FFE
7FF0001FFE
3FF8001FFC
3FF8001FFC
3FFC003FFC
1FFE007FF8
1FFF01FFF8
0FFFFFFFF0
07FFFFFFE0
07FFFFFFE0
03FFFFFFC0
01FFFFFF80
007FFFFE00
003FFFFC00
000FFFF000
00007E0000
ENDCHAR
STARTCHAR 0152
ENCODING 338
SWIDTH 964 0
DWIDTH 75 0
BBX 67 57 4 -1
BITMAP
00007FFF0000000000
0007FFFFFFFFFFFFE0
001FFFFFFFFFFFFFE0
007FFFFFFFFFFFFFE0
00FFFFFFFFFFFFFFE0
01FFFFFFFFFFFFFFE0
03FFFFFFFFFFFFFFE0
07FFFFFFFFFFFFFFE0
0FFFFDFFFFFFFFFFE0
1FFF8003FFFFFFFFE0
1FFF0003FFC0000000
3FFC0003FFC0000000
3FF80003FFC0000000
7FF80003FFC0000000
7FF00003FFC0000000
7FF00003FFC0000000
FFE00003FFC0000000
FFE00003FFC0000000
FFE00003FFC0000000
FFE00003FFC0000000
FFE00003FFC0000000
FFE00003FFC0000000
FFE00003FFC0000000
FFE00003FFFFFFFF00
FFE00003FFFFFFFF00
FFE00003FFFFFFFF00
FFE00003FFFFFFFF00
FFE00003FFFFFFFF00
FFE00003FFFFFFFF00
FFE00003FFFFFFFF00
FFE00003FFFFFFFF00
FFE00003FFFFFFFF00
FFE00003FFC0000000
FFE00003FFC0000000
FFE00003FFC0000000
FFE00003FFC0000000
FFE00003FFC0000000
FFE00003FFC0000000
FFE00003FFC0000000
FFE00003FFC0000000
FFF00003FFC0000000
7FF00003FFC0000000
7FF00003FFC0000000
7FF80003FFC0000000
3FFC0003FFC0000000
3FFE0003FFC0000000
1FFF0003FFC0000000
0FFFC003FFFFFFFFE0
0FFFFFFFFFFFFFFFE0
07FFFFFFFFFFFFFFE0
03FFFFFFFFFFFFFFE0
01FFFFFFFFFFFFFFE0
00FFFFFFFFFFFFFFE0
003FFFFFFFFFFFFFE0
000FFFFFFFFFFFFFE0
0003FFFFFFFFFFFFE0
00001FF80000000000
ENDCHAR
STARTCHAR 0153
ENCODING 339
SWIDTH 900 0
DWIDTH 70 0
BBX 64 43 3 -1
BITMAP
0001FF00001FE000
000FFFE000FFFC00
003FFFF803FFFF00
00FFFFFE0FFFFFC0
01FFFFFF1FFFFFE0
03FFFFFFBFFFFFF0
07FFFFFFFFFFFFF8
0FFFFFFFFFFFFFFC
1FFFFFFFFFFFFFFC
1FFF01FFFFF03FFE
3FFC00FFFFC00FFE
3FFC007FFFC00FFE
7FF8003FFF8007FF
7FF0001FFF8007FF
7FF0001FFF0007FF
7FF0001FFF0003FF
FFF0000FFF0003FF
FFE0000FFFFFFFFF
FFE0000FFFFFFFFF
FFE0000FFFFFFFFF
FFE0000FFFFFFFFF
FFE0000FFFFFFFFF
FFE0000FFFFFFFFF
FFE0000FFFFFFFFF
FFE0000FFFFFFFFF
FFE0000FFF000000
7FF0000FFF000000
7FF0001FFF000000
7FF0001FFF000000
7FF0001FFF800000
3FF8003FFF800000
3FFC007FFFC00008
3FFE007FFFE00038
1FFF01FFFFF801FC
1FFFFFFFFFFFFFFC
0FFFFFFFFFFFFFFC
07FFFFFFFFFFFFFE
03FFFFFFBFFFFFFE
01FFFFFF1FFFFFFE
00FFFFFE0FFFFFF8
003FFFF803FFFFE0
000FFFE000FFFF00
00007E000007E000
ENDCHAR
STARTCHAR 0154
ENCODING 340
SWIDTH 630 0
DWIDTH 49 0
BBX 43 70 5 0
BITMAP
00000FFE0000
00001FFC0000
00003FFC0000
00003FF80000
00007FF00000
0000FFE00000
0000FFC00000
0001FF800000
0003FF000000
0003FE000000
0007FC000000
0007F8000000
000000000000
000000000000
000000000000
FFFFFFF00000
FFFFFFFE0000
FFFFFFFF8000
FFFFFFFFE000
FFFFFFFFF000
FFFFFFFFF800
FFFFFFFFFC00
FFFFFFFFFE00
FFFFFFFFFE00
FFE0007FFF00
FFE0001FFF00
FFE0000FFF00
FFE00007FF80
FFE00007FF80
FFE00007FF80
FFE00007FF80
FFE00003FF80
FFE00003FF80
FFE00003FF80
FFE00007FF80
FFE00007FF80
FFE00007FF00
FFE0000FFF00
FFE0001FFF00
FFE0003FFE00
FFE003FFFE00
FFFFFFFFFC00
FFFFFFFFF800
FFFFFFFFF000
FFFFFFFFE000
FFFFFFFF8000
FFFFFFFF0000
FFFFFFFE0000
FFFFFFFF0000
FFFFFFFF8000
FFE007FF8000
FFE007FFC000
FFE003FFC000
FFE003FFE000
FFE001FFE000
FFE001FFF000
FFE000FFF000
FFE000FFF800
FFE0007FF800
FFE0007FFC00
FFE0003FFC00
FFE0001FFE00
FFE0001FFE00
FFE0000FFF00
FFE0000FFF00
FFE00007FF80
FFE00007FF80
FFE00003FFC0
FFE00003FFE0
FFE00001FFE0
ENDCHAR
STARTCHAR 0155
ENCODING 341
SWIDTH 360 0
DWIDTH 28 0
BBX 25 58 4 0
BITMAP
0007FF80
0007FF00
000FFE00
001FFC00
001FF800
003FF800
003FF000
007FE000
00FFC000
00FF8000
01FF0000
00000000
00000000
00000000
00000000
00000000
00007E00
FFE1FF00
FFE3FF00
FFE7FF00
FFEFFF00
FFFFFF00
FFFFFE00
FFFFFE00
FFFFFE00
FFFFFE00
FFFFFE00
FFFC0000
FFF80000
FFF00000
FFE00000
FFE00000
FFE00000
FFE00000
FFE00000
FFE00000
FFE00000
FFE00000
FFE00000
FFE00000
FFE00000
FFE00000
FFE00000
FFE00000
FFE00000
FFE00000
FFE00000
FFE00000
FFE00000
FFE00000
FFE00000
FFE00000
FFE00000
FFE00000
FFE00000
FFE00000
FFE00000
FFE00000
ENDCHAR
STARTCHAR 0156
ENCODING 342
SWIDTH 630 0
DWIDTH 49 0
BBX 43 74 5 -19
BITMAP
FFFFFFF00000
FFFFFFFE0000
FFFFFFFF8000
FFFFFFFFE000
FFFFFFFFF000
FFFFFFFFF800
FFFFFFFFFC00
FFFFFFFFFE00
FFFFFFFFFE00
FFE0007FFF00
FFE0001FFF00
FFE0000FFF00
FFE00007FF80
FFE00007FF80
FFE00007FF80
FFE00007FF80
FFE00003FF80
FFE00003FF80
FFE00003FF80
FFE00007FF80
FFE00007FF80
FFE00007FF00
FFE0000FFF00
FFE0001FFF00
FFE0003FFE00
FFE003FFFE00
FFFFFFFFFC00
FFFFFFFFF800
FFFFFFFFF000
FFFFFFFFE000
FFFFFFFF8000
FFFFFFFF0000
FFFFFFFE0000
FFFFFFFF0000
FFFFFFFF8000
FFE007FF8000
FFE007FFC000
FFE003FFC000
FFE003FFE000
FFE001FFE000
FFE001FFF000
FFE000FFF000
FFE000FFF800
FFE0007FF800
FFE0007FFC00
FFE0003FFC00
FFE0001FFE00
FFE0001FFE00
FFE0000FFF00
FFE0000FFF00
FFE00007FF80
FFE00007FF80
FFE00003FFC0
FFE00003FFE0
FFE00001FFE0
000000000000
000000000000
000000000000
0003FC000000
0003FC000000
0003FC000000
0003FC000000
0003FC000000
0003FC000000
0003FC000000
0003FC000000
0003F8000000
0007F8000000
0007F8000000
000FF0000000
000FF0000000
000FE0000000
0003C0000000
0000C0000000
ENDCHAR
ENDFONT
